<?xml version="1.0" encoding="utf-8"?>
<!-- Generator: Adobe Illustrator 19.0.0, SVG Export Plug-In . SVG Version: 6.00 Build 0)  -->
<svg version="1.1" xmlns="http://www.w3.org/2000/svg" xmlns:xlink="http://www.w3.org/1999/xlink" x="0px" y="0px"
	 viewBox="0 0 792 612" style="enable-background:new 0 0 792 612;" xml:space="preserve">
<style type="text/css">
	.st0{fill:#FFFFFF;}
	.st1{stroke:#FFFAFA;stroke-width:3;stroke-miterlimit:10;}
	.st2{fill:none;stroke:#F7CA12;stroke-width:3;stroke-miterlimit:10;}
	.st3{fill:none;stroke:#020202;stroke-miterlimit:10;}
	.st4{fill:#FFFFFF;stroke:#000000;stroke-miterlimit:10;}
	.st5{stroke:#FFFFFF;stroke-width:3;stroke-miterlimit:10;}
	.st6{fill:none;stroke:#000000;stroke-miterlimit:10;}
	.st7{fill:none;stroke:#000000;stroke-width:3;stroke-miterlimit:10;}
	.st8{stroke:#000000;stroke-miterlimit:10;}
	.st9{fill:#FFFFFF;stroke:#000000;stroke-width:3;stroke-miterlimit:10;}
	.st10{fill:#BA2025;stroke:#000000;stroke-width:3;stroke-miterlimit:10;}
	.st11{stroke:#FFFFFF;stroke-width:2;stroke-miterlimit:10;}
	.st12{fill:none;stroke:#FFFFFF;stroke-width:0.1;stroke-miterlimit:10;}
	.st13{fill:#FFFAFA;stroke:#000000;stroke-width:3;stroke-miterlimit:10;}
	.st14{stroke:#FFFFFF;stroke-miterlimit:10;}
	.st15{fill:none;stroke:#FFFFFF;stroke-width:3;stroke-miterlimit:10;}
	.st16{fill:#020202;}
	.st17{fill:#FFFFFF;stroke:#FFFFFF;stroke-miterlimit:10;}
	.st18{fill:#FFFFFF;stroke:#000000;stroke-width:2;stroke-miterlimit:10;}
	.st19{fill:none;stroke:#000000;stroke-width:0.1;stroke-miterlimit:10;}
</style>
<g id="bg">
	<rect id="bg-b" x="395.3" width="396.7" height="612"/>
	<rect id="bg-w_1_" class="st0" width="395.7" height="612"/>
</g>
<g id="bolon-b">
	<rect id="XMLID_313_" x="75.7" y="482.9" width="241" height="8"/>
	<rect id="XMLID_312_" x="75.3" y="502.6" width="241" height="8"/>
	<path id="XMLID_311_" d="M356.1,392.2L196,69.5v-0.5l-0.1,0.3l-0.1-0.3v0.5L35.7,392.2L15,399.7l9.6,7.7l20.7-7.5l9.1-0.1
		c0,0,127.3,5.1,141.3,5.2v0c0,0,0.1,0,0.1,0c0,0,0.1,0,0.1,0v0c14-0.1,141.3-5.2,141.3-5.2l9.1,0.1l20.7,7.5l9.6-7.7L356.1,392.2z"
		/>
	<path id="XMLID_310_" class="st1" d="M196.6,402.5c30.5,0,141.6-6.3,141.6-6.3l-8,53.8h5.7l-1.1,17.2c0,0-108.5,4.7-138.2,4.7
		s-138.2-4.7-138.2-4.7L57.3,450h5.7l-8-53.8C55.1,396.2,166.1,402.5,196.6,402.5"/>
	<path id="XMLID_309_" d="M64.4,467.7v58c0,0-6.4,1-6.4,3.2v6.1c0,0,2.3,3.4,12.2,3.4s14.1-1.1,14.1-3.4c0-2.3,0-2.7,0-6.1
		c0,0-1.9-3.1-6.9-3.1v-57.6L64.4,467.7z"/>
	<path id="XMLID_308_" d="M110.2,469.7v56.2c0,0-7.8,1.1-7.8,3.1c0,1.9,0,6.1,0,6.1s2.5,2.1,13.5,2.1c0,0,13.2-0.2,13.2-2.1
		c0-1.9,0-6.1,0-6.1s-2.1-3.1-6.3-3.1v-55.7L110.2,469.7z"/>
	<path id="XMLID_307_" d="M155.5,471.3v54.6c0,0-7.1,0.6-7.1,3.1s0,6.1,0,6.1s7.3,3.4,17,3.4s10.1-3.4,10.1-3.4v-6.1
		c0,0-0.6-3.1-6.9-3.1v-54.1L155.5,471.3z"/>
	<path id="XMLID_306_" d="M327.7,467.7v58c0,0,6.4,1,6.4,3.2v6.1c0,0-2.3,3.4-12.2,3.4c-9.9,0-14.1-1.1-14.1-3.4c0-2.3,0-2.7,0-6.1
		c0,0,1.9-3.1,6.9-3.1v-57.6L327.7,467.7z"/>
	<path id="XMLID_305_" d="M236.6,471.3v54.6c0,0,7.1,0.6,7.1,3.1s0,6.1,0,6.1s-3.8,3.4-13.5,3.4s-13.5-3.4-13.5-3.4v-6.1
		c0,0,0.6-3.1,6.9-3.1v-54.1L236.6,471.3z"/>
	<path id="XMLID_304_" d="M281.8,469.7v56.2c0,0,7.8,1.1,7.8,3.1c0,1.9,0,6.1,0,6.1s-2.5,2.1-13.5,2.1c0,0-13.2-0.2-13.2-2.1
		c0-1.9,0-6.1,0-6.1s2.1-3.1,6.3-3.1v-55.7L281.8,469.7z"/>
	<path id="XMLID_303_" class="st2" d="M55.3,397.8"/>
	<path id="XMLID_302_" class="st2" d="M346.7,398.8"/>
	<path id="XMLID_301_" class="st3" d="M196.3,359.1c66.4,0,103.1-3.9,103.1-3.9l-96.3-196.1h-6.8h0h-6.8L92.6,355.2
		C92.6,355.2,129.9,359.1,196.3,359.1L196.3,359.1L196.3,359.1L196.3,359.1L196.3,359.1z"/>
	<path id="XMLID_300_" class="st4" d="M196.6,95.8L45.9,398.8c0,0,107.2,5.1,150.7,5.1l0,0h0h0l0,0c43.5,0,150.7-5.1,150.7-5.1
		L196.6,95.8L196.6,95.8z"/>
	<path id="XMLID_299_" class="st5" d="M196,145.1L80.7,381.5c0,3.8,39.7,3.1,39.7,3.1s69.5-3.1,69.5-18.3h6.1h0h6.1
		c0,15.3,69.5,18.3,69.5,18.3s39.7,0.8,39.7-3.1L196,145.1L196,145.1z"/>
	<path id="XMLID_298_" class="st6" d="M202.8,244.4"/>
	<polygon id="XMLID_297_" class="st6" points="196,121 63,387.9 328.6,387.9 	"/>
	<g id="XMLID_290_">
		<path id="XMLID_296_" class="st0" d="M191.8,314.7c-0.4-4.5-2.2-7.6-4.7-8.3c-2.2-0.6-3.8,1.2-4.7,5.1c-1.1,4.8,0.1,8.4,2.6,8.1
			c0.8-0.1,1.5-0.4,2.3-0.7c-0.1,6.5-1.6,7.3-6.3,3.4c-1.1,3.6-1.5,3.9-3.3,3.2c0-2.6,0-5.3,0-8.2c-2,1.6-3.7,3.2-5.4,4.2
			c-5.1,3.1-10,0.5-14.8-3.1c-6-4.4-12-9.8-18.3-11.7c-2.7-0.8-5.4-1-8.2-1.4l-3.3,6.9c7.4,3,14.9,5.7,22.4,8.6
			c8.6,3.3,17.2,6.9,25.9,10.1c3.3,1.2,6.7,1.9,10,0.6c0.7-0.5,1.5-1,2.4-1.4C191.3,327.4,192.5,321.8,191.8,314.7z"/>
		<path id="XMLID_295_" class="st0" d="M254.9,315.4c3-1.2,6.1-2.5,9.1-3.8c-1.2-2.4-2.3-4.7-3.2-6.6c-8.5-0.2-16.5,4.8-24.4,10.9
			c-3.8,2.9-7.7,5.1-11.6,6.7c-3.6,1.5-7.1-0.7-10.4-4.1c-1.5-1.5-1.9-0.8-1.8,2.7c0.1,1.4,0.2,2.8,0.3,4.1
			c-1.6,1.3-2.3,0.7-3.4-2.9c-1.6,0.9-3.1,4.4-5,2.1c-0.8-1-1.2-3.2-1.8-5.1c1.5,0,2.7,0.3,3.9-0.1c1.8-0.6,2.4-3.2,1.7-6.7
			c-0.9-5-2.9-7-5.5-5.8c-2.8,1.3-4.3,5.8-4.2,11.8c0.1,5.2,1.1,8.5,2.6,10.6c2,0.8,3.8,1.8,5.3,2.9c4.7,0.6,9.3-1.5,14-3.3
			C232,324.2,243.4,319.9,254.9,315.4z"/>
		<path id="XMLID_294_" class="st0" d="M198.3,300.9c0.2,0.5,0.5,0.9,0.9,1.6c3.5-4.4,7.2-3.3,10.6,0.1c3.2,3.2,6.3,7.2,9.3,11.2
			c3.3,4.4,6.9,4.5,9.8-0.8c0.5-0.9,1-2.6,0.9-3.7c-0.1-1.2-0.8-2.5-1.4-3c-2.4-2.1-4.3,0.1-4.6,5c-1.6,0.6-2.5-0.4-2.7-3.6
			c-0.2-2.4-0.6-2.7-1.7-2.3c-1.7,0.7-3.3,0-4.7-2.2c-0.4-0.6-0.6-1.7-1-2.8c3.9,0,7.5-0.4,11.1,0.1c4.4,0.7,8.7,2.3,13.1,3.3
			c0.7,0.2,1.5-0.6,2.5-1c-0.5-1.8-0.9-2.8-1.3-4.3c2.1-0.2,3.1,2.5,3.9,5.6c3.5-1.2,7-2.8,10.5-3.6c1.6-0.4,3.3-0.8,4.9-0.5
			c-0.8-1.6-1.3-2.6-1.3-2.6h-61.3C196.5,297.7,197.3,298.9,198.3,300.9z"/>
		<path id="XMLID_293_" class="st0" d="M270.7,334.7c-2.1-2.5-4.5-3.3-6.9-2.1c-1.5,0.7-2.7,2.4-3.2,5.6c-0.2,1.3-0.3,2.9-1.3,2.4
			c-0.9-0.5-2-0.8-2.2-3.3c-0.1-1.1,0-2.2,0-3.4c-2.5,1.8-4.9,3.7-7.3,5.2c-2.9,1.9-5.9,2.8-8.9,2.1c-1.8-0.4-3.5-1.3-4.6-5.5
			c5.6,3.5,10.5-0.7,15.4-3.8c5.1-3.1,10.1-7.1,15.2-10.7c0.4-0.3,0.9-0.6,1.3-0.9c-0.5-0.9-0.9-1.9-1.4-2.8
			c-8.1,4.5-16.4,7.7-24.7,10.2c-2.4,0.7-4.9,1.7-7.3,3.1c-2.7,1.7-3.1,3.4-2.6,9.2c-1.5-0.1-2.7-1.3-3.3-4.1
			c-0.4-2.2-1-2.2-1.9-1.8c-3.8,1.8-7.6,3.8-11.5,5.3c-0.2,0.1-0.4,0.1-0.6,0.2c1.7,0.6,3.6,0.9,5,0.9c2.9,0,9.2,5.2,9.2,5.2
			c4.6,0,10.9,1.7,22.9,1.7c12,0,27.5-3.4,27.5-3.4c0.1,0.1-0.5-1.2-1.6-3.5C275.4,339.6,273.1,337.5,270.7,334.7z"/>
		<path id="XMLID_292_" class="st0" d="M174.2,339.1c-3.9-1.6-7.9-3.5-11.9-5.3c-0.8,3.3-1.7,6.3-3.7,6.2c-0.1-2.1,0.1-4.5-0.4-5.7
			c-0.7-1.8-1.9-3.4-3-3.8c-3.9-1.7-7.8-3.2-11.7-4.3c-6.3-1.8-12.4-4.7-18.5-8.1l-1.6,3.4c1.7,1.1,3.4,2.3,5.2,3.4
			c6.2,3.9,12.4,7.9,18.7,11.5c2.2,1.3,4.6,1.3,7.1-0.9c-1,4.5-2.7,5.4-4.5,5.8c-5.2,1-10.1-2.2-14.8-6.3c-0.4-0.3-0.7-0.6-1.1-0.9
			c-0.1-0.1-0.2,0-0.3,0.1c-0.3,4.9-0.6,6.3-2,6.5c-0.3,0-0.7,0-1.2-0.1c-1.1-6.6-3.3-9.5-6.6-8.1c-1.7,0.7-3.4,2-5,3.7
			c-1.4,1.5-2.9,2.9-4.3,3.8l-2,4.2c0,0,15.5,3.4,27.5,3.4s18.3-1.7,22.9-1.7c0,0,6.3-5.2,9.2-5.2c1.1,0,2.7-0.3,4.3-0.7
			C175.6,339.6,174.9,339.4,174.2,339.1z"/>
		<path id="XMLID_291_" class="st0" d="M147,304.1c0.2,0.1,0.4,0.1,0.6,0.2c0.8-3.3,1.7-6,3.7-5.9c0,0.3,0.1,0.5,0.1,0.6
			c-0.2,1.2-0.4,2.5-0.7,3.7c0.6,0.4,1.3,1.2,1.9,1.1c3.5-0.8,7-1.9,10.5-2.8c4.5-1.1,9.1-1.9,13.6-0.8c-0.6,3.8-2.7,6.1-5,5.3
			c-1.4-0.5-2-0.1-2.2,3.1c-0.2,2.7-1.4,3.4-2.7,3.1c0.3-3-0.4-4.8-1.7-5.5c-1.4-0.8-2.8-0.7-3.9,1.6c-0.8,1.6-0.6,3.6,0.4,5.2
			c3,5.2,6.6,5.5,9.9,1.1c2.3-3.1,4.6-6.4,7.1-9.1c3-3.4,6.2-5.9,9.7-4.8c0.8,0.3,1.6,0.7,2.3,1.5c0.8,0.8,1.2,0.7,1.8-0.7
			c0.9-2.1,1.7-3.3,2.5-3.6h-60l-1.3,2.7C138.2,300,142.6,302.1,147,304.1z"/>
	</g>
	<polygon id="XMLID_289_" class="st0" points="202.8,184.6 202.8,244.7 196,254.1 189.2,244.7 189.2,184.6 141,284.8 173.3,284.8 
		190.7,272.1 196,272.1 201.4,272.1 218.7,284.8 251,284.8 	"/>
	<path id="XMLID_288_" class="st0" d="M299.1,355.2c0,0-36.7,3.9-103.1,3.9v0c-66.4,0-103.1-3.9-103.1-3.9l-12.1,24.1
		c2.3,1.9,5.8,2.4,5.8,2.4l75.9-2.4c0,0,25.8,0.8,27.5-9.5h6.1v0h6.1c1.7,10.4,27.5,9.5,27.5,9.5l75.9,2.4c0,0,3.5-0.5,5.8-2.4
		L299.1,355.2z"/>
	<path id="XMLID_287_" class="st7" d="M309.8,380.4"/>
	<line id="XMLID_286_" class="st7" x1="196.7" y1="404.3" x2="196.7" y2="404.1"/>
	<path id="XMLID_285_" class="st8" d="M162.4,379.2l-75.9,2.4c11,2.1,33.9,3,33.9,3s25.3-1.1,45.4-5.4
		C163.8,379.3,162.4,379.2,162.4,379.2z"/>
	<path id="XMLID_284_" class="st8" d="M229.6,379.2c0,0-1.3,0-3.4,0c20.1,4.2,45.4,5.4,45.4,5.4s22.9-0.9,33.9-3L229.6,379.2z"/>
	<path id="XMLID_283_" class="st9" d="M320.8,510.3"/>
	<polyline id="XMLID_282_" class="st4" points="320.8,510.3 320.8,510.3 320.8,510.3 	"/>
	<path id="XMLID_281_" class="st10" d="M196.1,402.8"/>
	<path id="XMLID_280_" class="st11" d="M196,405.1c43.6,0,151.7-6,151.7-6L334,371.5c0,0-17.7,14.1-61.2,14.1
		c0,0-69.5-1.9-69.5-17.2h-7.3h-7.3c0,15.3-69.5,17.2-69.5,17.2c-43.6,0-60.1-14.1-60.1-14.1l-14.9,27.6
		C44.4,399.1,152.4,405.1,196,405.1"/>
	<g id="XMLID_272_">
		<path id="XMLID_273_" class="st12" d="M88.2,407.5c0.9,0,1.8,0.5,2.7,1.5c2.1-0.8,3.8-1.1,5.3-1.1c5.7,0,11.1,3.2,16.2,9.7
			c6.8,7.2,10.8,11,11.9,11.3c3.6,2.7,7,4.1,10.3,4.1c5.6,0,9.6-2.8,12-8.3c0.3-1.2,0.5-2,0.5-2.6v-1.6c0-4.2-1.2-7.2-3.7-9
			c-2.6-1.2-4.9-1.8-6.9-1.8c-3.4,0-5.9,2-7.5,6.1c-0.2,0.8-0.3,1.4-0.3,2c0,2.8,1.8,4.5,5.3,5.1c2.4-0.4,3.5-1.6,3.5-3.6
			c0-1.1-0.8-1.7-2.4-2c-1.3,0.1-1.9,0.7-1.9,1.6c0,0.1,0.2,0.5,0.6,1.1l-0.3,0.2c-1.1-0.8-1.6-1.6-1.6-2.5c0.3-1.4,1.1-2.2,2.4-2.5
			h1.4c0.9,0,1.6,0.2,2.1,0.5l-0.2-1.6v-1c0-0.2,0.1-0.3,0.3-0.3h0.5c1.4,0.9,2.1,2.6,2.1,5.1c-0.1,0-0.2,0.1-0.2,0.2h1.6
			c1,0,1.8,1.2,2.2,3.6h-0.2c-0.6-0.8-1.4-1.3-2.2-1.5c-0.7,0-1.5,0.6-2.4,1.8v0.3h0.6c1.3,0,2.1,0.9,2.4,2.6v0.3
			c0,1.5-1.1,2.8-3.2,3.9v-0.2c0.9-0.9,1.3-1.6,1.3-2.1V426c0-1.4-1-2.2-2.9-2.5l-1.1,0.2c0.4,1.8,0.6,3,0.6,3.4v0.2
			c0,1.3-0.9,2.2-2.7,2.8h-1.3v-0.3c1.2,0,1.8-0.7,1.8-2c0-2.3-1.8-3.9-5.3-4.7l-1.3-1c-0.3,0.2-0.7,0.3-1,0.3l-0.3-0.2
			c0.2-0.4,0.3-0.8,0.3-1c-0.6-2.1-1-3.3-1-3.6c0.2-1.4,0.3-2.4,0.3-2.8c-3.5,1.2-5.3,2.8-5.3,4.9c0.1,1,0.6,1.5,1.4,1.5h0.2
			c0.9,0,1.3-0.4,1.3-1.3c0-0.2-0.1-0.3-0.3-0.3h-0.8l-0.3,0.2l-0.2-0.3l1.9-2.3h0.2v0.3c0,0.3,0.3,1.6,0.8,3.9c0,0.2-0.2,0.6-0.5,1
			v0.2c3.7,0.7,5.6,1.5,5.6,2.3c0.5,0,1,0.9,1.6,2.6c-0.4,1.2-1,1.8-1.9,1.8c-0.6,0-1.1-0.3-1.6-0.8v-0.2h1c0.1,0,0.3-0.2,0.6-0.7
			c-0.2-1.2-0.7-1.8-1.4-1.8c-0.3,0.8-0.8,1.1-1.4,1.1h-0.2c-0.4,0-1-0.2-1.9-0.7V426h1.1c0.1,0,0.2-0.2,0.5-0.5
			c0-0.6-1.7-1.3-5-2.1c-1.7-1.2-2.6-2.5-2.6-3.8v-0.3c0-0.7,0.2-1.6,0.6-2.8h-0.6c-1.5,0-2.2,0.7-2.2,2h-0.2
			c-0.3,0-0.5-0.4-0.6-1.3v-0.3l0.2-0.8c-0.7,0-2.6-1.6-5.6-4.7c-2.2-1.7-4-2.8-5.5-3.3v-0.3h0.3c1.1,0,2.5,0.3,4,0.8
			c0-0.4,0.6-0.7,1.9-1v0.2l-0.6,0.8c0,0.5,0.6,1.1,1.8,2c0.5-1.7,1.8-2.6,3.8-2.6c0.5,0,2.4,0.7,5.8,2h0.3c0.6,0,1-0.2,1.1-0.7
			c0-0.5-0.3-0.9-0.8-1.3v-0.2h0.8c0.7,0,1.3,0.5,1.9,1.5c1.5-0.9,3-1.3,4.7-1.3v0.2c-3.4,2.3-5.3,3.4-5.6,3.4l-1.1,0.2
			c-0.8,0-1.9-0.1-3.2-0.3c-0.5,1-1.1,1.5-1.8,1.5h-1.4c-0.6-0.4-1-0.9-1-1.3h0.2c0.4,0.3,0.8,0.5,1.1,0.5c0-0.1,0.2-0.3,0.6-0.8
			v-0.7c0-0.4-0.6-0.7-1.8-1c-1,0-1.6,0.7-1.8,2.1v0.2c0,1.3,1.6,2.3,4.8,2.9h1c3.3-0.5,6.6-2.2,9.8-5.1c1.9-1.2,4.1-1.8,6.4-1.8
			c4.1,0,7.6,1.2,10.4,3.6c2.2,1.3,4,2,5.5,2c2.1,0,3.4-0.7,3.9-2.1v-0.7c-0.2-0.5-0.8-0.8-1.8-0.8c-0.4,0.1-0.7,0.4-1,0.8v0.3
			c0,0.2,0.2,0.3,0.5,0.3v0.5h-0.6c-0.4,0-0.9-0.3-1.4-0.8h-1.4c-0.6,0-2.8-1-6.4-2.9v-0.3h0.2c0.8,0,2.1,0.4,3.8,1.3
			c0-0.8,0.6-1.2,1.8-1.3l0.3,0.2c-0.2,0.4-0.3,0.7-0.3,1c0.4,0.3,0.7,0.5,1,0.5c2.9-0.9,4.4-1.3,4.7-1.3c1.5,0,2.4,0.7,2.7,2v0.3
			h0.2c1.1-0.2,1.6-0.7,1.6-1.5l-0.5-0.8l0.6-0.3c0.8,0.2,1.4,0.5,1.8,1.1c1.7-0.5,3.3-0.8,4.8-0.8h1.1c1.7,0,4.3,0.6,7.5,1.8v-0.2
			c0-1.1,0.9-1.7,2.6-2h0.6v0.2c-0.6,0.7-1,1.3-1,1.6c0,0.8,0.6,2.1,1.8,3.9h0.2c0-2.3,0.9-3.9,2.6-4.7c0.4-0.5,1-0.8,1.6-0.8v0.2
			c-1.3,2-1.9,3.5-1.9,4.3c0,1.6,0.5,4.9,1.4,9.7v1.3c0,2.3-0.6,4.6-1.9,7h0.2c1.5,0.4,2.2,1.2,2.2,2.3c0,0.8-0.3,1.4-0.8,1.8H183
			l0.2-0.8c0-0.7-0.5-1.2-1.6-1.5l-7.5,2.5c-0.3,0-0.7,0.1-1.3,0.2c-2.8,0-6.8-1.5-11.9-4.4c-2.2-0.5-3.7-0.8-4.5-0.8h-1.8
			c-2,0.3-3,1.1-3,2.3v0.2c0.1,0.9,0.5,1.3,1.1,1.3c0.7,0,1.1-0.4,1.1-1.1c0-0.2-0.3-0.3-0.8-0.3v-0.2c0-0.3,0.5-0.5,1.4-0.7
			c0.2,0,0.7,0.3,1.4,1c0.4-0.2,1.2-0.4,2.4-0.5c1.8,0,4.3,1,7.5,2.9l0.6,0.2v0.3c-3-0.3-5-0.7-5.9-1.1v0.2c-0.2,0.7-0.8,1-1.8,1
			h-0.2v-0.2l0.3-0.5v-0.5c0-0.2-0.2-0.3-0.5-0.5H158c-0.4,0-1.6,0.4-3.7,1.3c-0.4,0.1-0.9,0.2-1.4,0.2h-0.6
			c-1.6-0.3-2.4-0.8-2.4-1.5h-0.2c-1.3,1-2.7,1.5-4.3,1.5H145v-0.2c1.5-1.1,3.4-2.9,5.8-5.4c1.1-0.8,1.8-1.1,2.1-1.1
			c-0.4-0.6-0.6-1.1-0.6-1.5c0.3-0.9,0.5-1.3,0.6-1.3c0.8,1.5,2.1,2.3,3.7,2.3c-1.2-1.6-1.8-3.1-1.8-4.6c0-1.8,2.3-3.7,6.9-5.6
			l0.6-1.1c-0.2-0.5-0.5-0.8-1-0.8V415h1.4c0.9,0,1.3,0.5,1.3,1.6c1.6-0.2,2.4-0.8,2.4-1.6c0-0.5-0.2-0.8-0.6-0.8v-0.3h0.6
			c1.2,0.2,1.8,0.8,1.8,1.6v0.5c0,1.4-2.5,2.6-7.5,3.6v0.2c1,0.5,1.4,1.1,1.4,1.8c-0.7,2.1-1.1,3.4-1.1,3.9c0.1,0.2,0.2,0.4,0.2,0.5
			c-0.8,0-1.3-0.5-1.4-1.6v-0.2c0-0.5,0.1-1.1,0.2-1.8c-0.2-0.5-0.6-0.8-1.3-0.8h-0.3c-0.7,0.4-1.1,1.1-1.1,2.1c0,2,1.9,3.8,5.6,5.2
			l-0.2-0.8V427c0-1.3,0.5-3.1,1.6-5.6c-0.1-0.5-0.2-0.8-0.2-1.1c0.5,0,1.1,0.3,1.6,0.8c2.3-0.8,3.9-2.2,4.8-4.3l0.2-0.8v-1.1
			l-0.2-0.3l0.3-0.2c1,1.2,1.4,2.2,1.4,3.1c0,1-0.6,2-1.8,3.3v0.2h2.6c1.2,0,2-0.9,2.2-2.8c0-0.5-0.2-1.1-0.6-2h0.2
			c1.3,1.3,1.9,2.3,1.9,3.3v0.8c0,0.5-0.3,1.1-1,2v0.2c0.9,1,1.3,2,1.3,2.8v1.3c-0.2,1.2-0.4,1.8-0.8,1.8c-0.5-0.6-0.9-1.4-1.3-2.5
			h-0.3c-0.5,2.1-1.7,3.1-3.4,3.1h-0.6c-1.7-0.2-2.6-0.9-2.6-2.1c0-0.9,0.4-1.5,1.1-2h0.2c-0.1,0.5-0.2,0.8-0.3,0.8
			c0,0.8,0.6,1.2,1.8,1.3c0.7,0,1.3-0.4,1.8-1.3c-0.2-2.2-1.1-3.3-2.9-3.3h-1.6c-1.4,0-2.4,0.9-2.9,2.6c-0.2,0.5-0.3,1.3-0.3,2.3
			c0,3.1,2.1,4.9,6.4,5.4h1.4c3.7,0,6.4-2.1,8.3-6.2c0.4-1.3,0.6-2.3,0.6-3.1v-1.3c-1.1-4.5-2.9-7.6-5.3-9.5
			c-3.6-1.9-6.7-2.8-9.1-2.8c-6.8,0-13.3,5.8-19.4,17.4c-3.5,5-7.8,7.5-12.7,7.5c-5.5,0-10.6-2.5-15.4-7.5
			c-3.3-2.9-7.5-7.2-12.4-12.8c-3.9-2.9-7.2-4.4-10.1-4.4h-0.2c-6.1,0-10,2.7-11.9,8.2c-0.3,2-0.5,3.3-0.5,3.8
			c0,5.1,2.6,8.6,7.7,10.6l1.6,0.2h2.2c2.5,0,4.4-1.5,5.8-4.4c0.2-0.4,0.3-0.8,0.3-1.3c0-2.5-1.7-3.9-5.1-4.3
			c-1.9,0.3-2.9,1.1-2.9,2.3c0,1.3,0.8,2.1,2.4,2.3c1.1,0,1.7-0.7,1.9-2.1c-0.1,0-0.2-0.1-0.2-0.2h0.2c0.3,0,0.5,0.6,0.6,1.8v0.2
			c-0.3,1.4-1.2,2.1-2.7,2.1h-0.5c-0.6,0-1.4-0.3-2.4-1v0.2l0.2,1.1l-0.3,0.2c-0.7,0-1.4-0.8-1.9-2.5v-1.3h-1
			c-1.8,0-2.9-1.3-3.2-3.8v-0.3h0.3c0.3,1.6,1.1,2.5,2.4,2.5h0.2c0.3,0,1.1-0.4,2.4-1.1v-0.3h-0.8c-2.4-0.4-3.5-1.6-3.5-3.6
			c0-1.2,0.7-2.4,2.1-3.8v0.2c-0.3,1-0.5,1.8-0.5,2.5v0.5c0,1.5,1.1,2.3,3.2,2.3H94l0.8-0.2c-1.1-1.3-1.6-2.3-1.6-3.3v-1.1
			c0-1.7,1.4-2.8,4.2-3.4v0.2c-1.5,1.1-2.2,2.1-2.2,2.9c0,2,1.8,3.8,5.3,5.4l1.8,1.3c0.5-0.4,1-0.7,1.8-0.7c0.2,0.1,0.4,0.2,0.5,0.2
			l-0.8,1v0.5l1.1,3.6c0,0.5-0.2,1.2-0.6,2h0.2c3.5-1.7,5.3-3.4,5.3-4.9c0-0.8-0.6-1.2-1.8-1.3c-0.3,0-0.6,0.4-0.8,1.1
			c0.2,0.4,0.3,0.7,0.3,1c0,0.5-0.3,1-1,1.5c0-0.3-0.3-1.1-1-2.5v-0.5c0-0.4,0.3-1.1,1-2v-0.2c-5.8-1.6-8.7-3.7-8.7-6.1
			c0.4-1.2,1.1-1.8,2.2-1.8h1v0.3c-1.1,0-1.6,0.5-1.6,1.5c0.6,1.4,1.3,2.1,2.2,2.1v-0.2c0-1.1,0.5-1.6,1.6-1.6h0.5
			c0.3,0,0.9,0.3,1.9,0.8v0.3h-1.3c-0.2,0-0.3,0.2-0.5,0.7c0,0.7,2.2,2,6.6,3.9c0.7,1,1.1,1.9,1.1,2.6v0.8c0,0.5-0.4,1.2-1.1,2.3
			h0.5c2,0,3-0.6,3-1.8h0.2c0.4,0.2,0.6,0.5,0.6,1.1l-0.2,0.8c1.2,0.1,3.3,1.9,6.4,5.2c1.4,1.1,2.3,1.6,2.9,1.6v0.3h-1
			c-1.5,0-3.2-0.7-5-2.1c0,0.9-0.7,1.6-2.2,2h-1.3c-2.2-0.8-3.5-1.1-3.7-1.1h-1.3c-0.2,0-0.3,0.2-0.5,0.5l0.5,0.8v0.2h-0.8
			c-0.6,0-1.1-0.4-1.4-1.1c-2,0.8-3.9,1.1-5.9,1.1v-0.3c4.1-2.1,6.9-3.1,8.3-3.1h0.3c0.5,0,1.2,0.1,1.9,0.3c0-0.7,0.5-1.1,1.4-1.3
			c0.7,0.1,1.1,0.4,1.1,0.7c-0.6,0-1,0.3-1,1c0.3,0.5,0.7,0.8,1.3,0.8c0.7-0.3,1.1-0.6,1.3-1v-0.7c-0.3-1.4-1.2-2.1-2.7-2.1h-1.8
			c-2.4,0-6.7,1.7-13,5.2c-0.9,0.2-1.8,0.3-2.7,0.3H95c-1.1,0-4.6-0.8-10.4-2.5c-1.1,0-1.6,0.5-1.6,1.6h-0.3v-1.1c0-1.3,1-2,3-2.3
			c-0.5-1-1.1-1.5-1.6-1.5c-0.8,0.2-1.2,0.3-1.3,0.3v-0.5c0.4-0.7,0.9-1,1.6-1c-1-1.7-1.4-3.5-1.4-5.4c0-2.3,0.6-5.3,1.8-9v-1.6
			c-0.2-2.2-0.7-3.3-1.4-3.4v-0.3c1.8,0,3,1.3,3.5,3.8c1.3-0.7,1.9-1.4,1.9-2.1v-0.2c0-0.4-0.3-1-1-1.6
			C88,407.6,88.1,407.5,88.2,407.5z M95.5,436.6c2,0,4.6,1,7.7,2.9c3.5,2,6.5,2.9,9.1,2.9h0.5c2.1,0,3.2-0.9,3.2-2.6
			c-0.3-0.8-0.9-1.1-1.6-1.1c-0.6,0-1,0.4-1,1.1v0.2c0,0.2,0.3,0.4,1,0.5c0,0.2-0.4,0.5-1.3,0.7c-0.9-0.2-1.3-0.7-1.3-1.3l-2.1,0.3
			c-1.8,0-4.6-1.1-8.5-3.4v-0.2h0.2c1.9,0,3.9,0.4,5.9,1.3c0-0.8,0.6-1.2,1.8-1.3h0.2c0.2,0,0.3,0.1,0.3,0.3c-0.2,0-0.4,0.2-0.6,0.7
			v0.2c0.1,0.3,0.4,0.5,1,0.5c1,0,2.3-0.3,3.7-1c0.4-0.1,0.9-0.2,1.4-0.2h0.3c1.3,0,2.1,0.7,2.6,2c1.9-1.4,3.6-2.1,5.1-2.1h1v0.3
			c-1.3,0.1-3.2,1.6-5.8,4.4c-1.6,1.4-2.8,2.2-3.8,2.5c0.2,0.4,0.3,0.7,0.3,1c-0.2,0.7-0.5,1-0.6,1h-0.3c0-1.3-1.2-2-3.5-2
			c0.9,1.1,1.3,2.2,1.3,3.1c-0.6,2.1-1.3,3.1-2.2,3.1c-3.7,1.7-5.6,2.9-5.6,3.4v0.3l0.5,0.3h1.3v0.2c0,0.4-0.7,0.7-2.2,1.1
			c-1.2-0.2-1.8-0.8-1.8-1.8h-0.2c-1.4,0.4-2.1,1.1-2.1,2.1c0,0.9,0.5,1.3,1.6,1.3v0.3h-1c-1.5-0.1-2.2-0.9-2.2-2.3
			c0-1.9,2.9-3.7,8.7-5.6c-0.5-0.8-0.8-1.4-0.8-1.8v-0.8c0.5-1.1,0.8-1.9,0.8-2.3h0.2c0.5,0.3,0.8,0.7,0.8,1.1l-0.2,2l0.5,0.3h0.6
			c0.6,0,1.1-0.4,1.4-1.1c0-1.3-1.3-2.7-3.8-4.3l-1.6-0.8v0.2c0.4,0.8,0.6,1.5,0.6,2l-1.3,3.4c0.1,0.9,0.4,1.3,0.8,1.3v0.3h-1
			c-0.4,0-0.8-0.2-1.3-0.7c-0.4,0.4-2.4,1.7-5.9,3.8c-0.7,1.2-1.1,2.2-1.1,2.9c0,0.9,0.7,1.9,2.2,2.9v0.2c-2.9-0.7-4.3-2-4.3-3.9
			c0.5-2.5,1.2-3.8,1.9-3.8v-0.2l-0.8-0.2h-1c-2,0.2-3,0.9-3,2.1v1.1c0,0.2,0.2,1,0.5,2.1c-1.4-1.4-2.1-2.7-2.1-3.8
			c0-2.2,1.4-3.4,4.2-3.8h0.3v-0.2c-1.3-0.9-2.3-1.3-3-1.3c-1.4,0.7-2.1,1.6-2.1,2.8h-0.3v-0.2c0.3-2.7,1.3-4.1,3-4.1h1.3V444
			c0-0.7,0.5-1.5,1.6-2.3h0.2c0.2,0,0.3,0.5,0.3,1.5c0.8-0.7,1.6-1,2.2-1h0.2c2,0,3,0.7,3,2v0.2c0,0.5-0.1,1.2-0.3,2h-0.3v-0.7
			c0-1-0.7-1.5-2.1-1.6c-1.2,0-2,0.8-2.2,2.5c0.6,1.4,1.6,2.1,3.2,2.1c3.3-0.4,5-1.9,5-4.6c-0.5-1.8-1.3-3.1-2.4-3.9
			c-1.5-1.1-3.2-1.6-5-1.6c-5.1,0-8.5,2.9-10.3,8.7v3.1c0,4.8,2.4,8.2,7.2,10.3c1.2,0.5,2.9,0.8,5.1,0.8c4.9,0,10.3-3.7,16.2-11.1
			c8.6-8.6,14.8-12.9,18.4-12.9c0.6-0.2,1.8-0.3,3.5-0.3c6.1,0,11.4,4.5,15.7,13.4c5.2,7.7,10.2,11.6,14.9,11.6h2.4
			c2.5-0.2,5.3-1.1,8.3-2.9c2.3-2.2,4-5.3,5-9.3v-0.2c0-4.3-1.8-7.4-5.5-9.3c-1.3-0.7-2.7-1-4.2-1c-4.9,0-7.4,2-7.4,5.9
			c0.3,2.9,1.5,4.4,3.4,4.4h1.1c2.1,0,3.2-0.9,3.2-2.8v-0.2c0-1.1-0.6-1.6-1.9-1.6c-1,0-1.4,0.4-1.4,1.3l0.2,0.8
			c-0.3,0-0.7-0.4-1.1-1.1v-1c0-1.3,1-2,3-2c1.6,0,2.8,1,3.5,3.1v0.2h0.2c0.3-1.1,0.8-1.9,1.6-2.6c0.4,0.8,0.6,1.7,0.6,2.6v0.2
			c0,1-0.5,2-1.4,3.3v0.3c0.4,0,0.7,0.5,1,1.6v0.7c0,1.1-0.6,2.3-1.9,3.4h-0.2c0.4-0.8,0.6-1.5,0.6-2.1c0-1.7-1-2.6-3-2.6h-1.4
			c-0.2,0-0.3,0.1-0.3,0.3c1.2,0.9,1.8,2,1.8,3.4c-0.2,1-0.7,1.9-1.6,2.8c0-0.1-0.1-0.2-0.2-0.2l0.2-0.8v-0.3c0-2.2-1.7-4-5-5.4
			c-0.5,0.5-1.1,0.8-1.8,0.8v-0.2c0.2-0.4,0.3-0.7,0.3-1v-0.2c-1.1-2.5-1.6-4.4-1.6-5.9c0.1-0.6,0.2-1.1,0.2-1.5
			c-3.6,1.4-5.5,3-5.5,4.7v1c0,0.7,0.4,1.2,1.3,1.6c0.9-0.3,1.3-0.6,1.3-0.8c-0.1-1.1-0.2-1.8-0.2-2c0-0.8,0.4-1.4,1.3-1.8
			c0,0.3,0.4,1.9,1.1,4.9c0,0.4-0.4,0.8-1.3,1.3v0.3c4.9,0.9,7.4,2.2,7.4,3.9v0.2c0,1-0.7,1.5-2.1,1.6h-0.3v-0.2
			c0-0.1,0.2-0.3,0.6-0.8V457c0-0.7-0.7-1.3-2.2-1.8c-0.3,1.2-0.8,1.8-1.6,1.8h-0.6l-0.8-0.2v-0.3c0.6,0,1-0.2,1-0.5v-0.2
			c0-1.1-1.2-1.9-3.7-2.6c-2.4-1.6-3.5-2.9-3.5-3.8v-1.3c0-0.9,0.5-2.1,1.6-3.6v-0.2c-1.6,0-2.8,0.8-3.4,2.3h-0.5
			c0-0.1-0.1-0.5-0.3-1.3v-0.2c0-0.4,0.2-0.8,0.6-1.3c-0.8,0-3-1.9-6.4-5.6c-0.2,0-0.8-0.4-1.6-1.1l0.3-0.2c1.5,0,3,0.5,4.5,1.6h0.2
			c0-0.8,1-1.3,2.9-1.5c1.1,0,2.8,0.5,4.8,1.5h1c0.2,0,0.3-0.2,0.5-0.5v-0.5l-0.3-0.5V437c1.3,0.2,1.9,0.6,1.9,1.1h0.2
			c1.2-0.4,3-0.8,5.6-1v0.3c-2.9,1.5-4.9,2.4-5.9,2.8c-0.9,0.1-1.6,0.2-2.1,0.2c-0.8,0-1.7-0.2-2.6-0.5c-0.4,0.7-0.9,1-1.6,1
			c-0.7-0.2-1.1-0.4-1.1-0.7v-0.2c0.5,0,0.8-0.1,0.8-0.3c0-0.8-0.4-1.1-1.3-1.1c-0.6,0.2-1,0.7-1,1.3v0.3c0,1.2,1.2,2,3.7,2.3
			c3.2,0,7.2-1.4,12-4.1c2-0.8,3.8-1.1,5.3-1.1c1.2,0,4,0.9,8.3,2.6h0.8c1,0,1.4-0.7,1.4-2.1c0.5,0.4,0.8,1,0.8,1.8
			c0,1.2-0.9,2-2.6,2.3c1.3,1.9,1.9,4.2,1.9,6.9v1c0,0.7-0.4,3.1-1.3,7.4c-0.1,1-0.2,1.8-0.2,2.5v0.3c0,0.7,0.6,2.2,1.8,4.4h-0.2
			c-2.6-1.3-3.8-2.9-3.8-4.7v-0.8c-1,0.8-1.6,2-1.9,3.4v0.5c0,0.4,0.3,1,1,1.6v0.2h-0.5c-1.9-0.3-2.9-1-2.9-2.3
			c-2.9,1.2-5.5,1.8-8,1.8c-1.5,0-3.3-0.3-5.6-0.8v0.2c0,0.3-0.5,0.6-1.4,0.8h-0.5c-0.2,0-0.3-0.1-0.3-0.3c0.2,0,0.3-0.2,0.5-0.5
			v-0.8c-0.2-0.5-0.7-0.8-1.6-0.8c0,1.1-0.9,1.8-2.7,2.1c-0.4,0-2-0.4-5-1.3c-0.2,0-0.4,0.2-0.8,0.7c0.2,0.4,0.3,0.6,0.3,0.8
			l-0.3,0.2h-0.2c-0.7,0-1.2-0.4-1.6-1.3c-0.9,0.5-2.2,1-3.8,1.3V464c3.3-2.1,5.3-3.1,6.3-3.1h1.6c0.6-0.5,1-0.8,1.4-0.8h0.3
			c0.2,0,0.3,0.1,0.3,0.3c-0.2,0-0.3,0.2-0.5,0.5v0.5c0.2,0.4,0.6,0.7,1.1,0.7h0.3c0.9,0,1.3-0.4,1.3-1.3c0-1.2-1.2-1.9-3.5-2.3
			h-0.6c-1.6,0-4.7,1.5-9.3,4.4c-1.4,0.7-3.5,1-6.3,1c-3.4,0-6.2-1.1-8.3-3.4c-2.9-2.2-5.7-3.4-8.5-3.6h-0.3c-3.3,0.7-5,1.7-5,2.9
			c0.1,1.5,0.8,2.3,2.1,2.3c1.1-0.2,1.6-0.7,1.6-1.5c-0.2-0.5-0.4-0.8-0.6-0.8h-0.6l-0.5,0.3h-0.2v-0.2c0.2-0.5,0.5-0.9,1-1.1h1.3
			c0.9,0,1.4,0.5,1.8,1.5l1.6-0.2h2.6c0.5,0,1.9,0.8,4,2.5c1.1,0.7,1.7,1,1.9,1v0.3h-0.2c-1.1,0-2.7-0.4-4.8-1.3
			c0,0.4-0.4,0.9-1.1,1.3H123v-0.2c0.5-0.4,0.8-0.9,0.8-1.3c-0.5-0.4-0.9-0.7-1.3-0.7c-0.2,0-2.1,0.7-5.5,2h-1.3c-2-0.5-3-1.4-3-2.6
			h-0.2c-1.1,0.6-1.6,1.3-1.6,2.1c0,0.2,0.2,0.3,0.5,0.3v0.3h-0.2c-0.7,0-1.3-0.3-1.8-0.8c-1.4,0.4-2.9,0.7-4.5,0.8v-0.3
			c2.2-0.4,5.5-2.9,10.1-7.5l1.3-0.5l-0.2-0.8c0.1-1.1,0.3-1.6,0.6-1.6h0.2c0,1.3,0.7,2,2.2,2h0.6c-0.4-1.2-0.6-2.1-0.6-2.8V452
			c0-2.3,1.7-3.8,5.1-4.6c0.9,0,1.7-0.4,2.4-1.1V446c0-0.2-0.1-0.3-0.3-0.3h-1.1v-0.2c0-0.3,0.5-0.6,1.4-0.8h0.6
			c0.7,0,1.1,0.4,1.4,1.3c0.9-0.4,1.3-1.1,1.3-2.1c0-0.3-0.4-0.5-1.3-0.7c0,0.1-0.1,0.2-0.2,0.2v-0.2c0-0.4,0.6-0.7,1.9-0.8
			c1,0.4,1.4,1,1.4,1.8v0.2c-1,2.5-2.3,3.8-3.7,3.8c0,0.2-1.2,0.5-3.5,1v0.2c0.3,0.1,0.5,0.4,0.5,1v0.2c-0.5,2.1-0.8,3.4-0.8,3.9
			h-0.2c-1.3-1.3-1.9-2.1-1.9-2.5c0.1,0,0.2-0.1,0.2-0.2c0.4,0.2,0.8,0.3,1.3,0.3l0.2-0.3v-0.2c0-0.9-0.5-1.3-1.6-1.3
			c-0.9,0.3-1.3,0.8-1.3,1.6v0.2c0,1.9,1.8,3.4,5.5,4.7v-0.2c-0.3-0.9-0.5-1.8-0.5-2.8c0-0.4,0.3-1.4,1-3.3v-0.2l-0.2-1.1h0.3
			c0.3,0,0.6,0.1,1,0.3c0-0.4,1.7-1.2,5.1-2.6c0.9-0.8,1.3-1.7,1.3-2.6v-1c0-1-0.5-1.5-1.6-1.5v-0.3h0.5c1.7,0,2.8,0.7,3.4,2.1
			c0,0.4,0.1,0.6,0.2,0.8c0,0.3-0.3,1.4-0.8,3.4l1.4,0.2c1.8-0.3,2.7-1.2,2.7-2.6v-0.2c0-0.5-0.4-1.4-1.3-2.5h0.2
			c2.1,1.4,3.2,2.6,3.2,3.6c0,1.8-1.1,2.9-3.4,3.3v0.2c0.8,1.2,1.6,1.8,2.4,1.8c0.7,0,1.4-0.4,2.2-1.3v0.3c-0.4,2.2-1.1,3.3-2.2,3.3
			h-1.3v0.2c0,2.3-0.7,3.9-2.1,4.9h-0.5c-0.2,0-0.3-0.1-0.3-0.3v-1.3l0.2-1.1h-0.2c-1.1,0.3-2,0.5-2.7,0.5c-2-0.3-3-1.4-3-3.1
			c0-0.6,0.6-1.2,1.8-1.8v0.2l-0.3,0.5v1.1c0.3,0.7,0.9,1,1.8,1h0.3c1.4-0.3,2.1-0.9,2.1-2v-0.5c0-1.3-0.9-2.3-2.6-2.9H133
			c-2.9,0.7-4.3,2-4.3,3.9c-0.1,0-0.2,0.3-0.2,0.8c0,3.8,2.1,6.5,6.3,8c0.6,0,1.2,0.1,1.8,0.2c3.3,0,6.1-1.1,8.5-3.3
			c1.4-2.9,2.1-5.7,2.1-8.4c0-4.8-2.7-8.4-8-11c-1.9-0.5-3.4-0.8-4.7-0.8c-5.9,0-13.5,5.3-22.6,15.9c-5.1,5.9-10.4,8.8-16,8.8
			c-1.4,0-3.1-0.4-5.1-1.3c-0.7,1-1.5,1.5-2.2,1.5h-0.8v-0.2c0.6-0.7,1-1.2,1-1.6v-0.3c-0.8-1.2-1.4-1.8-1.9-1.8
			c-0.7,2.4-1.8,3.6-3.4,3.6h-0.2v-0.2c1-0.8,1.4-2.3,1.4-4.6c0-0.5-0.4-2.2-1.3-5.2c-0.3-2-0.5-3.5-0.5-4.3v-0.5
			c0-1.2,0.5-2.9,1.4-5.1h-0.2c-1-0.2-1.4-0.7-1.4-1.5h0.2c0.4,0.2,0.8,0.3,1.3,0.3h0.2c0.6-0.4,1.1-0.8,1.4-1.5c-2,0-3-0.8-3-2.5
			v-1h0.3c0,1.1,0.5,1.6,1.6,1.6C90.9,437.5,94.5,436.6,95.5,436.6z M147.9,447.3c0.2,0.8,0.3,1.6,0.3,2.3v2c0,2-0.7,4.7-2.1,7.9
			c2-1.5,3.9-2.3,5.6-2.3c0.6,0,1.7,0.2,3.2,0.5c-2.6-3.2-4.9-6.7-6.9-10.3H147.9z M146.3,412.3v0.2c1.4,2.7,2.1,5.7,2.1,9
			c0,1.3-0.1,2.2-0.3,2.8v0.2h0.2c0.1-0.9,2.5-4.3,7.1-10.1h-0.2c-1.2,0.3-2.3,0.5-3.2,0.5C150.2,414.7,148.3,413.9,146.3,412.3z
			 M148.9,450.2h0.3c0.6,1.4,2,3.4,4.2,6.2c-0.1,0-0.2,0.1-0.2,0.2c-0.1-0.1-0.8-0.2-2.1-0.3c-1.5,0.2-2.5,0.5-3,1v-0.2
			C148.6,455.2,148.9,452.9,148.9,450.2z M148.2,414.5c1,0.6,2.2,0.9,3.4,1c0.7-0.1,1.3-0.2,1.8-0.2v0.2c-2.7,3.6-4,5.5-4,5.9H149
			v-0.2C149,418.8,148.8,416.5,148.2,414.5z"/>
	</g>
	<g id="XMLID_264_">
		<path id="XMLID_265_" class="st12" d="M215.3,407.5c0.9,0,1.8,0.5,2.7,1.5c2.1-0.8,3.8-1.1,5.3-1.1c5.7,0,11.1,3.2,16.2,9.7
			c6.8,7.2,10.8,11,11.9,11.3c3.6,2.7,7,4.1,10.3,4.1c5.6,0,9.6-2.8,12-8.3c0.3-1.2,0.5-2,0.5-2.6v-1.6c0-4.2-1.2-7.2-3.7-9
			c-2.6-1.2-4.9-1.8-6.9-1.8c-3.4,0-5.9,2-7.5,6.1c-0.2,0.8-0.3,1.4-0.3,2c0,2.8,1.8,4.5,5.3,5.1c2.4-0.4,3.5-1.6,3.5-3.6
			c0-1.1-0.8-1.7-2.4-2c-1.3,0.1-1.9,0.7-1.9,1.6c0,0.1,0.2,0.5,0.6,1.1l-0.3,0.2c-1.1-0.8-1.6-1.6-1.6-2.5c0.3-1.4,1.1-2.2,2.4-2.5
			h1.4c0.9,0,1.6,0.2,2.1,0.5l-0.2-1.6v-1c0-0.2,0.1-0.3,0.3-0.3h0.5c1.4,0.9,2.1,2.6,2.1,5.1c-0.1,0-0.2,0.1-0.2,0.2h1.6
			c1,0,1.8,1.2,2.2,3.6h-0.2c-0.6-0.8-1.4-1.3-2.2-1.5c-0.7,0-1.5,0.6-2.4,1.8v0.3h0.6c1.3,0,2.1,0.9,2.4,2.6v0.3
			c0,1.5-1.1,2.8-3.2,3.9v-0.2c0.9-0.9,1.3-1.6,1.3-2.1V426c0-1.4-1-2.2-2.9-2.5l-1.1,0.2c0.4,1.8,0.6,3,0.6,3.4v0.2
			c0,1.3-0.9,2.2-2.7,2.8h-1.3v-0.3c1.2,0,1.8-0.7,1.8-2c0-2.3-1.8-3.9-5.3-4.7l-1.3-1c-0.3,0.2-0.7,0.3-1,0.3l-0.3-0.2
			c0.2-0.4,0.3-0.8,0.3-1c-0.6-2.1-1-3.3-1-3.6c0.2-1.4,0.3-2.4,0.3-2.8c-3.5,1.2-5.3,2.8-5.3,4.9c0.1,1,0.6,1.5,1.4,1.5h0.2
			c0.9,0,1.3-0.4,1.3-1.3c0-0.2-0.1-0.3-0.3-0.3h-0.8l-0.3,0.2l-0.2-0.3l1.9-2.3h0.2v0.3c0,0.3,0.3,1.6,0.8,3.9c0,0.2-0.2,0.6-0.5,1
			v0.2c3.7,0.7,5.6,1.5,5.6,2.3c0.5,0,1,0.9,1.6,2.6c-0.4,1.2-1,1.8-1.9,1.8c-0.6,0-1.1-0.3-1.6-0.8v-0.2h1c0.1,0,0.3-0.2,0.6-0.7
			c-0.2-1.2-0.7-1.8-1.4-1.8c-0.3,0.8-0.8,1.1-1.4,1.1h-0.2c-0.4,0-1-0.2-1.9-0.7V426h1.1c0.1,0,0.2-0.2,0.5-0.5
			c0-0.6-1.7-1.3-5-2.1c-1.7-1.2-2.6-2.5-2.6-3.8v-0.3c0-0.7,0.2-1.6,0.6-2.8h-0.6c-1.5,0-2.2,0.7-2.2,2h-0.2
			c-0.3,0-0.5-0.4-0.6-1.3v-0.3l0.2-0.8c-0.7,0-2.6-1.6-5.6-4.7c-2.2-1.7-4-2.8-5.5-3.3v-0.3h0.3c1.1,0,2.5,0.3,4,0.8
			c0-0.4,0.6-0.7,1.9-1v0.2l-0.6,0.8c0,0.5,0.6,1.1,1.8,2c0.5-1.7,1.8-2.6,3.8-2.6c0.5,0,2.4,0.7,5.8,2h0.3c0.6,0,1-0.2,1.1-0.7
			c0-0.5-0.3-0.9-0.8-1.3v-0.2h0.8c0.7,0,1.3,0.5,1.9,1.5c1.5-0.9,3-1.3,4.7-1.3v0.2c-3.4,2.3-5.3,3.4-5.6,3.4l-1.1,0.2
			c-0.8,0-1.9-0.1-3.2-0.3c-0.5,1-1.1,1.5-1.8,1.5h-1.4c-0.6-0.4-1-0.9-1-1.3h0.2c0.4,0.3,0.8,0.5,1.1,0.5c0-0.1,0.2-0.3,0.6-0.8
			v-0.7c0-0.4-0.6-0.7-1.8-1c-1,0-1.6,0.7-1.8,2.1v0.2c0,1.3,1.6,2.3,4.8,2.9h1c3.3-0.5,6.6-2.2,9.8-5.1c1.9-1.2,4.1-1.8,6.4-1.8
			c4.1,0,7.6,1.2,10.4,3.6c2.2,1.3,4,2,5.5,2c2.1,0,3.4-0.7,3.9-2.1v-0.7c-0.2-0.5-0.8-0.8-1.8-0.8c-0.4,0.1-0.7,0.4-1,0.8v0.3
			c0,0.2,0.2,0.3,0.5,0.3v0.5h-0.6c-0.4,0-0.9-0.3-1.4-0.8h-1.4c-0.6,0-2.8-1-6.4-2.9v-0.3h0.2c0.8,0,2.1,0.4,3.8,1.3
			c0-0.8,0.6-1.2,1.8-1.3l0.3,0.2c-0.2,0.4-0.3,0.7-0.3,1c0.4,0.3,0.7,0.5,1,0.5c2.9-0.9,4.4-1.3,4.7-1.3c1.5,0,2.4,0.7,2.7,2v0.3
			h0.2c1.1-0.2,1.6-0.7,1.6-1.5l-0.5-0.8l0.6-0.3c0.8,0.2,1.4,0.5,1.8,1.1c1.7-0.5,3.3-0.8,4.8-0.8h1.1c1.7,0,4.3,0.6,7.5,1.8v-0.2
			c0-1.1,0.9-1.7,2.6-2h0.6v0.2c-0.6,0.7-1,1.3-1,1.6c0,0.8,0.6,2.1,1.8,3.9h0.2c0-2.3,0.9-3.9,2.6-4.7c0.4-0.5,1-0.8,1.6-0.8v0.2
			c-1.3,2-1.9,3.5-1.9,4.3c0,1.6,0.5,4.9,1.4,9.7v1.3c0,2.3-0.6,4.6-1.9,7h0.2c1.5,0.4,2.2,1.2,2.2,2.3c0,0.8-0.3,1.4-0.8,1.8h-0.2
			l0.2-0.8c0-0.7-0.5-1.2-1.6-1.5l-7.5,2.5c-0.3,0-0.7,0.1-1.3,0.2c-2.8,0-6.8-1.5-11.9-4.4c-2.2-0.5-3.7-0.8-4.5-0.8h-1.8
			c-2,0.3-3,1.1-3,2.3v0.2c0.1,0.9,0.5,1.3,1.1,1.3c0.7,0,1.1-0.4,1.1-1.1c0-0.2-0.3-0.3-0.8-0.3v-0.2c0-0.3,0.5-0.5,1.4-0.7
			c0.2,0,0.7,0.3,1.4,1c0.4-0.2,1.2-0.4,2.4-0.5c1.8,0,4.3,1,7.5,2.9l0.6,0.2v0.3c-3-0.3-5-0.7-5.9-1.1v0.2c-0.2,0.7-0.8,1-1.8,1
			h-0.2v-0.2l0.3-0.5v-0.5c0-0.2-0.2-0.3-0.5-0.5h-0.5c-0.4,0-1.6,0.4-3.7,1.3c-0.4,0.1-0.9,0.2-1.4,0.2h-0.6
			c-1.6-0.3-2.4-0.8-2.4-1.5h-0.2c-1.3,1-2.7,1.5-4.3,1.5h-0.3v-0.2c1.5-1.1,3.4-2.9,5.8-5.4c1.1-0.8,1.8-1.1,2.1-1.1
			c-0.4-0.6-0.6-1.1-0.6-1.5c0.3-0.9,0.5-1.3,0.6-1.3c0.8,1.5,2.1,2.3,3.7,2.3c-1.2-1.6-1.8-3.1-1.8-4.6c0-1.8,2.3-3.7,6.9-5.6
			l0.6-1.1c-0.2-0.5-0.5-0.8-1-0.8V415h1.4c0.9,0,1.3,0.5,1.3,1.6c1.6-0.2,2.4-0.8,2.4-1.6c0-0.5-0.2-0.8-0.6-0.8v-0.3h0.6
			c1.2,0.2,1.8,0.8,1.8,1.6v0.5c0,1.4-2.5,2.6-7.5,3.6v0.2c1,0.5,1.4,1.1,1.4,1.8c-0.7,2.1-1.1,3.4-1.1,3.9c0.1,0.2,0.2,0.4,0.2,0.5
			c-0.8,0-1.3-0.5-1.4-1.6v-0.2c0-0.5,0.1-1.1,0.2-1.8c-0.2-0.5-0.6-0.8-1.3-0.8h-0.3c-0.7,0.4-1.1,1.1-1.1,2.1c0,2,1.9,3.8,5.6,5.2
			l-0.2-0.8V427c0-1.3,0.5-3.1,1.6-5.6c-0.1-0.5-0.2-0.8-0.2-1.1c0.5,0,1.1,0.3,1.6,0.8c2.3-0.8,3.9-2.2,4.8-4.3l0.2-0.8v-1.1
			l-0.2-0.3l0.3-0.2c1,1.2,1.4,2.2,1.4,3.1c0,1-0.6,2-1.8,3.3v0.2h2.6c1.2,0,2-0.9,2.2-2.8c0-0.5-0.2-1.1-0.6-2h0.2
			c1.3,1.3,1.9,2.3,1.9,3.3v0.8c0,0.5-0.3,1.1-1,2v0.2c0.9,1,1.3,2,1.3,2.8v1.3c-0.2,1.2-0.4,1.8-0.8,1.8c-0.5-0.6-0.9-1.4-1.3-2.5
			h-0.3c-0.5,2.1-1.7,3.1-3.4,3.1h-0.6c-1.7-0.2-2.6-0.9-2.6-2.1c0-0.9,0.4-1.5,1.1-2h0.2c-0.1,0.5-0.2,0.8-0.3,0.8
			c0,0.8,0.6,1.2,1.8,1.3c0.7,0,1.3-0.4,1.8-1.3c-0.2-2.2-1.1-3.3-2.9-3.3h-1.6c-1.4,0-2.4,0.9-2.9,2.6c-0.2,0.5-0.3,1.3-0.3,2.3
			c0,3.1,2.1,4.9,6.4,5.4h1.4c3.7,0,6.4-2.1,8.3-6.2c0.4-1.3,0.6-2.3,0.6-3.1v-1.3c-1.1-4.5-2.9-7.6-5.3-9.5
			c-3.6-1.9-6.7-2.8-9.1-2.8c-6.8,0-13.3,5.8-19.4,17.4c-3.5,5-7.8,7.5-12.7,7.5c-5.5,0-10.6-2.5-15.4-7.5
			c-3.3-2.9-7.5-7.2-12.4-12.8c-3.9-2.9-7.2-4.4-10.1-4.4h-0.2c-6.1,0-10,2.7-11.9,8.2c-0.3,2-0.5,3.3-0.5,3.8
			c0,5.1,2.6,8.6,7.7,10.6l1.6,0.2h2.2c2.5,0,4.4-1.5,5.8-4.4c0.2-0.4,0.3-0.8,0.3-1.3c0-2.5-1.7-3.9-5.1-4.3
			c-1.9,0.3-2.9,1.1-2.9,2.3c0,1.3,0.8,2.1,2.4,2.3c1.1,0,1.7-0.7,1.9-2.1c-0.1,0-0.2-0.1-0.2-0.2h0.2c0.3,0,0.5,0.6,0.6,1.8v0.2
			c-0.3,1.4-1.2,2.1-2.7,2.1h-0.5c-0.6,0-1.4-0.3-2.4-1v0.2l0.2,1.1l-0.3,0.2c-0.7,0-1.4-0.8-1.9-2.5v-1.3h-1
			c-1.8,0-2.9-1.3-3.2-3.8v-0.3h0.3c0.3,1.6,1.1,2.5,2.4,2.5h0.2c0.3,0,1.1-0.4,2.4-1.1v-0.3h-0.8c-2.4-0.4-3.5-1.6-3.5-3.6
			c0-1.2,0.7-2.4,2.1-3.8v0.2c-0.3,1-0.5,1.8-0.5,2.5v0.5c0,1.5,1.1,2.3,3.2,2.3h0.6l0.8-0.2c-1.1-1.3-1.6-2.3-1.6-3.3v-1.1
			c0-1.7,1.4-2.8,4.2-3.4v0.2c-1.5,1.1-2.2,2.1-2.2,2.9c0,2,1.8,3.8,5.3,5.4l1.8,1.3c0.5-0.4,1-0.7,1.8-0.7c0.2,0.1,0.4,0.2,0.5,0.2
			l-0.8,1v0.5l1.1,3.6c0,0.5-0.2,1.2-0.6,2h0.2c3.5-1.7,5.3-3.4,5.3-4.9c0-0.8-0.6-1.2-1.8-1.3c-0.3,0-0.6,0.4-0.8,1.1
			c0.2,0.4,0.3,0.7,0.3,1c0,0.5-0.3,1-1,1.5c0-0.3-0.3-1.1-1-2.5v-0.5c0-0.4,0.3-1.1,1-2v-0.2c-5.8-1.6-8.7-3.7-8.7-6.1
			c0.4-1.2,1.1-1.8,2.2-1.8h1v0.3c-1.1,0-1.6,0.5-1.6,1.5c0.6,1.4,1.3,2.1,2.2,2.1v-0.2c0-1.1,0.5-1.6,1.6-1.6h0.5
			c0.3,0,0.9,0.3,1.9,0.8v0.3h-1.3c-0.2,0-0.3,0.2-0.5,0.7c0,0.7,2.2,2,6.6,3.9c0.7,1,1.1,1.9,1.1,2.6v0.8c0,0.5-0.4,1.2-1.1,2.3
			h0.5c2,0,3-0.6,3-1.8h0.2c0.4,0.2,0.6,0.5,0.6,1.1l-0.2,0.8c1.2,0.1,3.3,1.9,6.4,5.2c1.4,1.1,2.3,1.6,2.9,1.6v0.3h-1
			c-1.5,0-3.2-0.7-5-2.1c0,0.9-0.7,1.6-2.2,2h-1.3c-2.2-0.8-3.5-1.1-3.7-1.1h-1.3c-0.2,0-0.3,0.2-0.5,0.5l0.5,0.8v0.2h-0.8
			c-0.6,0-1.1-0.4-1.4-1.1c-2,0.8-3.9,1.1-5.9,1.1v-0.3c4.1-2.1,6.9-3.1,8.3-3.1h0.3c0.5,0,1.2,0.1,1.9,0.3c0-0.7,0.5-1.1,1.4-1.3
			c0.7,0.1,1.1,0.4,1.1,0.7c-0.6,0-1,0.3-1,1c0.3,0.5,0.7,0.8,1.3,0.8c0.7-0.3,1.1-0.6,1.3-1v-0.7c-0.3-1.4-1.2-2.1-2.7-2.1h-1.8
			c-2.4,0-6.7,1.7-13,5.2c-0.9,0.2-1.8,0.3-2.7,0.3h-0.8c-1.1,0-4.6-0.8-10.4-2.5c-1.1,0-1.6,0.5-1.6,1.6h-0.3v-1.1c0-1.3,1-2,3-2.3
			c-0.5-1-1.1-1.5-1.6-1.5c-0.8,0.2-1.2,0.3-1.3,0.3v-0.5c0.4-0.7,0.9-1,1.6-1c-1-1.7-1.4-3.5-1.4-5.4c0-2.3,0.6-5.3,1.8-9v-1.6
			c-0.2-2.2-0.7-3.3-1.4-3.4v-0.3c1.8,0,3,1.3,3.5,3.8c1.3-0.7,1.9-1.4,1.9-2.1v-0.2c0-0.4-0.3-1-1-1.6
			C215.1,407.6,215.2,407.5,215.3,407.5z M222.5,436.6c2,0,4.6,1,7.7,2.9c3.5,2,6.5,2.9,9.1,2.9h0.5c2.1,0,3.2-0.9,3.2-2.6
			c-0.3-0.8-0.9-1.1-1.6-1.1c-0.6,0-1,0.4-1,1.1v0.2c0,0.2,0.3,0.4,1,0.5c0,0.2-0.4,0.5-1.3,0.7c-0.9-0.2-1.3-0.7-1.3-1.3l-2.1,0.3
			c-1.8,0-4.6-1.1-8.5-3.4v-0.2h0.2c1.9,0,3.9,0.4,5.9,1.3c0-0.8,0.6-1.2,1.8-1.3h0.2c0.2,0,0.3,0.1,0.3,0.3c-0.2,0-0.4,0.2-0.6,0.7
			v0.2c0.1,0.3,0.4,0.5,1,0.5c1,0,2.3-0.3,3.7-1c0.4-0.1,0.9-0.2,1.4-0.2h0.3c1.3,0,2.1,0.7,2.6,2c1.9-1.4,3.6-2.1,5.1-2.1h1v0.3
			c-1.3,0.1-3.2,1.6-5.8,4.4c-1.6,1.4-2.8,2.2-3.8,2.5c0.2,0.4,0.3,0.7,0.3,1c-0.2,0.7-0.5,1-0.6,1h-0.3c0-1.3-1.2-2-3.5-2
			c0.9,1.1,1.3,2.2,1.3,3.1c-0.6,2.1-1.3,3.1-2.2,3.1c-3.7,1.7-5.6,2.9-5.6,3.4v0.3l0.5,0.3h1.3v0.2c0,0.4-0.7,0.7-2.2,1.1
			c-1.2-0.2-1.8-0.8-1.8-1.8h-0.2c-1.4,0.4-2.1,1.1-2.1,2.1c0,0.9,0.5,1.3,1.6,1.3v0.3h-1c-1.5-0.1-2.2-0.9-2.2-2.3
			c0-1.9,2.9-3.7,8.7-5.6c-0.5-0.8-0.8-1.4-0.8-1.8v-0.8c0.5-1.1,0.8-1.9,0.8-2.3h0.2c0.5,0.3,0.8,0.7,0.8,1.1l-0.2,2l0.5,0.3h0.6
			c0.6,0,1.1-0.4,1.4-1.1c0-1.3-1.3-2.7-3.8-4.3l-1.6-0.8v0.2c0.4,0.8,0.6,1.5,0.6,2l-1.3,3.4c0.1,0.9,0.4,1.3,0.8,1.3v0.3h-1
			c-0.4,0-0.8-0.2-1.3-0.7c-0.4,0.4-2.4,1.7-5.9,3.8c-0.7,1.2-1.1,2.2-1.1,2.9c0,0.9,0.7,1.9,2.2,2.9v0.2c-2.9-0.7-4.3-2-4.3-3.9
			c0.5-2.5,1.2-3.8,1.9-3.8v-0.2l-0.8-0.2h-1c-2,0.2-3,0.9-3,2.1v1.1c0,0.2,0.2,1,0.5,2.1c-1.4-1.4-2.1-2.7-2.1-3.8
			c0-2.2,1.4-3.4,4.2-3.8h0.3v-0.2c-1.3-0.9-2.3-1.3-3-1.3c-1.4,0.7-2.1,1.6-2.1,2.8h-0.3v-0.2c0.3-2.7,1.3-4.1,3-4.1h1.3V444
			c0-0.7,0.5-1.5,1.6-2.3h0.2c0.2,0,0.3,0.5,0.3,1.5c0.8-0.7,1.6-1,2.2-1h0.2c2,0,3,0.7,3,2v0.2c0,0.5-0.1,1.2-0.3,2h-0.3v-0.7
			c0-1-0.7-1.5-2.1-1.6c-1.2,0-2,0.8-2.2,2.5c0.6,1.4,1.6,2.1,3.2,2.1c3.3-0.4,5-1.9,5-4.6c-0.5-1.8-1.3-3.1-2.4-3.9
			c-1.5-1.1-3.2-1.6-5-1.6c-5.1,0-8.5,2.9-10.3,8.7v3.1c0,4.8,2.4,8.2,7.2,10.3c1.2,0.5,2.9,0.8,5.1,0.8c4.9,0,10.3-3.7,16.2-11.1
			c8.6-8.6,14.8-12.9,18.4-12.9c0.6-0.2,1.8-0.3,3.5-0.3c6.1,0,11.4,4.5,15.7,13.4c5.2,7.7,10.2,11.6,14.9,11.6h2.4
			c2.5-0.2,5.3-1.1,8.3-2.9c2.3-2.2,4-5.3,5-9.3v-0.2c0-4.3-1.8-7.4-5.5-9.3c-1.3-0.7-2.7-1-4.2-1c-4.9,0-7.4,2-7.4,5.9
			c0.3,2.9,1.5,4.4,3.4,4.4h1.1c2.1,0,3.2-0.9,3.2-2.8v-0.2c0-1.1-0.6-1.6-1.9-1.6c-1,0-1.4,0.4-1.4,1.3l0.2,0.8
			c-0.3,0-0.7-0.4-1.1-1.1v-1c0-1.3,1-2,3-2c1.6,0,2.8,1,3.5,3.1v0.2h0.2c0.3-1.1,0.8-1.9,1.6-2.6c0.4,0.8,0.6,1.7,0.6,2.6v0.2
			c0,1-0.5,2-1.4,3.3v0.3c0.4,0,0.7,0.5,1,1.6v0.7c0,1.1-0.6,2.3-1.9,3.4h-0.2c0.4-0.8,0.6-1.5,0.6-2.1c0-1.7-1-2.6-3-2.6h-1.4
			c-0.2,0-0.3,0.1-0.3,0.3c1.2,0.9,1.8,2,1.8,3.4c-0.2,1-0.7,1.9-1.6,2.8c0-0.1-0.1-0.2-0.2-0.2l0.2-0.8v-0.3c0-2.2-1.7-4-5-5.4
			c-0.5,0.5-1.1,0.8-1.8,0.8v-0.2c0.2-0.4,0.3-0.7,0.3-1v-0.2c-1.1-2.5-1.6-4.4-1.6-5.9c0.1-0.6,0.2-1.1,0.2-1.5
			c-3.6,1.4-5.5,3-5.5,4.7v1c0,0.7,0.4,1.2,1.3,1.6c0.9-0.3,1.3-0.6,1.3-0.8c-0.1-1.1-0.2-1.8-0.2-2c0-0.8,0.4-1.4,1.3-1.8
			c0,0.3,0.4,1.9,1.1,4.9c0,0.4-0.4,0.8-1.3,1.3v0.3c4.9,0.9,7.4,2.2,7.4,3.9v0.2c0,1-0.7,1.5-2.1,1.6h-0.3v-0.2
			c0-0.1,0.2-0.3,0.6-0.8V457c0-0.7-0.7-1.3-2.2-1.8c-0.3,1.2-0.8,1.8-1.6,1.8H289l-0.8-0.2v-0.3c0.6,0,1-0.2,1-0.5v-0.2
			c0-1.1-1.2-1.9-3.7-2.6c-2.4-1.6-3.5-2.9-3.5-3.8v-1.3c0-0.9,0.5-2.1,1.6-3.6v-0.2c-1.6,0-2.8,0.8-3.4,2.3h-0.5
			c0-0.1-0.1-0.5-0.3-1.3v-0.2c0-0.4,0.2-0.8,0.6-1.3c-0.8,0-3-1.9-6.4-5.6c-0.2,0-0.8-0.4-1.6-1.1l0.3-0.2c1.5,0,3,0.5,4.5,1.6h0.2
			c0-0.8,1-1.3,2.9-1.5c1.1,0,2.8,0.5,4.8,1.5h1c0.2,0,0.3-0.2,0.5-0.5v-0.5l-0.3-0.5V437c1.3,0.2,1.9,0.6,1.9,1.1h0.2
			c1.2-0.4,3-0.8,5.6-1v0.3c-2.9,1.5-4.9,2.4-5.9,2.8c-0.9,0.1-1.6,0.2-2.1,0.2c-0.8,0-1.7-0.2-2.6-0.5c-0.4,0.7-0.9,1-1.6,1
			c-0.7-0.2-1.1-0.4-1.1-0.7v-0.2c0.5,0,0.8-0.1,0.8-0.3c0-0.8-0.4-1.1-1.3-1.1c-0.6,0.2-1,0.7-1,1.3v0.3c0,1.2,1.2,2,3.7,2.3
			c3.2,0,7.2-1.4,12-4.1c2-0.8,3.8-1.1,5.3-1.1c1.2,0,4,0.9,8.3,2.6h0.8c1,0,1.4-0.7,1.4-2.1c0.5,0.4,0.8,1,0.8,1.8
			c0,1.2-0.9,2-2.6,2.3c1.3,1.9,1.9,4.2,1.9,6.9v1c0,0.7-0.4,3.1-1.3,7.4c-0.1,1-0.2,1.8-0.2,2.5v0.3c0,0.7,0.6,2.2,1.8,4.4h-0.2
			c-2.6-1.3-3.8-2.9-3.8-4.7v-0.8c-1,0.8-1.6,2-1.9,3.4v0.5c0,0.4,0.3,1,1,1.6v0.2h-0.5c-1.9-0.3-2.9-1-2.9-2.3
			c-2.9,1.2-5.5,1.8-8,1.8c-1.5,0-3.3-0.3-5.6-0.8v0.2c0,0.3-0.5,0.6-1.4,0.8h-0.5c-0.2,0-0.3-0.1-0.3-0.3c0.2,0,0.3-0.2,0.5-0.5
			v-0.8c-0.2-0.5-0.7-0.8-1.6-0.8c0,1.1-0.9,1.8-2.7,2.1c-0.4,0-2-0.4-5-1.3c-0.2,0-0.4,0.2-0.8,0.7c0.2,0.4,0.3,0.6,0.3,0.8
			l-0.3,0.2h-0.2c-0.7,0-1.2-0.4-1.6-1.3c-0.9,0.5-2.2,1-3.8,1.3V464c3.3-2.1,5.3-3.1,6.3-3.1h1.6c0.6-0.5,1-0.8,1.4-0.8h0.3
			c0.2,0,0.3,0.1,0.3,0.3c-0.2,0-0.3,0.2-0.5,0.5v0.5c0.2,0.4,0.6,0.7,1.1,0.7h0.3c0.9,0,1.3-0.4,1.3-1.3c0-1.2-1.2-1.9-3.5-2.3
			h-0.6c-1.6,0-4.7,1.5-9.3,4.4c-1.4,0.7-3.5,1-6.3,1c-3.4,0-6.2-1.1-8.3-3.4c-2.9-2.2-5.7-3.4-8.5-3.6h-0.3c-3.3,0.7-5,1.7-5,2.9
			c0.1,1.5,0.8,2.3,2.1,2.3c1.1-0.2,1.6-0.7,1.6-1.5c-0.2-0.5-0.4-0.8-0.6-0.8H244l-0.5,0.3h-0.2v-0.2c0.2-0.5,0.5-0.9,1-1.1h1.3
			c0.9,0,1.4,0.5,1.8,1.5l1.6-0.2h2.6c0.5,0,1.9,0.8,4,2.5c1.1,0.7,1.7,1,1.9,1v0.3h-0.2c-1.1,0-2.7-0.4-4.8-1.3
			c0,0.4-0.4,0.9-1.1,1.3h-1.3v-0.2c0.5-0.4,0.8-0.9,0.8-1.3c-0.5-0.4-0.9-0.7-1.3-0.7c-0.2,0-2.1,0.7-5.5,2h-1.3
			c-2-0.5-3-1.4-3-2.6h-0.2c-1.1,0.6-1.6,1.3-1.6,2.1c0,0.2,0.2,0.3,0.5,0.3v0.3h-0.2c-0.7,0-1.3-0.3-1.8-0.8
			c-1.4,0.4-2.9,0.7-4.5,0.8v-0.3c2.2-0.4,5.5-2.9,10.1-7.5l1.3-0.5l-0.2-0.8c0.1-1.1,0.3-1.6,0.6-1.6h0.2c0,1.3,0.7,2,2.2,2h0.6
			c-0.4-1.2-0.6-2.1-0.6-2.8V452c0-2.3,1.7-3.8,5.1-4.6c0.9,0,1.7-0.4,2.4-1.1V446c0-0.2-0.1-0.3-0.3-0.3h-1.1v-0.2
			c0-0.3,0.5-0.6,1.4-0.8h0.6c0.7,0,1.1,0.4,1.4,1.3c0.9-0.4,1.3-1.1,1.3-2.1c0-0.3-0.4-0.5-1.3-0.7c0,0.1-0.1,0.2-0.2,0.2v-0.2
			c0-0.4,0.6-0.7,1.9-0.8c1,0.4,1.4,1,1.4,1.8v0.2c-1,2.5-2.3,3.8-3.7,3.8c0,0.2-1.2,0.5-3.5,1v0.2c0.3,0.1,0.5,0.4,0.5,1v0.2
			c-0.5,2.1-0.8,3.4-0.8,3.9h-0.2c-1.3-1.3-1.9-2.1-1.9-2.5c0.1,0,0.2-0.1,0.2-0.2c0.4,0.2,0.8,0.3,1.3,0.3l0.2-0.3v-0.2
			c0-0.9-0.5-1.3-1.6-1.3c-0.9,0.3-1.3,0.8-1.3,1.6v0.2c0,1.9,1.8,3.4,5.5,4.7v-0.2c-0.3-0.9-0.5-1.8-0.5-2.8c0-0.4,0.3-1.4,1-3.3
			v-0.2l-0.2-1.1h0.3c0.3,0,0.6,0.1,1,0.3c0-0.4,1.7-1.2,5.1-2.6c0.9-0.8,1.3-1.7,1.3-2.6v-1c0-1-0.5-1.5-1.6-1.5v-0.3h0.5
			c1.7,0,2.8,0.7,3.4,2.1c0,0.4,0.1,0.6,0.2,0.8c0,0.3-0.3,1.4-0.8,3.4l1.4,0.2c1.8-0.3,2.7-1.2,2.7-2.6v-0.2c0-0.5-0.4-1.4-1.3-2.5
			h0.2c2.1,1.4,3.2,2.6,3.2,3.6c0,1.8-1.1,2.9-3.4,3.3v0.2c0.8,1.2,1.6,1.8,2.4,1.8c0.7,0,1.4-0.4,2.2-1.3v0.3
			c-0.4,2.2-1.1,3.3-2.2,3.3h-1.3v0.2c0,2.3-0.7,3.9-2.1,4.9h-0.5c-0.2,0-0.3-0.1-0.3-0.3v-1.3l0.2-1.1h-0.2c-1.1,0.3-2,0.5-2.7,0.5
			c-2-0.3-3-1.4-3-3.1c0-0.6,0.6-1.2,1.8-1.8v0.2l-0.3,0.5v1.1c0.3,0.7,0.9,1,1.8,1h0.3c1.4-0.3,2.1-0.9,2.1-2v-0.5
			c0-1.3-0.9-2.3-2.6-2.9h-1.8c-2.9,0.7-4.3,2-4.3,3.9c-0.1,0-0.2,0.3-0.2,0.8c0,3.8,2.1,6.5,6.3,8c0.6,0,1.2,0.1,1.8,0.2
			c3.3,0,6.1-1.1,8.5-3.3c1.4-2.9,2.1-5.7,2.1-8.4c0-4.8-2.7-8.4-8-11c-1.9-0.5-3.4-0.8-4.7-0.8c-5.9,0-13.5,5.3-22.6,15.9
			c-5.1,5.9-10.4,8.8-16,8.8c-1.4,0-3.1-0.4-5.1-1.3c-0.7,1-1.5,1.5-2.2,1.5h-0.8v-0.2c0.6-0.7,1-1.2,1-1.6v-0.3
			c-0.8-1.2-1.4-1.8-1.9-1.8c-0.7,2.4-1.8,3.6-3.4,3.6h-0.2v-0.2c1-0.8,1.4-2.3,1.4-4.6c0-0.5-0.4-2.2-1.3-5.2
			c-0.3-2-0.5-3.5-0.5-4.3v-0.5c0-1.2,0.5-2.9,1.4-5.1h-0.2c-1-0.2-1.4-0.7-1.4-1.5h0.2c0.4,0.2,0.8,0.3,1.3,0.3h0.2
			c0.6-0.4,1.1-0.8,1.4-1.5c-2,0-3-0.8-3-2.5v-1h0.3c0,1.1,0.5,1.6,1.6,1.6C218,437.5,221.6,436.6,222.5,436.6z M275,447.3
			c0.2,0.8,0.3,1.6,0.3,2.3v2c0,2-0.7,4.7-2.1,7.9c2-1.5,3.9-2.3,5.6-2.3c0.6,0,1.7,0.2,3.2,0.5c-2.6-3.2-4.9-6.7-6.9-10.3H275z
			 M273.4,412.3v0.2c1.4,2.7,2.1,5.7,2.1,9c0,1.3-0.1,2.2-0.3,2.8v0.2h0.2c0.1-0.9,2.5-4.3,7.1-10.1h-0.2c-1.2,0.3-2.3,0.5-3.2,0.5
			C277.3,414.7,275.4,413.9,273.4,412.3z M276,450.2h0.3c0.6,1.4,2,3.4,4.2,6.2c-0.1,0-0.2,0.1-0.2,0.2c-0.1-0.1-0.8-0.2-2.1-0.3
			c-1.5,0.2-2.5,0.5-3,1v-0.2C275.7,455.2,276,452.9,276,450.2z M275.3,414.5c1,0.6,2.2,0.9,3.4,1c0.7-0.1,1.3-0.2,1.8-0.2v0.2
			c-2.7,3.6-4,5.5-4,5.9h-0.3v-0.2C276.1,418.8,275.9,416.5,275.3,414.5z"/>
	</g>
</g>
<g id="bolon-w">
	<rect id="XMLID_46_" x="479.8" y="475.6" class="st0" width="237.3" height="7.9"/>
	<rect id="XMLID_50_" x="479.4" y="495.1" class="st0" width="237.3" height="7.9"/>
	<path id="XMLID_56_" class="st0" d="M755.7,386.4L598.2,68.7v-0.5l-0.1,0.3l-0.1-0.3v0.5L440.4,386.4l-20.3,7.3l9.4,7.6l20.3-7.3
		l9-0.1c0,0,125.4,5,139.1,5.1v0c0,0,0.1,0,0.1,0c0,0,0.1,0,0.1,0v0c13.8-0.1,139.1-5.1,139.1-5.1l9,0.1l20.3,7.3l9.4-7.6
		L755.7,386.4z"/>
	<path id="XMLID_33_" class="st13" d="M598.8,396.5c30.1,0,139.4-6.2,139.4-6.2l-7.9,53h5.6l-1.1,16.9c0,0-106.8,4.6-136,4.6
		s-136-4.6-136-4.6l-1.1-16.9h5.6l-7.9-53C459.4,390.3,568.7,396.5,598.8,396.5"/>
	<path id="XMLID_9_" class="st0" d="M468.6,460.7v57.1c0,0-6.3,0.9-6.3,3.2v6c0,0,2.3,3.4,12,3.4c9.8,0,13.9-1.1,13.9-3.4s0-2.6,0-6
		c0,0-1.9-3-6.8-3v-56.7L468.6,460.7z"/>
	<path id="XMLID_12_" class="st0" d="M513.7,462.6V518c0,0-7.7,1.1-7.7,3s0,6,0,6s2.4,2.1,13.3,2.1c0,0,13-0.2,13-2.1s0-6,0-6
		s-2.1-3-6.2-3v-54.9L513.7,462.6z"/>
	<path id="XMLID_11_" class="st0" d="M558.3,464.3V518c0,0-7,0.6-7,3c0,2.4,0,6,0,6s7.1,3.4,16.7,3.4s10-3.4,10-3.4v-6
		c0,0-0.6-3-6.8-3v-53.3L558.3,464.3z"/>
	<path id="XMLID_15_" class="st0" d="M727.8,460.7v57.1c0,0,6.3,0.9,6.3,3.2v6c0,0-2.3,3.4-12,3.4s-13.9-1.1-13.9-3.4s0-2.6,0-6
		c0,0,1.9-3,6.8-3v-56.7L727.8,460.7z"/>
	<path id="XMLID_13_" class="st0" d="M638.1,464.3V518c0,0,7,0.6,7,3c0,2.4,0,6,0,6s-3.8,3.4-13.3,3.4c-9.6,0-13.3-3.4-13.3-3.4v-6
		c0,0,0.6-3,6.8-3v-53.3L638.1,464.3z"/>
	<path id="XMLID_14_" class="st0" d="M682.6,462.6V518c0,0,7.7,1.1,7.7,3s0,6,0,6s-2.4,2.1-13.3,2.1c0,0-13-0.2-13-2.1s0-6,0-6
		s2.1-3,6.2-3v-54.9L682.6,462.6z"/>
	<path id="XMLID_31_" class="st2" d="M449.8,392.9"/>
	<path id="XMLID_30_" class="st2" d="M746.5,392.9"/>
	<path id="XMLID_34_" class="st3" d="M598.5,353.8c65.4,0,101.5-3.9,101.5-3.9l-94.9-193h-6.7h0h-6.7l-95.4,193
		C496.4,349.9,533.1,353.8,598.5,353.8L598.5,353.8L598.5,353.8L598.5,353.8L598.5,353.8z"/>
	<path id="XMLID_23_" class="st14" d="M598.8,94.6L450.4,392.9c0,0,105.6,5,148.4,5l0,0h0h0l0,0c42.8,0,148.4-5,148.4-5L598.8,94.6
		L598.8,94.6z"/>
	<path id="XMLID_35_" class="st9" d="M598.2,143.1L484.7,375.9c0,3.8,39.1,3,39.1,3s68.4-3,68.4-18h6h0h6c0,15,68.4,18,68.4,18
		s39.1,0.8,39.1-3L598.2,143.1L598.2,143.1z"/>
	<path id="XMLID_41_" class="st6" d="M604.8,240.9"/>
	<polygon id="XMLID_44_" class="st15" points="598.1,119.4 467.2,382.1 728.7,382.1 	"/>
	<g id="XMLID_109_">
		<path id="XMLID_125_" d="M594.1,310c-0.4-4.4-2.2-7.5-4.6-8.1c-2.2-0.6-3.7,1.1-4.6,5c-1.1,4.7,0.1,8.3,2.6,7.9
			c0.8-0.1,1.5-0.4,2.3-0.6c-0.1,6.4-1.6,7.1-6.2,3.3c-1.1,3.5-1.4,3.9-3.2,3.2c0-2.6,0-5.2,0-8.1c-2,1.5-3.6,3.1-5.3,4.1
			c-5,3.1-9.9,0.5-14.6-3c-5.9-4.4-11.8-9.6-18.1-11.5c-2.7-0.8-5.3-1-8-1.3l-3.3,6.8c7.3,2.9,14.7,5.6,22,8.4
			c8.5,3.3,17,6.8,25.5,9.9c3.3,1.2,6.6,1.8,9.8,0.6c0.7-0.5,1.5-1,2.3-1.4C593.5,322.6,594.8,317.1,594.1,310z"/>
		<path id="XMLID_129_" d="M656.1,310.8c3-1.2,6-2.4,9-3.7c-1.1-2.4-2.2-4.6-3.2-6.5c-8.4-0.1-16.2,4.7-24,10.7
			c-3.7,2.8-7.6,5-11.4,6.6c-3.6,1.4-7-0.7-10.3-4c-1.4-1.5-1.9-0.8-1.7,2.6c0.1,1.4,0.2,2.7,0.3,4c-1.6,1.3-2.3,0.7-3.3-2.9
			c-1.6,0.9-3.1,4.3-4.9,2.1c-0.8-1-1.2-3.1-1.8-5c1.5,0,2.7,0.3,3.8-0.1c1.8-0.6,2.4-3.1,1.7-6.6c-0.9-4.9-2.8-6.9-5.4-5.7
			c-2.7,1.3-4.3,5.7-4.2,11.6c0.1,5.2,1.1,8.4,2.6,10.4c1.9,0.7,3.7,1.8,5.3,2.9c4.7,0.6,9.2-1.4,13.8-3.2
			C633.6,319.4,644.9,315.2,656.1,310.8z"/>
		<path id="XMLID_131_" d="M600.4,296.5c0.2,0.5,0.5,0.9,0.9,1.6c3.5-4.3,7.1-3.2,10.4,0.1c3.2,3.2,6.2,7,9.2,11
			c3.3,4.4,6.8,4.4,9.7-0.8c0.5-0.8,1-2.6,0.9-3.7c-0.1-1.1-0.8-2.4-1.4-2.9c-2.3-2-4.2,0.1-4.5,5c-1.6,0.5-2.4-0.4-2.7-3.6
			c-0.2-2.3-0.6-2.7-1.6-2.3c-1.7,0.7-3.2,0-4.6-2.2c-0.4-0.6-0.6-1.6-1-2.8c3.8,0,7.4-0.4,10.9,0.1c4.3,0.7,8.6,2.2,12.9,3.2
			c0.7,0.2,1.5-0.6,2.5-1c-0.5-1.7-0.8-2.8-1.3-4.2c2.1-0.2,3,2.5,3.8,5.5c3.5-1.2,6.9-2.7,10.3-3.5c1.6-0.4,3.2-0.8,4.8-0.5
			c-0.8-1.6-1.2-2.5-1.2-2.5h-60.4C598.7,293.3,599.4,294.5,600.4,296.5z"/>
		<path id="XMLID_132_" d="M671.7,329.7c-2.1-2.5-4.4-3.3-6.8-2.1c-1.5,0.7-2.6,2.4-3.1,5.5c-0.2,1.3-0.3,2.9-1.3,2.4
			c-0.9-0.5-1.9-0.8-2.1-3.3c-0.1-1.1,0-2.2,0-3.3c-2.5,1.8-4.8,3.6-7.2,5.1c-2.9,1.8-5.8,2.8-8.8,2c-1.7-0.4-3.4-1.3-4.5-5.4
			c5.5,3.4,10.3-0.7,15.2-3.7c5-3.1,10-7,14.9-10.5c0.4-0.3,0.8-0.6,1.3-0.9c-0.5-0.9-0.9-1.9-1.3-2.8c-8,4.4-16.1,7.6-24.4,10
			c-2.4,0.7-4.8,1.7-7.1,3.1c-2.7,1.7-3.1,3.4-2.6,9.1c-1.5-0.1-2.7-1.3-3.2-4.1c-0.4-2.1-1-2.1-1.9-1.7c-3.8,1.8-7.5,3.7-11.3,5.2
			c-0.2,0.1-0.4,0.1-0.6,0.2c1.7,0.6,3.6,0.9,4.9,0.9c2.8,0,9,5.1,9,5.1c4.5,0,10.7,1.7,22.5,1.7s27.1-3.4,27.1-3.4
			c0.1,0.1-0.5-1.2-1.6-3.5C676.3,334.6,674,332.5,671.7,329.7z"/>
		<path id="XMLID_133_" d="M576.7,334.1c-3.9-1.6-7.7-3.5-11.7-5.3c-0.8,3.2-1.7,6.2-3.6,6.1c-0.1-2,0.1-4.5-0.4-5.7
			c-0.7-1.8-1.9-3.3-3-3.8c-3.8-1.7-7.7-3.1-11.6-4.2c-6.2-1.8-12.2-4.7-18.2-7.9l-1.6,3.3c1.7,1.1,3.4,2.3,5.1,3.3
			c6.1,3.8,12.2,7.7,18.4,11.3c2.2,1.3,4.5,1.3,7-0.9c-1,4.4-2.7,5.3-4.5,5.7c-5.2,1-9.9-2.1-14.6-6.3c-0.3-0.3-0.7-0.6-1.1-0.9
			c-0.1-0.1-0.2,0-0.3,0.1c-0.3,4.8-0.6,6.2-2,6.4c-0.3,0-0.7,0-1.1-0.1c-1.1-6.5-3.2-9.3-6.5-7.9c-1.7,0.7-3.4,2-4.9,3.7
			c-1.4,1.5-2.8,2.8-4.3,3.7l-2,4.1c0,0,15.2,3.4,27.1,3.4c11.8,0,18-1.7,22.5-1.7c0,0,6.2-5.1,9-5.1c1.1,0,2.7-0.3,4.2-0.7
			C578.1,334.6,577.4,334.4,576.7,334.1z"/>
		<path id="XMLID_135_" d="M550,299.6c0.2,0.1,0.4,0.1,0.6,0.2c0.8-3.2,1.7-5.9,3.6-5.8c0,0.3,0.1,0.5,0.1,0.6
			c-0.2,1.2-0.4,2.4-0.7,3.6c0.6,0.4,1.3,1.2,1.9,1.1c3.5-0.8,6.9-1.9,10.4-2.7c4.5-1.1,8.9-1.9,13.4-0.8c-0.6,3.7-2.6,6-5,5.2
			c-1.4-0.5-1.9-0.1-2.2,3c-0.2,2.7-1.4,3.3-2.7,3c0.3-2.9-0.3-4.7-1.6-5.4c-1.4-0.8-2.8-0.7-3.9,1.6c-0.8,1.6-0.6,3.5,0.4,5.1
			c3,5.1,6.5,5.4,9.7,1.1c2.3-3.1,4.6-6.3,6.9-9c3-3.4,6.1-5.9,9.6-4.7c0.8,0.3,1.6,0.7,2.3,1.5c0.8,0.8,1.2,0.7,1.8-0.6
			c0.9-2.1,1.7-3.2,2.5-3.5h-59l-1.3,2.6C541.3,295.6,545.6,297.7,550,299.6z"/>
	</g>
	<polygon id="XMLID_45_" points="604.8,182 604.8,241.2 598.2,250.5 591.5,241.2 591.5,182 544,280.6 575.8,280.6 592.9,268.1 
		598.2,268.1 603.4,268.1 620.5,280.6 652.3,280.6 	"/>
	<path id="XMLID_52_" class="st16" d="M699.7,349.9c0,0-36.1,3.9-101.5,3.9v0c-65.4,0-101.5-3.9-101.5-3.9l-12,23.7
		c2.3,1.9,5.7,2.3,5.7,2.3l74.7-2.3c0,0,25.4,0.8,27.1-9.4h6v0h6c1.7,10.2,27.1,9.4,27.1,9.4l74.7,2.3c0,0,3.4-0.5,5.7-2.3
		L699.7,349.9z"/>
	<path id="XMLID_37_" class="st7" d="M710.2,374.7"/>
	<line id="XMLID_42_" class="st7" x1="598.8" y1="398.3" x2="598.8" y2="398.1"/>
	<path id="XMLID_40_" class="st17" d="M565.1,373.6l-74.7,2.3c10.8,2.1,33.4,2.9,33.4,2.9s24.9-1.1,44.7-5.3
		C566.4,373.7,565.1,373.6,565.1,373.6z"/>
	<path id="XMLID_43_" class="st17" d="M631.3,373.6c0,0-1.3,0-3.4,0c19.8,4.2,44.7,5.3,44.7,5.3s22.5-0.9,33.4-2.9L631.3,373.6z"/>
	<path id="XMLID_49_" class="st9" d="M721,502.7"/>
	<polyline id="XMLID_48_" class="st4" points="721,502.7 721,502.7 721,502.7 	"/>
	<path id="XMLID_53_" class="st10" d="M598.2,396.8"/>
	<path id="XMLID_51_" class="st18" d="M598.2,399.1c42.9,0,149.3-5.9,149.3-5.9L734,365.9c0,0-17.4,13.9-60.3,13.9
		c0,0-68.4-1.9-68.4-16.9h-7.1h-7.1c0,15-68.4,16.9-68.4,16.9c-42.9,0-59.1-13.9-59.1-13.9l-14.6,27.2
		C448.9,393.1,555.3,399.1,598.2,399.1"/>
	<g id="XMLID_19_">
		<path id="XMLID_20_" class="st19" d="M492.1,401.4c0.9,0,1.8,0.5,2.7,1.5c2-0.8,3.8-1.1,5.2-1.1c5.6,0,10.9,3.2,16,9.5
			c6.7,7.1,10.6,10.8,11.7,11.1c3.6,2.7,6.9,4,10.1,4c5.5,0,9.4-2.7,11.8-8.2c0.3-1.2,0.5-2,0.5-2.6V414c0-4.1-1.2-7.1-3.6-8.9
			c-2.6-1.2-4.9-1.8-6.8-1.8c-3.4,0-5.8,2-7.4,6c-0.2,0.8-0.3,1.4-0.3,1.9c0,2.8,1.7,4.5,5.2,5c2.3-0.3,3.5-1.5,3.5-3.5
			c0-1.1-0.8-1.7-2.4-1.9c-1.3,0.1-1.9,0.6-1.9,1.6c0,0.1,0.2,0.5,0.6,1.1l-0.3,0.2c-1.1-0.8-1.6-1.6-1.6-2.4
			c0.3-1.4,1.1-2.2,2.4-2.4h1.4c0.9,0,1.6,0.2,2.1,0.5l-0.2-1.6v-1c0-0.2,0.1-0.3,0.3-0.3h0.5c1.4,0.9,2.1,2.6,2.1,5
			c-0.1,0-0.2,0.1-0.2,0.2h1.6c1,0,1.8,1.2,2.2,3.5H547c-0.6-0.8-1.3-1.2-2.2-1.5c-0.7,0-1.4,0.6-2.4,1.8v0.3h0.6
			c1.3,0,2.1,0.9,2.4,2.6v0.3c0,1.5-1.1,2.8-3.2,3.9v-0.2c0.8-0.9,1.3-1.6,1.3-2.1v-0.6c0-1.4-0.9-2.2-2.8-2.4l-1.1,0.2
			c0.4,1.8,0.6,2.9,0.6,3.4v0.2c0,1.3-0.9,2.2-2.7,2.7h-1.3v-0.3c1.2,0,1.7-0.6,1.7-1.9c0-2.3-1.7-3.9-5.2-4.7l-1.3-1
			c-0.3,0.2-0.7,0.3-0.9,0.3l-0.3-0.2c0.2-0.4,0.3-0.8,0.3-1c-0.6-2-0.9-3.2-0.9-3.5c0.2-1.4,0.3-2.3,0.3-2.7
			c-3.5,1.2-5.2,2.8-5.2,4.8c0.1,1,0.6,1.5,1.4,1.5h0.2c0.8,0,1.3-0.4,1.3-1.3c0-0.2-0.1-0.3-0.3-0.3h-0.8l-0.3,0.2l-0.2-0.3
			l1.9-2.3h0.2v0.3c0,0.3,0.3,1.6,0.8,3.9c0,0.2-0.2,0.6-0.5,1v0.2c3.7,0.7,5.5,1.5,5.5,2.3c0.5,0,1,0.9,1.6,2.6
			c-0.4,1.2-1,1.8-1.9,1.8c-0.6,0-1.1-0.3-1.6-0.8v-0.2h0.9c0.1,0,0.3-0.2,0.6-0.6c-0.2-1.2-0.7-1.8-1.4-1.8
			c-0.3,0.8-0.8,1.1-1.4,1.1h-0.2c-0.4,0-1-0.2-1.9-0.6v-0.3h1.1c0.1,0,0.2-0.2,0.5-0.5c0-0.6-1.6-1.3-4.9-2.1
			c-1.7-1.2-2.5-2.4-2.5-3.7V413c0-0.6,0.2-1.6,0.6-2.7h-0.6c-1.5,0-2.2,0.6-2.2,1.9h-0.2c-0.3,0-0.5-0.4-0.6-1.3v-0.3l0.2-0.8
			c-0.7,0-2.5-1.6-5.5-4.7c-2.1-1.7-3.9-2.7-5.4-3.2v-0.3h0.3c1.1,0,2.4,0.3,3.9,0.8c0-0.4,0.6-0.7,1.9-1v0.2l-0.6,0.8
			c0,0.5,0.6,1.1,1.7,1.9c0.5-1.7,1.7-2.6,3.8-2.6c0.5,0,2.4,0.6,5.7,1.9h0.3c0.6,0,0.9-0.2,1.1-0.6c0-0.5-0.3-0.9-0.8-1.3v-0.2h0.8
			c0.7,0,1.3,0.5,1.9,1.5c1.4-0.9,3-1.3,4.6-1.3v0.2c-3.4,2.3-5.2,3.4-5.5,3.4l-1.1,0.2c-0.8,0-1.8-0.1-3.2-0.3
			c-0.5,1-1.1,1.5-1.7,1.5h-1.4c-0.6-0.4-0.9-0.9-0.9-1.3h0.2c0.4,0.3,0.8,0.5,1.1,0.5c0-0.1,0.2-0.3,0.6-0.8v-0.6
			c0-0.4-0.6-0.7-1.7-1c-1,0-1.6,0.7-1.7,2.1v0.2c0,1.3,1.6,2.3,4.7,2.9h0.9c3.3-0.5,6.5-2.1,9.6-5c1.9-1.2,4-1.8,6.3-1.8
			c4.1,0,7.5,1.2,10.3,3.5c2.2,1.3,3.9,1.9,5.4,1.9c2.1,0,3.3-0.7,3.8-2.1v-0.6c-0.2-0.5-0.8-0.8-1.7-0.8c-0.4,0.1-0.7,0.4-0.9,0.8
			v0.3c0,0.2,0.2,0.3,0.5,0.3v0.5h-0.6c-0.4,0-0.9-0.3-1.4-0.8h-1.4c-0.6,0-2.7-1-6.3-2.9v-0.3h0.2c0.8,0,2.1,0.4,3.8,1.3
			c0-0.8,0.6-1.2,1.7-1.3l0.3,0.2c-0.2,0.4-0.3,0.7-0.3,1c0.4,0.3,0.7,0.5,0.9,0.5c2.8-0.9,4.3-1.3,4.6-1.3c1.5,0,2.4,0.6,2.7,1.9
			v0.3h0.2c1.1-0.2,1.6-0.6,1.6-1.5l-0.5-0.8l0.6-0.3c0.8,0.2,1.4,0.5,1.7,1.1c1.7-0.5,3.2-0.8,4.7-0.8h1.1c1.7,0,4.2,0.6,7.4,1.8
			v-0.2c0-1,0.8-1.7,2.5-1.9h0.6v0.2c-0.6,0.7-0.9,1.3-0.9,1.6c0,0.8,0.6,2.1,1.7,3.9h0.2c0-2.3,0.8-3.8,2.5-4.7
			c0.4-0.5,0.9-0.8,1.6-0.8v0.2c-1.3,2-1.9,3.4-1.9,4.2c0,1.6,0.5,4.8,1.4,9.5v1.3c0,2.2-0.6,4.5-1.9,6.9h0.2
			c1.5,0.4,2.2,1.2,2.2,2.3c0,0.8-0.3,1.4-0.8,1.8h-0.2l0.2-0.8c0-0.7-0.5-1.2-1.6-1.5l-7.4,2.4c-0.3,0-0.7,0.1-1.3,0.2
			c-2.8,0-6.7-1.5-11.7-4.4c-2.2-0.5-3.7-0.8-4.4-0.8h-1.7c-2,0.3-3,1-3,2.3v0.2c0.1,0.9,0.4,1.3,1.1,1.3c0.7,0,1.1-0.4,1.1-1.1
			c0-0.2-0.3-0.3-0.8-0.3v-0.2c0-0.3,0.5-0.5,1.4-0.6c0.2,0,0.7,0.3,1.4,1c0.4-0.2,1.2-0.4,2.4-0.5c1.7,0,4.2,1,7.4,2.9l0.6,0.2v0.3
			c-2.9-0.3-4.9-0.7-5.8-1.1v0.2c-0.2,0.6-0.8,1-1.7,1h-0.2v-0.2l0.3-0.5v-0.5c0-0.2-0.2-0.3-0.5-0.5h-0.5c-0.4,0-1.6,0.4-3.6,1.3
			c-0.4,0.1-0.9,0.2-1.4,0.2h-0.6c-1.6-0.3-2.4-0.8-2.4-1.5h-0.2c-1.3,1-2.7,1.5-4.3,1.5H548V428c1.5-1,3.4-2.8,5.7-5.3
			c1.1-0.8,1.8-1.1,2.1-1.1c-0.4-0.6-0.6-1.1-0.6-1.5c0.3-0.9,0.5-1.3,0.6-1.3c0.8,1.5,2,2.3,3.6,2.3c-1.2-1.6-1.7-3.1-1.7-4.5
			c0-1.8,2.3-3.6,6.8-5.5l0.6-1.1c-0.2-0.5-0.5-0.8-0.9-0.8v-0.3h1.4c0.8,0,1.3,0.5,1.3,1.6c1.6-0.2,2.4-0.8,2.4-1.6
			c0-0.5-0.2-0.8-0.6-0.8v-0.3h0.6c1.2,0.2,1.7,0.8,1.7,1.6v0.5c0,1.4-2.5,2.6-7.4,3.5v0.2c0.9,0.5,1.4,1,1.4,1.8
			c-0.7,2-1.1,3.3-1.1,3.9c0.1,0.2,0.2,0.4,0.2,0.5c-0.8,0-1.3-0.5-1.4-1.6v-0.2c0-0.5,0.1-1,0.2-1.8c-0.2-0.5-0.6-0.8-1.3-0.8h-0.3
			c-0.7,0.4-1.1,1.1-1.1,2.1c0,2,1.8,3.7,5.5,5.2l-0.2-0.8v-1.1c0-1.3,0.5-3.1,1.6-5.5c-0.1-0.5-0.2-0.8-0.2-1.1
			c0.5,0,1.1,0.3,1.6,0.8c2.3-0.8,3.8-2.2,4.7-4.2l0.2-0.8v-1.1l-0.2-0.3l0.3-0.2c0.9,1.2,1.4,2.2,1.4,3.1c0,0.9-0.6,2-1.7,3.2v0.2
			h2.5c1.2,0,1.9-0.9,2.2-2.7c0-0.5-0.2-1.1-0.6-1.9h0.2c1.3,1.2,1.9,2.3,1.9,3.2v0.8c0,0.5-0.3,1.1-0.9,1.9v0.2
			c0.8,1,1.3,1.9,1.3,2.7v1.3c-0.2,1.2-0.4,1.8-0.8,1.8c-0.5-0.6-0.9-1.4-1.3-2.4h-0.3c-0.5,2-1.6,3.1-3.3,3.1h-0.6
			c-1.7-0.2-2.5-0.9-2.5-2.1c0-0.9,0.4-1.5,1.1-1.9h0.2c-0.1,0.5-0.2,0.8-0.3,0.8c0,0.8,0.6,1.2,1.7,1.3c0.7,0,1.3-0.4,1.7-1.3
			c-0.2-2.1-1.1-3.2-2.8-3.2h-1.6c-1.4,0-2.4,0.9-2.8,2.6c-0.2,0.5-0.3,1.2-0.3,2.3c0,3,2.1,4.8,6.3,5.3h1.4c3.6,0,6.3-2,8.2-6.1
			c0.4-1.3,0.6-2.3,0.6-3.1v-1.3c-1.1-4.4-2.8-7.5-5.2-9.3c-3.6-1.8-6.6-2.7-9-2.7c-6.7,0-13.1,5.7-19.1,17.1
			c-3.5,4.9-7.6,7.4-12.5,7.4c-5.4,0-10.4-2.5-15.2-7.4c-3.3-2.9-7.3-7.1-12.2-12.6c-3.8-2.9-7.1-4.4-9.9-4.4h-0.2
			c-6,0-9.9,2.7-11.7,8.1c-0.3,2-0.5,3.2-0.5,3.7c0,5,2.5,8.5,7.6,10.5l1.6,0.2h2.2c2.4,0,4.3-1.5,5.7-4.4c0.2-0.4,0.3-0.8,0.3-1.3
			c0-2.4-1.7-3.8-5.1-4.2c-1.9,0.3-2.8,1.1-2.8,2.3c0,1.3,0.8,2,2.4,2.3c1.1,0,1.7-0.7,1.9-2.1c-0.1,0-0.2-0.1-0.2-0.2h0.2
			c0.3,0,0.5,0.6,0.6,1.8v0.2c-0.3,1.4-1.2,2.1-2.7,2.1H500c-0.6,0-1.4-0.3-2.4-1v0.2l0.2,1.1l-0.3,0.2c-0.7,0-1.3-0.8-1.9-2.4v-1.3
			h-0.9c-1.8,0-2.8-1.2-3.2-3.7v-0.3h0.3c0.3,1.6,1.1,2.4,2.4,2.4h0.2c0.3,0,1.1-0.4,2.4-1.1v-0.3h-0.8c-2.3-0.4-3.5-1.6-3.5-3.5
			c0-1.2,0.7-2.4,2.1-3.7v0.2c-0.3,1-0.5,1.8-0.5,2.4v0.5c0,1.5,1.1,2.3,3.2,2.3h0.6l0.8-0.2c-1.1-1.2-1.6-2.3-1.6-3.2V410
			c0-1.6,1.4-2.8,4.1-3.4v0.2c-1.5,1.1-2.2,2-2.2,2.9c0,2,1.7,3.8,5.2,5.3l1.7,1.3c0.4-0.4,1-0.6,1.7-0.6c0.2,0.1,0.4,0.2,0.5,0.2
			l-0.8,1v0.5l1.1,3.5c0,0.5-0.2,1.2-0.6,1.9h0.2c3.5-1.7,5.2-3.3,5.2-4.8c0-0.8-0.6-1.2-1.7-1.3c-0.3,0-0.6,0.4-0.8,1.1
			c0.2,0.3,0.3,0.7,0.3,1c0,0.5-0.3,1-0.9,1.5c0-0.3-0.3-1.1-0.9-2.4v-0.5c0-0.4,0.3-1.1,0.9-1.9v-0.2c-5.7-1.6-8.5-3.6-8.5-6
			c0.4-1.2,1.1-1.8,2.2-1.8h0.9v0.3c-1.1,0-1.6,0.5-1.6,1.5c0.6,1.4,1.3,2.1,2.2,2.1v-0.2c0-1.1,0.5-1.6,1.6-1.6h0.5
			c0.3,0,0.9,0.3,1.9,0.8v0.3h-1.3c-0.2,0-0.3,0.2-0.5,0.6c0,0.7,2.2,2,6.5,3.9c0.7,1,1.1,1.8,1.1,2.6v0.8c0,0.5-0.4,1.2-1.1,2.3
			h0.5c2,0,3-0.6,3-1.8h0.2c0.4,0.2,0.6,0.5,0.6,1.1l-0.2,0.8c1.2,0.1,3.3,1.9,6.3,5.2c1.3,1.1,2.3,1.6,2.8,1.6v0.3h-0.9
			c-1.5,0-3.1-0.7-4.9-2.1c0,0.9-0.7,1.5-2.2,1.9h-1.3c-2.2-0.8-3.4-1.1-3.6-1.1h-1.3c-0.2,0-0.3,0.2-0.5,0.5l0.5,0.8v0.2h-0.8
			c-0.6,0-1.1-0.4-1.4-1.1c-1.9,0.8-3.9,1.1-5.8,1.1v-0.3c4-2,6.8-3.1,8.2-3.1h0.3c0.5,0,1.2,0.1,1.9,0.3c0-0.7,0.5-1.1,1.4-1.3
			c0.7,0.1,1.1,0.4,1.1,0.6c-0.6,0-0.9,0.3-0.9,1c0.3,0.5,0.7,0.8,1.3,0.8c0.7-0.3,1.1-0.6,1.3-1v-0.6c-0.3-1.4-1.2-2.1-2.7-2.1H515
			c-2.3,0-6.6,1.7-12.8,5.2c-0.8,0.2-1.7,0.3-2.7,0.3h-0.8c-1.1,0-4.5-0.8-10.3-2.4c-1.1,0-1.6,0.5-1.6,1.6h-0.3v-1.1
			c0-1.3,1-2,3-2.3c-0.5-1-1.1-1.5-1.6-1.5c-0.8,0.2-1.2,0.3-1.3,0.3v-0.5c0.4-0.6,0.9-1,1.6-1c-0.9-1.6-1.4-3.4-1.4-5.3
			c0-2.3,0.6-5.2,1.7-8.9v-1.6c-0.2-2.1-0.7-3.3-1.4-3.4v-0.3c1.8,0,2.9,1.2,3.5,3.7c1.3-0.6,1.9-1.3,1.9-2.1v-0.2
			c0-0.4-0.3-1-0.9-1.6C491.8,401.5,492,401.4,492.1,401.4z M499.2,430.1c2,0,4.5,1,7.6,2.9c3.4,1.9,6.4,2.9,9,2.9h0.5
			c2.1,0,3.2-0.9,3.2-2.6c-0.3-0.8-0.8-1.1-1.6-1.1c-0.6,0-0.9,0.4-0.9,1.1v0.2c0,0.2,0.3,0.4,0.9,0.5c0,0.2-0.4,0.5-1.3,0.6
			c-0.8-0.2-1.3-0.7-1.3-1.3l-2.1,0.3c-1.7,0-4.5-1.1-8.4-3.4v-0.2h0.2c1.8,0,3.8,0.4,5.8,1.3c0-0.8,0.6-1.2,1.7-1.3h0.2
			c0.2,0,0.3,0.1,0.3,0.3c-0.2,0-0.4,0.2-0.6,0.6v0.2c0.1,0.3,0.4,0.5,0.9,0.5c1,0,2.2-0.3,3.6-1c0.4-0.1,0.9-0.2,1.4-0.2h0.3
			c1.3,0,2.1,0.6,2.5,1.9c1.9-1.4,3.6-2.1,5.1-2.1h0.9v0.3c-1.2,0.1-3.1,1.6-5.7,4.4c-1.5,1.3-2.8,2.1-3.8,2.4
			c0.2,0.3,0.3,0.7,0.3,1c-0.2,0.6-0.4,1-0.6,1h-0.3c0-1.3-1.2-1.9-3.5-1.9c0.8,1.1,1.3,2.1,1.3,3.1c-0.6,2-1.3,3.1-2.2,3.1
			c-3.7,1.7-5.5,2.8-5.5,3.4v0.3l0.5,0.3h1.3v0.2c0,0.3-0.7,0.7-2.2,1.1c-1.2-0.2-1.7-0.8-1.7-1.8h-0.2c-1.4,0.3-2.1,1-2.1,2.1
			c0,0.9,0.5,1.3,1.6,1.3v0.3h-0.9c-1.5-0.1-2.2-0.9-2.2-2.3c0-1.8,2.8-3.7,8.5-5.5c-0.5-0.8-0.8-1.4-0.8-1.8v-0.8
			c0.5-1.1,0.8-1.9,0.8-2.3h0.2c0.5,0.3,0.8,0.7,0.8,1.1l-0.2,1.9l0.5,0.3h0.6c0.6,0,1.1-0.4,1.4-1.1c0-1.2-1.3-2.6-3.8-4.2
			l-1.6-0.8v0.2c0.4,0.8,0.6,1.5,0.6,1.9l-1.3,3.4c0.1,0.9,0.4,1.3,0.8,1.3v0.3h-0.9c-0.4,0-0.8-0.2-1.3-0.6
			c-0.4,0.4-2.4,1.7-5.8,3.7c-0.7,1.2-1.1,2.1-1.1,2.9c0,0.9,0.7,1.8,2.2,2.9v0.2c-2.8-0.6-4.3-1.9-4.3-3.9c0.5-2.5,1.2-3.7,1.9-3.7
			V444l-0.8-0.2h-0.9c-2,0.2-3,0.9-3,2.1v1.1c0,0.2,0.2,0.9,0.5,2.1c-1.4-1.4-2.1-2.7-2.1-3.7c0-2.1,1.4-3.4,4.1-3.7h0.3v-0.2
			c-1.3-0.9-2.3-1.3-3-1.3c-1.4,0.7-2.1,1.6-2.1,2.7h-0.3v-0.2c0.3-2.7,1.3-4,3-4h1.3v-1.5c0-0.7,0.5-1.5,1.6-2.3h0.2
			c0.2,0,0.3,0.5,0.3,1.5c0.8-0.6,1.6-1,2.2-1h0.2c2,0,3,0.6,3,1.9v0.2c0,0.5-0.1,1.2-0.3,1.9h-0.3V439c0-0.9-0.7-1.5-2.1-1.6
			c-1.2,0-1.9,0.8-2.2,2.4c0.6,1.4,1.6,2.1,3.2,2.1c3.3-0.4,4.9-1.9,4.9-4.5c-0.5-1.7-1.3-3-2.4-3.9c-1.5-1.1-3.1-1.6-4.9-1.6
			c-5,0-8.3,2.8-10.1,8.5v3.1c0,4.7,2.4,8.1,7.1,10.2c1.2,0.5,2.9,0.8,5.1,0.8c4.9,0,10.2-3.7,16-11c8.5-8.5,14.5-12.7,18.2-12.7
			c0.6-0.2,1.8-0.3,3.5-0.3c6.1,0,11.2,4.4,15.5,13.2c5.1,7.6,10,11.4,14.7,11.4h2.4c2.4-0.2,5.2-1.1,8.2-2.9
			c2.3-2.2,3.9-5.2,4.9-9.2v-0.2c0-4.2-1.8-7.3-5.4-9.2c-1.3-0.6-2.6-1-4.1-1c-4.8,0-7.3,1.9-7.3,5.8c0.3,2.9,1.4,4.4,3.3,4.4h1.1
			c2.1,0,3.2-0.9,3.2-2.7V440c0-1.1-0.6-1.6-1.9-1.6c-0.9,0-1.4,0.4-1.4,1.3l0.2,0.8c-0.3,0-0.7-0.4-1.1-1.1v-1c0-1.3,1-1.9,3-1.9
			c1.6,0,2.8,1,3.5,3.1v0.2h0.2c0.3-1,0.8-1.9,1.6-2.6c0.4,0.8,0.6,1.6,0.6,2.6v0.2c0,0.9-0.5,2-1.4,3.2v0.3c0.4,0,0.7,0.5,0.9,1.6
			v0.6c0,1.1-0.6,2.3-1.9,3.4H577c0.4-0.8,0.6-1.5,0.6-2.1c0-1.7-1-2.6-3-2.6h-1.4c-0.2,0-0.3,0.1-0.3,0.3c1.2,0.9,1.7,2,1.7,3.4
			c-0.2,1-0.7,1.9-1.6,2.7c0-0.1-0.1-0.2-0.2-0.2l0.2-0.8v-0.3c0-2.1-1.6-3.9-4.9-5.3c-0.5,0.5-1.1,0.8-1.7,0.8v-0.2
			c0.2-0.3,0.3-0.7,0.3-1v-0.2c-1.1-2.4-1.6-4.4-1.6-5.8c0.1-0.6,0.2-1.1,0.2-1.5c-3.6,1.4-5.4,3-5.4,4.7v1c0,0.6,0.4,1.2,1.3,1.6
			c0.8-0.3,1.3-0.6,1.3-0.8c-0.1-1.1-0.2-1.8-0.2-1.9c0-0.8,0.4-1.3,1.3-1.8c0,0.3,0.4,1.9,1.1,4.8c0,0.4-0.4,0.8-1.3,1.3v0.3
			c4.8,0.9,7.3,2.2,7.3,3.9v0.2c0,0.9-0.7,1.5-2.1,1.6h-0.3v-0.2c0-0.1,0.2-0.3,0.6-0.8v-0.2c0-0.7-0.7-1.3-2.2-1.8
			c-0.3,1.2-0.8,1.8-1.6,1.8h-0.6l-0.8-0.2v-0.3c0.6,0,0.9-0.2,0.9-0.5V449c0-1-1.2-1.9-3.6-2.6c-2.3-1.6-3.5-2.8-3.5-3.7v-1.3
			c0-0.9,0.5-2.1,1.6-3.5v-0.2c-1.6,0-2.7,0.8-3.3,2.3h-0.5c0-0.1-0.1-0.5-0.3-1.3v-0.2c0-0.4,0.2-0.8,0.6-1.3
			c-0.8,0-2.9-1.8-6.3-5.5c-0.2,0-0.8-0.4-1.6-1.1l0.3-0.2c1.5,0,2.9,0.5,4.4,1.6h0.2c0-0.8,0.9-1.3,2.8-1.5c1.1,0,2.7,0.5,4.7,1.5
			h0.9c0.2,0,0.3-0.2,0.5-0.5v-0.5l-0.3-0.5v-0.2c1.3,0.2,1.9,0.6,1.9,1.1h0.2c1.2-0.4,3-0.8,5.5-1v0.3c-2.9,1.5-4.8,2.4-5.8,2.7
			c-0.9,0.1-1.6,0.2-2.1,0.2c-0.8,0-1.6-0.2-2.5-0.5c-0.4,0.6-0.9,1-1.6,1c-0.7-0.2-1.1-0.4-1.1-0.6v-0.2c0.5,0,0.8-0.1,0.8-0.3
			c0-0.8-0.4-1.1-1.3-1.1c-0.6,0.2-0.9,0.6-0.9,1.3v0.3c0,1.2,1.2,1.9,3.6,2.3c3.1,0,7.1-1.3,11.8-4c2-0.8,3.7-1.1,5.2-1.1
			c1.2,0,3.9,0.9,8.2,2.6h0.8c0.9,0,1.4-0.7,1.4-2.1c0.5,0.4,0.8,1,0.8,1.8c0,1.2-0.8,1.9-2.5,2.3c1.3,1.9,1.9,4.2,1.9,6.8v1
			c0,0.7-0.4,3.1-1.3,7.3c-0.1,0.9-0.2,1.7-0.2,2.4v0.3c0,0.7,0.6,2.1,1.7,4.4h-0.2c-2.5-1.3-3.8-2.8-3.8-4.7v-0.8
			c-0.9,0.8-1.6,2-1.9,3.4v0.5c0,0.4,0.3,1,0.9,1.6v0.2h-0.5c-1.9-0.3-2.8-1-2.8-2.3c-2.8,1.2-5.4,1.8-7.9,1.8
			c-1.4,0-3.3-0.3-5.5-0.8v0.2c0,0.3-0.5,0.6-1.4,0.8h-0.5c-0.2,0-0.3-0.1-0.3-0.3c0.2,0,0.3-0.2,0.5-0.5v-0.8
			c-0.2-0.5-0.7-0.8-1.6-0.8c0,1.1-0.9,1.8-2.7,2.1c-0.4,0-2-0.4-4.9-1.3c-0.2,0-0.4,0.2-0.8,0.6c0.2,0.4,0.3,0.6,0.3,0.8l-0.3,0.2
			h-0.2c-0.7,0-1.2-0.4-1.6-1.3c-0.9,0.5-2.2,1-3.8,1.3V457c3.2-2,5.3-3.1,6.2-3.1h1.6c0.6-0.5,1-0.8,1.4-0.8h0.3
			c0.2,0,0.3,0.1,0.3,0.3c-0.2,0-0.3,0.2-0.5,0.5v0.5c0.2,0.4,0.6,0.6,1.1,0.6h0.3c0.8,0,1.3-0.4,1.3-1.3c0-1.2-1.2-1.9-3.5-2.3
			h-0.6c-1.6,0-4.6,1.5-9.2,4.4c-1.4,0.6-3.4,1-6.2,1c-3.4,0-6.1-1.1-8.2-3.4c-2.8-2.2-5.6-3.3-8.4-3.5h-0.3
			c-3.3,0.7-4.9,1.6-4.9,2.9c0.1,1.5,0.8,2.3,2.1,2.3c1.1-0.2,1.6-0.7,1.6-1.5c-0.2-0.5-0.4-0.8-0.6-0.8h-0.6l-0.5,0.3h-0.2V453
			c0.2-0.5,0.5-0.9,0.9-1.1h1.3c0.8,0,1.4,0.5,1.7,1.5l1.6-0.2h2.5c0.5,0,1.8,0.8,3.9,2.4c1.1,0.6,1.7,1,1.9,1v0.3h-0.2
			c-1.1,0-2.7-0.4-4.7-1.3c0,0.4-0.4,0.9-1.1,1.3h-1.3v-0.2c0.5-0.4,0.8-0.9,0.8-1.3c-0.4-0.4-0.9-0.6-1.3-0.6c-0.2,0-2,0.6-5.4,1.9
			h-1.3c-2-0.5-3-1.3-3-2.6h-0.2c-1.1,0.6-1.6,1.3-1.6,2.1c0,0.2,0.2,0.3,0.5,0.3v0.3h-0.2c-0.7,0-1.2-0.3-1.7-0.8
			c-1.4,0.4-2.8,0.7-4.4,0.8v-0.3c2.1-0.4,5.4-2.9,9.9-7.4l1.3-0.5l-0.2-0.8c0.1-1.1,0.3-1.6,0.6-1.6h0.2c0,1.3,0.7,1.9,2.2,1.9h0.6
			c-0.4-1.2-0.6-2.1-0.6-2.7v-0.2c0-2.3,1.7-3.8,5.1-4.5c0.9,0,1.7-0.4,2.4-1.1v-0.3c0-0.2-0.1-0.3-0.3-0.3h-1.1v-0.2
			c0-0.3,0.5-0.6,1.4-0.8h0.6c0.7,0,1.1,0.4,1.4,1.3c0.8-0.3,1.3-1,1.3-2.1c0-0.3-0.4-0.5-1.3-0.6c0,0.1-0.1,0.2-0.2,0.2v-0.2
			c0-0.4,0.6-0.7,1.9-0.8c0.9,0.4,1.4,0.9,1.4,1.8v0.2c-1,2.5-2.2,3.7-3.6,3.7c0,0.2-1.2,0.5-3.5,1v0.2c0.3,0.1,0.5,0.4,0.5,1v0.2
			c-0.5,2-0.8,3.3-0.8,3.9h-0.2c-1.3-1.3-1.9-2.1-1.9-2.4c0.1,0,0.2-0.1,0.2-0.2c0.4,0.2,0.8,0.3,1.3,0.3l0.2-0.3v-0.2
			c0-0.9-0.5-1.3-1.6-1.3c-0.8,0.3-1.3,0.8-1.3,1.6v0.2c0,1.8,1.8,3.4,5.4,4.7v-0.2c-0.3-0.9-0.5-1.8-0.5-2.7c0-0.3,0.3-1.4,0.9-3.2
			v-0.2l-0.2-1.1h0.3c0.3,0,0.6,0.1,0.9,0.3c0-0.3,1.7-1.2,5.1-2.6c0.8-0.8,1.3-1.7,1.3-2.6v-1c0-1-0.5-1.5-1.6-1.5V435h0.5
			c1.7,0,2.8,0.7,3.3,2.1c0,0.4,0.1,0.6,0.2,0.8c0,0.3-0.3,1.4-0.8,3.4l1.4,0.2c1.8-0.3,2.7-1.2,2.7-2.6v-0.2c0-0.5-0.4-1.3-1.3-2.4
			h0.2c2.1,1.4,3.2,2.6,3.2,3.5c0,1.8-1.1,2.9-3.3,3.2v0.2c0.8,1.2,1.6,1.8,2.4,1.8c0.7,0,1.4-0.4,2.2-1.3v0.3
			c-0.4,2.1-1.1,3.2-2.2,3.2h-1.3v0.2c0,2.3-0.7,3.9-2.1,4.8h-0.5c-0.2,0-0.3-0.1-0.3-0.3v-1.3l0.2-1.1h-0.2
			c-1.1,0.3-1.9,0.5-2.7,0.5c-2-0.3-3-1.3-3-3.1c0-0.6,0.6-1.2,1.7-1.8v0.2l-0.3,0.5v1.1c0.3,0.6,0.9,1,1.7,1h0.3
			c1.4-0.3,2.1-0.9,2.1-1.9v-0.5c0-1.3-0.8-2.3-2.5-2.9h-1.7c-2.8,0.7-4.3,2-4.3,3.9c-0.1,0-0.2,0.3-0.2,0.8c0,3.8,2.1,6.4,6.2,7.9
			c0.6,0,1.2,0.1,1.7,0.2c3.2,0,6-1.1,8.4-3.2c1.4-2.8,2.1-5.6,2.1-8.2c0-4.7-2.6-8.3-7.9-10.8c-1.8-0.5-3.4-0.8-4.6-0.8
			c-5.8,0-13.3,5.2-22.3,15.6c-5,5.8-10.3,8.7-15.8,8.7c-1.4,0-3.1-0.4-5.1-1.3c-0.7,1-1.4,1.5-2.2,1.5h-0.8v-0.2
			c0.6-0.6,0.9-1.2,0.9-1.6v-0.3c-0.8-1.2-1.4-1.8-1.9-1.8c-0.7,2.4-1.8,3.5-3.3,3.5H487v-0.2c0.9-0.8,1.4-2.3,1.4-4.5
			c0-0.5-0.4-2.2-1.3-5.2c-0.3-2-0.5-3.4-0.5-4.2v-0.5c0-1.2,0.5-2.8,1.4-5H488c-0.9-0.2-1.4-0.7-1.4-1.5h0.2
			c0.4,0.2,0.8,0.3,1.3,0.3h0.2c0.6-0.3,1.1-0.8,1.4-1.4c-2,0-3-0.8-3-2.4v-1h0.3c0,1.1,0.5,1.6,1.6,1.6
			C494.7,430.9,498.3,430.1,499.2,430.1z M550.8,440.6c0.2,0.8,0.3,1.6,0.3,2.3v1.9c0,2-0.7,4.6-2.1,7.7c2-1.5,3.8-2.3,5.5-2.3
			c0.6,0,1.7,0.2,3.2,0.5c-2.6-3.2-4.8-6.6-6.8-10.2H550.8z M549.2,406.1v0.2c1.4,2.7,2.1,5.6,2.1,8.9c0,1.2-0.1,2.1-0.3,2.7v0.2
			h0.2c0.1-0.9,2.4-4.2,6.9-10h-0.2c-1.2,0.3-2.3,0.5-3.2,0.5C553,408.5,551.2,407.7,549.2,406.1z M551.8,443.5h0.3
			c0.6,1.3,1.9,3.4,4.1,6.1c-0.1,0-0.2,0.1-0.2,0.2c-0.1-0.1-0.8-0.2-2.1-0.3c-1.5,0.2-2.5,0.5-3,1v-0.2
			C551.5,448.4,551.8,446.2,551.8,443.5z M551.1,408.4c1,0.6,2.1,0.9,3.3,1c0.7-0.1,1.3-0.2,1.7-0.2v0.2c-2.6,3.5-3.9,5.5-3.9,5.8
			h-0.3V415C551.9,412.5,551.7,410.3,551.1,408.4z"/>
	</g>
	<g id="XMLID_54_">
		<path id="XMLID_55_" class="st19" d="M617.2,401.4c0.9,0,1.8,0.5,2.7,1.5c2-0.8,3.8-1.1,5.2-1.1c5.6,0,10.9,3.2,16,9.5
			c6.7,7.1,10.6,10.8,11.7,11.1c3.6,2.7,6.9,4,10.1,4c5.5,0,9.4-2.7,11.8-8.2c0.3-1.2,0.5-2,0.5-2.6V414c0-4.1-1.2-7.1-3.6-8.9
			c-2.6-1.2-4.9-1.8-6.8-1.8c-3.4,0-5.8,2-7.4,6c-0.2,0.8-0.3,1.4-0.3,1.9c0,2.8,1.7,4.5,5.2,5c2.3-0.3,3.5-1.5,3.5-3.5
			c0-1.1-0.8-1.7-2.4-1.9c-1.3,0.1-1.9,0.6-1.9,1.6c0,0.1,0.2,0.5,0.6,1.1l-0.3,0.2c-1.1-0.8-1.6-1.6-1.6-2.4
			c0.3-1.4,1.1-2.2,2.4-2.4h1.4c0.9,0,1.6,0.2,2.1,0.5l-0.2-1.6v-1c0-0.2,0.1-0.3,0.3-0.3h0.5c1.4,0.9,2.1,2.6,2.1,5
			c-0.1,0-0.2,0.1-0.2,0.2h1.6c1,0,1.8,1.2,2.2,3.5h-0.2c-0.6-0.8-1.3-1.2-2.2-1.5c-0.7,0-1.4,0.6-2.4,1.8v0.3h0.6
			c1.3,0,2.1,0.9,2.4,2.6v0.3c0,1.5-1.1,2.8-3.2,3.9v-0.2c0.8-0.9,1.3-1.6,1.3-2.1v-0.6c0-1.4-0.9-2.2-2.8-2.4l-1.1,0.2
			c0.4,1.8,0.6,2.9,0.6,3.4v0.2c0,1.3-0.9,2.2-2.7,2.7h-1.3v-0.3c1.2,0,1.7-0.6,1.7-1.9c0-2.3-1.7-3.9-5.2-4.7l-1.3-1
			c-0.3,0.2-0.7,0.3-0.9,0.3l-0.3-0.2c0.2-0.4,0.3-0.8,0.3-1c-0.6-2-0.9-3.2-0.9-3.5c0.2-1.4,0.3-2.3,0.3-2.7
			c-3.5,1.2-5.2,2.8-5.2,4.8c0.1,1,0.6,1.5,1.4,1.5h0.2c0.8,0,1.3-0.4,1.3-1.3c0-0.2-0.1-0.3-0.3-0.3h-0.8l-0.3,0.2l-0.2-0.3
			l1.9-2.3h0.2v0.3c0,0.3,0.3,1.6,0.8,3.9c0,0.2-0.2,0.6-0.5,1v0.2c3.7,0.7,5.5,1.5,5.5,2.3c0.5,0,1,0.9,1.6,2.6
			c-0.4,1.2-1,1.8-1.9,1.8c-0.6,0-1.1-0.3-1.6-0.8v-0.2h0.9c0.1,0,0.3-0.2,0.6-0.6c-0.2-1.2-0.7-1.8-1.4-1.8
			c-0.3,0.8-0.8,1.1-1.4,1.1h-0.2c-0.4,0-1-0.2-1.9-0.6v-0.3h1.1c0.1,0,0.2-0.2,0.5-0.5c0-0.6-1.6-1.3-4.9-2.1
			c-1.7-1.2-2.5-2.4-2.5-3.7V413c0-0.6,0.2-1.6,0.6-2.7H648c-1.5,0-2.2,0.6-2.2,1.9h-0.2c-0.3,0-0.5-0.4-0.6-1.3v-0.3l0.2-0.8
			c-0.7,0-2.5-1.6-5.5-4.7c-2.1-1.7-3.9-2.7-5.4-3.2v-0.3h0.3c1.1,0,2.4,0.3,3.9,0.8c0-0.4,0.6-0.7,1.9-1v0.2l-0.6,0.8
			c0,0.5,0.6,1.1,1.7,1.9c0.5-1.7,1.7-2.6,3.8-2.6c0.5,0,2.4,0.6,5.7,1.9h0.3c0.6,0,0.9-0.2,1.1-0.6c0-0.5-0.3-0.9-0.8-1.3v-0.2h0.8
			c0.7,0,1.3,0.5,1.9,1.5c1.4-0.9,3-1.3,4.6-1.3v0.2c-3.4,2.3-5.2,3.4-5.5,3.4l-1.1,0.2c-0.8,0-1.8-0.1-3.2-0.3
			c-0.5,1-1.1,1.5-1.7,1.5h-1.4c-0.6-0.4-0.9-0.9-0.9-1.3h0.2c0.4,0.3,0.8,0.5,1.1,0.5c0-0.1,0.2-0.3,0.6-0.8v-0.6
			c0-0.4-0.6-0.7-1.7-1c-1,0-1.6,0.7-1.7,2.1v0.2c0,1.3,1.6,2.3,4.7,2.9h0.9c3.3-0.5,6.5-2.1,9.6-5c1.9-1.2,4-1.8,6.3-1.8
			c4.1,0,7.5,1.2,10.3,3.5c2.2,1.3,3.9,1.9,5.4,1.9c2.1,0,3.3-0.7,3.8-2.1v-0.6c-0.2-0.5-0.8-0.8-1.7-0.8c-0.4,0.1-0.7,0.4-0.9,0.8
			v0.3c0,0.2,0.2,0.3,0.5,0.3v0.5h-0.6c-0.4,0-0.9-0.3-1.4-0.8h-1.4c-0.6,0-2.7-1-6.3-2.9v-0.3h0.2c0.8,0,2.1,0.4,3.8,1.3
			c0-0.8,0.6-1.2,1.7-1.3l0.3,0.2c-0.2,0.4-0.3,0.7-0.3,1c0.4,0.3,0.7,0.5,0.9,0.5c2.8-0.9,4.3-1.3,4.6-1.3c1.5,0,2.4,0.6,2.7,1.9
			v0.3h0.2c1.1-0.2,1.6-0.6,1.6-1.5l-0.5-0.8l0.6-0.3c0.8,0.2,1.4,0.5,1.7,1.1c1.7-0.5,3.2-0.8,4.7-0.8h1.1c1.7,0,4.2,0.6,7.4,1.8
			v-0.2c0-1,0.8-1.7,2.5-1.9h0.6v0.2c-0.6,0.7-0.9,1.3-0.9,1.6c0,0.8,0.6,2.1,1.7,3.9h0.2c0-2.3,0.8-3.8,2.5-4.7
			c0.4-0.5,0.9-0.8,1.6-0.8v0.2c-1.3,2-1.9,3.4-1.9,4.2c0,1.6,0.5,4.8,1.4,9.5v1.3c0,2.2-0.6,4.5-1.9,6.9h0.2
			c1.5,0.4,2.2,1.2,2.2,2.3c0,0.8-0.3,1.4-0.8,1.8h-0.2l0.2-0.8c0-0.7-0.5-1.2-1.6-1.5l-7.4,2.4c-0.3,0-0.7,0.1-1.3,0.2
			c-2.8,0-6.7-1.5-11.7-4.4c-2.2-0.5-3.7-0.8-4.4-0.8h-1.7c-2,0.3-3,1-3,2.3v0.2c0.1,0.9,0.4,1.3,1.1,1.3c0.7,0,1.1-0.4,1.1-1.1
			c0-0.2-0.3-0.3-0.8-0.3v-0.2c0-0.3,0.5-0.5,1.4-0.6c0.2,0,0.7,0.3,1.4,1c0.4-0.2,1.2-0.4,2.4-0.5c1.7,0,4.2,1,7.4,2.9l0.6,0.2v0.3
			c-2.9-0.3-4.9-0.7-5.8-1.1v0.2c-0.2,0.6-0.8,1-1.7,1h-0.2v-0.2l0.3-0.5v-0.5c0-0.2-0.2-0.3-0.5-0.5h-0.5c-0.4,0-1.6,0.4-3.6,1.3
			c-0.4,0.1-0.9,0.2-1.4,0.2h-0.6c-1.6-0.3-2.4-0.8-2.4-1.5h-0.2c-1.3,1-2.7,1.5-4.3,1.5h-0.3V428c1.5-1,3.4-2.8,5.7-5.3
			c1.1-0.8,1.8-1.1,2.1-1.1c-0.4-0.6-0.6-1.1-0.6-1.5c0.3-0.9,0.5-1.3,0.6-1.3c0.8,1.5,2,2.3,3.6,2.3c-1.2-1.6-1.7-3.1-1.7-4.5
			c0-1.8,2.3-3.6,6.8-5.5l0.6-1.1c-0.2-0.5-0.5-0.8-0.9-0.8v-0.3h1.4c0.8,0,1.3,0.5,1.3,1.6c1.6-0.2,2.4-0.8,2.4-1.6
			c0-0.5-0.2-0.8-0.6-0.8v-0.3h0.6c1.2,0.2,1.7,0.8,1.7,1.6v0.5c0,1.4-2.5,2.6-7.4,3.5v0.2c0.9,0.5,1.4,1,1.4,1.8
			c-0.7,2-1.1,3.3-1.1,3.9c0.1,0.2,0.2,0.4,0.2,0.5c-0.8,0-1.3-0.5-1.4-1.6v-0.2c0-0.5,0.1-1,0.2-1.8c-0.2-0.5-0.6-0.8-1.3-0.8h-0.3
			c-0.7,0.4-1.1,1.1-1.1,2.1c0,2,1.8,3.7,5.5,5.2l-0.2-0.8v-1.1c0-1.3,0.5-3.1,1.6-5.5c-0.1-0.5-0.2-0.8-0.2-1.1
			c0.5,0,1.1,0.3,1.6,0.8c2.3-0.8,3.8-2.2,4.7-4.2l0.2-0.8v-1.1l-0.2-0.3l0.3-0.2c0.9,1.2,1.4,2.2,1.4,3.1c0,0.9-0.6,2-1.7,3.2v0.2
			h2.5c1.2,0,1.9-0.9,2.2-2.7c0-0.5-0.2-1.1-0.6-1.9h0.2c1.3,1.2,1.9,2.3,1.9,3.2v0.8c0,0.5-0.3,1.1-0.9,1.9v0.2
			c0.8,1,1.3,1.9,1.3,2.7v1.3c-0.2,1.2-0.4,1.8-0.8,1.8c-0.5-0.6-0.9-1.4-1.3-2.4h-0.3c-0.5,2-1.6,3.1-3.3,3.1h-0.6
			c-1.7-0.2-2.5-0.9-2.5-2.1c0-0.9,0.4-1.5,1.1-1.9h0.2c-0.1,0.5-0.2,0.8-0.3,0.8c0,0.8,0.6,1.2,1.7,1.3c0.7,0,1.3-0.4,1.7-1.3
			c-0.2-2.1-1.1-3.2-2.8-3.2h-1.6c-1.4,0-2.4,0.9-2.8,2.6c-0.2,0.5-0.3,1.2-0.3,2.3c0,3,2.1,4.8,6.3,5.3h1.4c3.6,0,6.3-2,8.2-6.1
			c0.4-1.3,0.6-2.3,0.6-3.1v-1.3c-1.1-4.4-2.8-7.5-5.2-9.3c-3.6-1.8-6.6-2.7-9-2.7c-6.7,0-13.1,5.7-19.1,17.1
			c-3.5,4.9-7.6,7.4-12.5,7.4c-5.4,0-10.4-2.5-15.2-7.4c-3.3-2.9-7.3-7.1-12.2-12.6c-3.8-2.9-7.1-4.4-9.9-4.4H626
			c-6,0-9.9,2.7-11.7,8.1c-0.3,2-0.5,3.2-0.5,3.7c0,5,2.5,8.5,7.6,10.5l1.6,0.2h2.2c2.4,0,4.3-1.5,5.7-4.4c0.2-0.4,0.3-0.8,0.3-1.3
			c0-2.4-1.7-3.8-5.1-4.2c-1.9,0.3-2.8,1.1-2.8,2.3c0,1.3,0.8,2,2.4,2.3c1.1,0,1.7-0.7,1.9-2.1c-0.1,0-0.2-0.1-0.2-0.2h0.2
			c0.3,0,0.5,0.6,0.6,1.8v0.2c-0.3,1.4-1.2,2.1-2.7,2.1h-0.5c-0.6,0-1.4-0.3-2.4-1v0.2l0.2,1.1l-0.3,0.2c-0.7,0-1.3-0.8-1.9-2.4
			v-1.3h-0.9c-1.8,0-2.8-1.2-3.2-3.7v-0.3h0.3c0.3,1.6,1.1,2.4,2.4,2.4h0.2c0.3,0,1.1-0.4,2.4-1.1v-0.3H621
			c-2.3-0.4-3.5-1.6-3.5-3.5c0-1.2,0.7-2.4,2.1-3.7v0.2c-0.3,1-0.5,1.8-0.5,2.4v0.5c0,1.5,1.1,2.3,3.2,2.3h0.6l0.8-0.2
			c-1.1-1.2-1.6-2.3-1.6-3.2V410c0-1.6,1.4-2.8,4.1-3.4v0.2c-1.5,1.1-2.2,2-2.2,2.9c0,2,1.7,3.8,5.2,5.3l1.7,1.3
			c0.4-0.4,1-0.6,1.7-0.6c0.2,0.1,0.4,0.2,0.5,0.2l-0.8,1v0.5l1.1,3.5c0,0.5-0.2,1.2-0.6,1.9h0.2c3.5-1.7,5.2-3.3,5.2-4.8
			c0-0.8-0.6-1.2-1.7-1.3c-0.3,0-0.6,0.4-0.8,1.1c0.2,0.3,0.3,0.7,0.3,1c0,0.5-0.3,1-0.9,1.5c0-0.3-0.3-1.1-0.9-2.4v-0.5
			c0-0.4,0.3-1.1,0.9-1.9v-0.2c-5.7-1.6-8.5-3.6-8.5-6c0.4-1.2,1.1-1.8,2.2-1.8h0.9v0.3c-1.1,0-1.6,0.5-1.6,1.5
			c0.6,1.4,1.3,2.1,2.2,2.1v-0.2c0-1.1,0.5-1.6,1.6-1.6h0.5c0.3,0,0.9,0.3,1.9,0.8v0.3H633c-0.2,0-0.3,0.2-0.5,0.6
			c0,0.7,2.2,2,6.5,3.9c0.7,1,1.1,1.8,1.1,2.6v0.8c0,0.5-0.4,1.2-1.1,2.3h0.5c2,0,3-0.6,3-1.8h0.2c0.4,0.2,0.6,0.5,0.6,1.1l-0.2,0.8
			c1.2,0.1,3.3,1.9,6.3,5.2c1.3,1.1,2.3,1.6,2.8,1.6v0.3h-0.9c-1.5,0-3.1-0.7-4.9-2.1c0,0.9-0.7,1.5-2.2,1.9h-1.3
			c-2.2-0.8-3.4-1.1-3.6-1.1H638c-0.2,0-0.3,0.2-0.5,0.5l0.5,0.8v0.2h-0.8c-0.6,0-1.1-0.4-1.4-1.1c-1.9,0.8-3.9,1.1-5.8,1.1v-0.3
			c4-2,6.8-3.1,8.2-3.1h0.3c0.5,0,1.2,0.1,1.9,0.3c0-0.7,0.5-1.1,1.4-1.3c0.7,0.1,1.1,0.4,1.1,0.6c-0.6,0-0.9,0.3-0.9,1
			c0.3,0.5,0.7,0.8,1.3,0.8c0.7-0.3,1.1-0.6,1.3-1v-0.6c-0.3-1.4-1.2-2.1-2.7-2.1h-1.7c-2.3,0-6.6,1.7-12.8,5.2
			c-0.8,0.2-1.7,0.3-2.7,0.3h-0.8c-1.1,0-4.5-0.8-10.3-2.4c-1.1,0-1.6,0.5-1.6,1.6h-0.3v-1.1c0-1.3,1-2,3-2.3
			c-0.5-1-1.1-1.5-1.6-1.5c-0.8,0.2-1.2,0.3-1.3,0.3v-0.5c0.4-0.6,0.9-1,1.6-1c-0.9-1.6-1.4-3.4-1.4-5.3c0-2.3,0.6-5.2,1.7-8.9v-1.6
			c-0.2-2.1-0.7-3.3-1.4-3.4v-0.3c1.8,0,2.9,1.2,3.5,3.7c1.3-0.6,1.9-1.3,1.9-2.1v-0.2c0-0.4-0.3-1-0.9-1.6
			C616.9,401.5,617.1,401.4,617.2,401.4z M624.3,430.1c2,0,4.5,1,7.6,2.9c3.4,1.9,6.4,2.9,9,2.9h0.5c2.1,0,3.2-0.9,3.2-2.6
			c-0.3-0.8-0.8-1.1-1.6-1.1c-0.6,0-0.9,0.4-0.9,1.1v0.2c0,0.2,0.3,0.4,0.9,0.5c0,0.2-0.4,0.5-1.3,0.6c-0.8-0.2-1.3-0.7-1.3-1.3
			l-2.1,0.3c-1.7,0-4.5-1.1-8.4-3.4v-0.2h0.2c1.8,0,3.8,0.4,5.8,1.3c0-0.8,0.6-1.2,1.7-1.3h0.2c0.2,0,0.3,0.1,0.3,0.3
			c-0.2,0-0.4,0.2-0.6,0.6v0.2c0.1,0.3,0.4,0.5,0.9,0.5c1,0,2.2-0.3,3.6-1c0.4-0.1,0.9-0.2,1.4-0.2h0.3c1.3,0,2.1,0.6,2.5,1.9
			c1.9-1.4,3.6-2.1,5.1-2.1h0.9v0.3c-1.2,0.1-3.1,1.6-5.7,4.4c-1.5,1.3-2.8,2.1-3.8,2.4c0.2,0.3,0.3,0.7,0.3,1c-0.2,0.6-0.4,1-0.6,1
			h-0.3c0-1.3-1.2-1.9-3.5-1.9c0.8,1.1,1.3,2.1,1.3,3.1c-0.6,2-1.3,3.1-2.2,3.1c-3.7,1.7-5.5,2.8-5.5,3.4v0.3l0.5,0.3h1.3v0.2
			c0,0.3-0.7,0.7-2.2,1.1c-1.2-0.2-1.7-0.8-1.7-1.8H630c-1.4,0.3-2.1,1-2.1,2.1c0,0.9,0.5,1.3,1.6,1.3v0.3h-0.9
			c-1.5-0.1-2.2-0.9-2.2-2.3c0-1.8,2.8-3.7,8.5-5.5c-0.5-0.8-0.8-1.4-0.8-1.8v-0.8c0.5-1.1,0.8-1.9,0.8-2.3h0.2
			c0.5,0.3,0.8,0.7,0.8,1.1l-0.2,1.9l0.5,0.3h0.6c0.6,0,1.1-0.4,1.4-1.1c0-1.2-1.3-2.6-3.8-4.2l-1.6-0.8v0.2
			c0.4,0.8,0.6,1.5,0.6,1.9l-1.3,3.4c0.1,0.9,0.4,1.3,0.8,1.3v0.3H632c-0.4,0-0.8-0.2-1.3-0.6c-0.4,0.4-2.4,1.7-5.8,3.7
			c-0.7,1.2-1.1,2.1-1.1,2.9c0,0.9,0.7,1.8,2.2,2.9v0.2c-2.8-0.6-4.3-1.9-4.3-3.9c0.5-2.5,1.2-3.7,1.9-3.7V444l-0.8-0.2h-0.9
			c-2,0.2-3,0.9-3,2.1v1.1c0,0.2,0.2,0.9,0.5,2.1c-1.4-1.4-2.1-2.7-2.1-3.7c0-2.1,1.4-3.4,4.1-3.7h0.3v-0.2c-1.3-0.9-2.3-1.3-3-1.3
			c-1.4,0.7-2.1,1.6-2.1,2.7h-0.3v-0.2c0.3-2.7,1.3-4,3-4h1.3v-1.5c0-0.7,0.5-1.5,1.6-2.3h0.2c0.2,0,0.3,0.5,0.3,1.5
			c0.8-0.6,1.6-1,2.2-1h0.2c2,0,3,0.6,3,1.9v0.2c0,0.5-0.1,1.2-0.3,1.9h-0.3V439c0-0.9-0.7-1.5-2.1-1.6c-1.2,0-1.9,0.8-2.2,2.4
			c0.6,1.4,1.6,2.1,3.2,2.1c3.3-0.4,4.9-1.9,4.9-4.5c-0.5-1.7-1.3-3-2.4-3.9c-1.5-1.1-3.1-1.6-4.9-1.6c-5,0-8.3,2.8-10.1,8.5v3.1
			c0,4.7,2.4,8.1,7.1,10.2c1.2,0.5,2.9,0.8,5.1,0.8c4.9,0,10.2-3.7,16-11c8.5-8.5,14.5-12.7,18.2-12.7c0.6-0.2,1.8-0.3,3.5-0.3
			c6.1,0,11.2,4.4,15.5,13.2c5.1,7.6,10,11.4,14.7,11.4h2.4c2.4-0.2,5.2-1.1,8.2-2.9c2.3-2.2,3.9-5.2,4.9-9.2v-0.2
			c0-4.2-1.8-7.3-5.4-9.2c-1.3-0.6-2.6-1-4.1-1c-4.8,0-7.3,1.9-7.3,5.8c0.3,2.9,1.4,4.4,3.3,4.4h1.1c2.1,0,3.2-0.9,3.2-2.7V440
			c0-1.1-0.6-1.6-1.9-1.6c-0.9,0-1.4,0.4-1.4,1.3l0.2,0.8c-0.3,0-0.7-0.4-1.1-1.1v-1c0-1.3,1-1.9,3-1.9c1.6,0,2.8,1,3.5,3.1v0.2h0.2
			c0.3-1,0.8-1.9,1.6-2.6c0.4,0.8,0.6,1.6,0.6,2.6v0.2c0,0.9-0.5,2-1.4,3.2v0.3c0.4,0,0.7,0.5,0.9,1.6v0.6c0,1.1-0.6,2.3-1.9,3.4
			h-0.2c0.4-0.8,0.6-1.5,0.6-2.1c0-1.7-1-2.6-3-2.6h-1.4c-0.2,0-0.3,0.1-0.3,0.3c1.2,0.9,1.7,2,1.7,3.4c-0.2,1-0.7,1.9-1.6,2.7
			c0-0.1-0.1-0.2-0.2-0.2l0.2-0.8v-0.3c0-2.1-1.6-3.9-4.9-5.3c-0.5,0.5-1.1,0.8-1.7,0.8v-0.2c0.2-0.3,0.3-0.7,0.3-1v-0.2
			c-1.1-2.4-1.6-4.4-1.6-5.8c0.1-0.6,0.2-1.1,0.2-1.5c-3.6,1.4-5.4,3-5.4,4.7v1c0,0.6,0.4,1.2,1.3,1.6c0.8-0.3,1.3-0.6,1.3-0.8
			c-0.1-1.1-0.2-1.8-0.2-1.9c0-0.8,0.4-1.3,1.3-1.8c0,0.3,0.4,1.9,1.1,4.8c0,0.4-0.4,0.8-1.3,1.3v0.3c4.8,0.9,7.3,2.2,7.3,3.9v0.2
			c0,0.9-0.7,1.5-2.1,1.6h-0.3v-0.2c0-0.1,0.2-0.3,0.6-0.8v-0.2c0-0.7-0.7-1.3-2.2-1.8c-0.3,1.2-0.8,1.8-1.6,1.8h-0.6l-0.8-0.2v-0.3
			c0.6,0,0.9-0.2,0.9-0.5V449c0-1-1.2-1.9-3.6-2.6c-2.3-1.6-3.5-2.8-3.5-3.7v-1.3c0-0.9,0.5-2.1,1.6-3.5v-0.2
			c-1.6,0-2.7,0.8-3.3,2.3h-0.5c0-0.1-0.1-0.5-0.3-1.3v-0.2c0-0.4,0.2-0.8,0.6-1.3c-0.8,0-2.9-1.8-6.3-5.5c-0.2,0-0.8-0.4-1.6-1.1
			l0.3-0.2c1.5,0,2.9,0.5,4.4,1.6h0.2c0-0.8,0.9-1.3,2.8-1.5c1.1,0,2.7,0.5,4.7,1.5h0.9c0.2,0,0.3-0.2,0.5-0.5v-0.5l-0.3-0.5v-0.2
			c1.3,0.2,1.9,0.6,1.9,1.1h0.2c1.2-0.4,3-0.8,5.5-1v0.3c-2.9,1.5-4.8,2.4-5.8,2.7c-0.9,0.1-1.6,0.2-2.1,0.2c-0.8,0-1.6-0.2-2.5-0.5
			c-0.4,0.6-0.9,1-1.6,1c-0.7-0.2-1.1-0.4-1.1-0.6v-0.2c0.5,0,0.8-0.1,0.8-0.3c0-0.8-0.4-1.1-1.3-1.1c-0.6,0.2-0.9,0.6-0.9,1.3v0.3
			c0,1.2,1.2,1.9,3.6,2.3c3.1,0,7.1-1.3,11.8-4c2-0.8,3.7-1.1,5.2-1.1c1.2,0,3.9,0.9,8.2,2.6h0.8c0.9,0,1.4-0.7,1.4-2.1
			c0.5,0.4,0.8,1,0.8,1.8c0,1.2-0.8,1.9-2.5,2.3c1.3,1.9,1.9,4.2,1.9,6.8v1c0,0.7-0.4,3.1-1.3,7.3c-0.1,0.9-0.2,1.7-0.2,2.4v0.3
			c0,0.7,0.6,2.1,1.7,4.4H711c-2.5-1.3-3.8-2.8-3.8-4.7v-0.8c-0.9,0.8-1.6,2-1.9,3.4v0.5c0,0.4,0.3,1,0.9,1.6v0.2h-0.5
			c-1.9-0.3-2.8-1-2.8-2.3c-2.8,1.2-5.4,1.8-7.9,1.8c-1.4,0-3.3-0.3-5.5-0.8v0.2c0,0.3-0.5,0.6-1.4,0.8h-0.5c-0.2,0-0.3-0.1-0.3-0.3
			c0.2,0,0.3-0.2,0.5-0.5v-0.8c-0.2-0.5-0.7-0.8-1.6-0.8c0,1.1-0.9,1.8-2.7,2.1c-0.4,0-2-0.4-4.9-1.3c-0.2,0-0.4,0.2-0.8,0.6
			c0.2,0.4,0.3,0.6,0.3,0.8l-0.3,0.2h-0.2c-0.7,0-1.2-0.4-1.6-1.3c-0.9,0.5-2.2,1-3.8,1.3V457c3.2-2,5.3-3.1,6.2-3.1h1.6
			c0.6-0.5,1-0.8,1.4-0.8h0.3c0.2,0,0.3,0.1,0.3,0.3c-0.2,0-0.3,0.2-0.5,0.5v0.5c0.2,0.4,0.6,0.6,1.1,0.6h0.3c0.8,0,1.3-0.4,1.3-1.3
			c0-1.2-1.2-1.9-3.5-2.3h-0.6c-1.6,0-4.6,1.5-9.2,4.4c-1.4,0.6-3.4,1-6.2,1c-3.4,0-6.1-1.1-8.2-3.4c-2.8-2.2-5.6-3.3-8.4-3.5H648
			c-3.3,0.7-4.9,1.6-4.9,2.9c0.1,1.5,0.8,2.3,2.1,2.3c1.1-0.2,1.6-0.7,1.6-1.5c-0.2-0.5-0.4-0.8-0.6-0.8h-0.6l-0.5,0.3h-0.2V453
			c0.2-0.5,0.5-0.9,0.9-1.1h1.3c0.8,0,1.4,0.5,1.7,1.5l1.6-0.2h2.5c0.5,0,1.8,0.8,3.9,2.4c1.1,0.6,1.7,1,1.9,1v0.3h-0.2
			c-1.1,0-2.7-0.4-4.7-1.3c0,0.4-0.4,0.9-1.1,1.3h-1.3v-0.2c0.5-0.4,0.8-0.9,0.8-1.3c-0.4-0.4-0.9-0.6-1.3-0.6c-0.2,0-2,0.6-5.4,1.9
			h-1.3c-2-0.5-3-1.3-3-2.6h-0.2c-1.1,0.6-1.6,1.3-1.6,2.1c0,0.2,0.2,0.3,0.5,0.3v0.3h-0.2c-0.7,0-1.2-0.3-1.7-0.8
			c-1.4,0.4-2.8,0.7-4.4,0.8v-0.3c2.1-0.4,5.4-2.9,9.9-7.4l1.3-0.5l-0.2-0.8c0.1-1.1,0.3-1.6,0.6-1.6h0.2c0,1.3,0.7,1.9,2.2,1.9h0.6
			c-0.4-1.2-0.6-2.1-0.6-2.7v-0.2c0-2.3,1.7-3.8,5.1-4.5c0.9,0,1.7-0.4,2.4-1.1v-0.3c0-0.2-0.1-0.3-0.3-0.3h-1.1v-0.2
			c0-0.3,0.5-0.6,1.4-0.8h0.6c0.7,0,1.1,0.4,1.4,1.3c0.8-0.3,1.3-1,1.3-2.1c0-0.3-0.4-0.5-1.3-0.6c0,0.1-0.1,0.2-0.2,0.2v-0.2
			c0-0.4,0.6-0.7,1.9-0.8c0.9,0.4,1.4,0.9,1.4,1.8v0.2c-1,2.5-2.2,3.7-3.6,3.7c0,0.2-1.2,0.5-3.5,1v0.2c0.3,0.1,0.5,0.4,0.5,1v0.2
			c-0.5,2-0.8,3.3-0.8,3.9h-0.2c-1.3-1.3-1.9-2.1-1.9-2.4c0.1,0,0.2-0.1,0.2-0.2c0.4,0.2,0.8,0.3,1.3,0.3l0.2-0.3v-0.2
			c0-0.9-0.5-1.3-1.6-1.3c-0.8,0.3-1.3,0.8-1.3,1.6v0.2c0,1.8,1.8,3.4,5.4,4.7v-0.2c-0.3-0.9-0.5-1.8-0.5-2.7c0-0.3,0.3-1.4,0.9-3.2
			v-0.2l-0.2-1.1h0.3c0.3,0,0.6,0.1,0.9,0.3c0-0.3,1.7-1.2,5.1-2.6c0.8-0.8,1.3-1.7,1.3-2.6v-1c0-1-0.5-1.5-1.6-1.5V435h0.5
			c1.7,0,2.8,0.7,3.3,2.1c0,0.4,0.1,0.6,0.2,0.8c0,0.3-0.3,1.4-0.8,3.4l1.4,0.2c1.8-0.3,2.7-1.2,2.7-2.6v-0.2c0-0.5-0.4-1.3-1.3-2.4
			h0.2c2.1,1.4,3.2,2.6,3.2,3.5c0,1.8-1.1,2.9-3.3,3.2v0.2c0.8,1.2,1.6,1.8,2.4,1.8c0.7,0,1.4-0.4,2.2-1.3v0.3
			c-0.4,2.1-1.1,3.2-2.2,3.2h-1.3v0.2c0,2.3-0.7,3.9-2.1,4.8H666c-0.2,0-0.3-0.1-0.3-0.3v-1.3l0.2-1.1h-0.2
			c-1.1,0.3-1.9,0.5-2.7,0.5c-2-0.3-3-1.3-3-3.1c0-0.6,0.6-1.2,1.7-1.8v0.2l-0.3,0.5v1.1c0.3,0.6,0.9,1,1.7,1h0.3
			c1.4-0.3,2.1-0.9,2.1-1.9v-0.5c0-1.3-0.8-2.3-2.5-2.9h-1.7c-2.8,0.7-4.3,2-4.3,3.9c-0.1,0-0.2,0.3-0.2,0.8c0,3.8,2.1,6.4,6.2,7.9
			c0.6,0,1.2,0.1,1.7,0.2c3.2,0,6-1.1,8.4-3.2c1.4-2.8,2.1-5.6,2.1-8.2c0-4.7-2.6-8.3-7.9-10.8c-1.8-0.5-3.4-0.8-4.6-0.8
			c-5.8,0-13.3,5.2-22.3,15.6c-5,5.8-10.3,8.7-15.8,8.7c-1.4,0-3.1-0.4-5.1-1.3c-0.7,1-1.4,1.5-2.2,1.5h-0.8v-0.2
			c0.6-0.6,0.9-1.2,0.9-1.6v-0.3c-0.8-1.2-1.4-1.8-1.9-1.8c-0.7,2.4-1.8,3.5-3.3,3.5h-0.2v-0.2c0.9-0.8,1.4-2.3,1.4-4.5
			c0-0.5-0.4-2.2-1.3-5.2c-0.3-2-0.5-3.4-0.5-4.2v-0.5c0-1.2,0.5-2.8,1.4-5h-0.2c-0.9-0.2-1.4-0.7-1.4-1.5h0.2
			c0.4,0.2,0.8,0.3,1.3,0.3h0.2c0.6-0.3,1.1-0.8,1.4-1.4c-2,0-3-0.8-3-2.4v-1h0.3c0,1.1,0.5,1.6,1.6,1.6
			C619.8,430.9,623.4,430.1,624.3,430.1z M675.9,440.6c0.2,0.8,0.3,1.6,0.3,2.3v1.9c0,2-0.7,4.6-2.1,7.7c2-1.5,3.8-2.3,5.5-2.3
			c0.6,0,1.7,0.2,3.2,0.5c-2.6-3.2-4.8-6.6-6.8-10.2H675.9z M674.4,406.1v0.2c1.4,2.7,2.1,5.6,2.1,8.9c0,1.2-0.1,2.1-0.3,2.7v0.2
			h0.2c0.1-0.9,2.4-4.2,6.9-10H683c-1.2,0.3-2.3,0.5-3.2,0.5C678.2,408.5,676.3,407.7,674.4,406.1z M676.9,443.5h0.3
			c0.6,1.3,1.9,3.4,4.1,6.1c-0.1,0-0.2,0.1-0.2,0.2c-0.1-0.1-0.8-0.2-2.1-0.3c-1.5,0.2-2.5,0.5-3,1v-0.2
			C676.6,448.4,676.9,446.2,676.9,443.5z M676.3,408.4c1,0.6,2.1,0.9,3.3,1c0.7-0.1,1.3-0.2,1.7-0.2v0.2c-2.6,3.5-3.9,5.5-3.9,5.8
			H677V415C677,412.5,676.8,410.3,676.3,408.4z"/>
	</g>
</g>
</svg>
