<?xml version="1.0" encoding="utf-8"?>
<!-- Generator: Adobe Illustrator 19.0.0, SVG Export Plug-In . SVG Version: 6.00 Build 0)  -->
<svg version="1.1" xmlns="http://www.w3.org/2000/svg" xmlns:xlink="http://www.w3.org/1999/xlink" x="0px" y="0px"
	 viewBox="0 0 792 612" style="enable-background:new 0 0 792 612;" xml:space="preserve">
<style type="text/css">
	.st0{fill:#FFFFFF;}
	.st1{fill:#FFFAFA;stroke:#000000;stroke-width:3;stroke-miterlimit:10;}
	.st2{fill:none;stroke:#F7CA12;stroke-width:3;stroke-miterlimit:10;}
	.st3{fill:none;stroke:#020202;stroke-miterlimit:10;}
	.st4{stroke:#FFFFFF;stroke-miterlimit:10;}
	.st5{fill:#FFFFFF;stroke:#000000;stroke-width:3;stroke-miterlimit:10;}
	.st6{fill:none;stroke:#000000;stroke-miterlimit:10;}
	.st7{fill:none;stroke:#FFFFFF;stroke-miterlimit:10;}
	.st8{fill:#020202;}
	.st9{fill:none;stroke:#000000;stroke-width:3;stroke-miterlimit:10;}
	.st10{fill:#FFFFFF;stroke:#FFFFFF;stroke-miterlimit:10;}
	.st11{fill:#FFFFFF;stroke:#000000;stroke-miterlimit:10;}
	.st12{fill:#BA2025;stroke:#000000;stroke-width:3;stroke-miterlimit:10;}
	.st13{fill:#FFFFFF;stroke:#000000;stroke-width:2;stroke-miterlimit:10;}
	.st14{fill:none;stroke:#000000;stroke-width:0.1;stroke-miterlimit:10;}
	.st15{fill:#FED402;}
	.st16{stroke:#FFFAFA;stroke-width:3;stroke-miterlimit:10;}
	.st17{stroke:#FFFFFF;stroke-width:3;stroke-miterlimit:10;}
	.st18{stroke:#000000;stroke-miterlimit:10;}
	.st19{stroke:#FFFFFF;stroke-width:2;stroke-miterlimit:10;}
	.st20{fill:none;stroke:#FFFFFF;stroke-width:0.1;stroke-miterlimit:10;}
</style>
<g id="bg">
	<rect id="bg-b" y="306.3" width="792" height="305.7"/>
	<rect id="bg-w" class="st0" width="792" height="305.7"/>
</g>
<g id="Layer_1">
	<rect id="XMLID_46_" x="50.4" y="516.4" class="st0" width="79.2" height="2.6"/>
	<rect id="XMLID_50_" x="50.2" y="522.9" class="st0" width="79.2" height="2.6"/>
	<path id="XMLID_56_" class="st0" d="M142.5,486.6L89.9,380.5v-0.2l0,0.1l0-0.1v0.2L37.2,486.6l-6.8,2.5l3.1,2.5l6.8-2.5l3,0
		c0,0,41.9,1.7,46.5,1.7v0c0,0,0,0,0,0c0,0,0,0,0,0v0c4.6,0,46.5-1.7,46.5-1.7l3,0l6.8,2.5l3.1-2.5L142.5,486.6z"/>
	<path id="XMLID_33_" class="st1" d="M90.1,490c10,0,46.6-2.1,46.6-2.1l-2.6,17.7h1.9l-0.4,5.6c0,0-35.7,1.5-45.4,1.5
		s-45.4-1.5-45.4-1.5l-0.4-5.6h1.9l-2.6-17.7C43.6,487.9,80.1,490,90.1,490"/>
	<path id="XMLID_9_" class="st0" d="M46.6,511.4v19.1c0,0-2.1,0.3-2.1,1.1v2c0,0,0.8,1.1,4,1.1s4.6-0.4,4.6-1.1s0-0.9,0-2
		c0,0-0.6-1-2.3-1v-18.9L46.6,511.4z"/>
	<path id="XMLID_12_" class="st0" d="M61.7,512.1v18.5c0,0-2.6,0.4-2.6,1s0,2,0,2s0.8,0.7,4.5,0.7c0,0,4.3-0.1,4.3-0.7s0-2,0-2
		s-0.7-1-2.1-1v-18.3L61.7,512.1z"/>
	<path id="XMLID_11_" class="st0" d="M76.6,512.6v17.9c0,0-2.3,0.2-2.3,1s0,2,0,2s2.4,1.1,5.6,1.1c3.2,0,3.3-1.1,3.3-1.1v-2
		c0,0-0.2-1-2.3-1v-17.8L76.6,512.6z"/>
	<path id="XMLID_15_" class="st0" d="M133.2,511.4v19.1c0,0,2.1,0.3,2.1,1.1v2c0,0-0.8,1.1-4,1.1s-4.6-0.4-4.6-1.1s0-0.9,0-2
		c0,0,0.6-1,2.3-1v-18.9L133.2,511.4z"/>
	<path id="XMLID_13_" class="st0" d="M103.2,512.6v17.9c0,0,2.3,0.2,2.3,1s0,2,0,2s-1.3,1.1-4.5,1.1s-4.5-1.1-4.5-1.1v-2
		c0,0,0.2-1,2.3-1v-17.8L103.2,512.6z"/>
	<path id="XMLID_14_" class="st0" d="M118.1,512.1v18.5c0,0,2.6,0.4,2.6,1s0,2,0,2s-0.8,0.7-4.5,0.7c0,0-4.3-0.1-4.3-0.7s0-2,0-2
		s0.7-1,2.1-1v-18.3L118.1,512.1z"/>
	<path id="XMLID_31_" class="st2" d="M40.4,488.8"/>
	<path id="XMLID_30_" class="st2" d="M139.5,488.8"/>
	<path id="XMLID_34_" class="st3" d="M90,475.7c21.8,0,33.9-1.3,33.9-1.3L92.2,410H90h0h-2.2l-31.9,64.5
		C55.9,474.4,68.2,475.7,90,475.7L90,475.7L90,475.7L90,475.7L90,475.7z"/>
	<path id="XMLID_23_" class="st4" d="M90.1,389.2l-49.6,99.6c0,0,35.3,1.7,49.6,1.7l0,0h0h0l0,0c14.3,0,49.6-1.7,49.6-1.7
		L90.1,389.2L90.1,389.2z"/>
	<path id="XMLID_35_" class="st5" d="M89.9,405.3L52,483.1c0,1.3,13,1,13,1s22.8-1,22.8-6h2h0h2c0,5,22.8,6,22.8,6s13,0.3,13-1
		L89.9,405.3L89.9,405.3z"/>
	<path id="XMLID_41_" class="st6" d="M92.1,438"/>
	<polygon id="XMLID_44_" class="st7" points="89.9,397.4 46.2,485.2 133.5,485.2 	"/>
	<g id="XMLID_109_">
		<path id="XMLID_125_" d="M88.5,461.1c-0.1-1.5-0.7-2.5-1.5-2.7c-0.7-0.2-1.2,0.4-1.5,1.7c-0.4,1.6,0,2.8,0.9,2.7
			c0.3,0,0.5-0.1,0.8-0.2c0,2.1-0.5,2.4-2.1,1.1c-0.4,1.2-0.5,1.3-1.1,1.1c0-0.9,0-1.7,0-2.7c-0.7,0.5-1.2,1-1.8,1.4
			c-1.7,1-3.3,0.2-4.9-1c-2-1.5-3.9-3.2-6-3.8c-0.9-0.3-1.8-0.3-2.7-0.4l-1.1,2.3c2.4,1,4.9,1.9,7.4,2.8c2.8,1.1,5.7,2.3,8.5,3.3
			c1.1,0.4,2.2,0.6,3.3,0.2c0.2-0.2,0.5-0.3,0.8-0.5C88.4,465.3,88.8,463.4,88.5,461.1z"/>
		<path id="XMLID_129_" d="M109.3,461.3c1-0.4,2-0.8,3-1.3c-0.4-0.8-0.7-1.5-1.1-2.2c-2.8,0-5.4,1.6-8,3.6c-1.2,0.9-2.5,1.7-3.8,2.2
			c-1.2,0.5-2.3-0.2-3.4-1.3c-0.5-0.5-0.6-0.3-0.6,0.9c0,0.5,0.1,0.9,0.1,1.4c-0.5,0.4-0.8,0.2-1.1-1c-0.5,0.3-1,1.4-1.6,0.7
			c-0.3-0.3-0.4-1-0.6-1.7c0.5,0,0.9,0.1,1.3,0c0.6-0.2,0.8-1,0.6-2.2c-0.3-1.6-0.9-2.3-1.8-1.9c-0.9,0.4-1.4,1.9-1.4,3.9
			c0,1.7,0.4,2.8,0.9,3.5c0.6,0.2,1.2,0.6,1.8,1c1.6,0.2,3.1-0.5,4.6-1.1C101.7,464.2,105.5,462.8,109.3,461.3z"/>
		<path id="XMLID_131_" d="M90.7,456.6c0.1,0.2,0.2,0.3,0.3,0.5c1.2-1.4,2.4-1.1,3.5,0c1.1,1.1,2.1,2.4,3.1,3.7
			c1.1,1.5,2.3,1.5,3.2-0.3c0.2-0.3,0.3-0.9,0.3-1.2c0-0.4-0.3-0.8-0.5-1c-0.8-0.7-1.4,0-1.5,1.7c-0.5,0.2-0.8-0.1-0.9-1.2
			c-0.1-0.8-0.2-0.9-0.5-0.8c-0.6,0.2-1.1,0-1.5-0.7c-0.1-0.2-0.2-0.5-0.3-0.9c1.3,0,2.5-0.1,3.6,0c1.4,0.2,2.9,0.7,4.3,1.1
			c0.2,0.1,0.5-0.2,0.8-0.3c-0.2-0.6-0.3-0.9-0.4-1.4c0.7-0.1,1,0.8,1.3,1.8c1.2-0.4,2.3-0.9,3.4-1.2c0.5-0.1,1.1-0.3,1.6-0.2
			c-0.3-0.5-0.4-0.9-0.4-0.9H89.8C90.1,455.5,90.3,455.9,90.7,456.6z"/>
		<path id="XMLID_132_" d="M114.5,467.7c-0.7-0.8-1.5-1.1-2.3-0.7c-0.5,0.2-0.9,0.8-1.1,1.8c-0.1,0.4-0.1,1-0.4,0.8
			c-0.3-0.2-0.7-0.3-0.7-1.1c0-0.4,0-0.7,0-1.1c-0.8,0.6-1.6,1.2-2.4,1.7c-1,0.6-1.9,0.9-2.9,0.7c-0.6-0.1-1.1-0.4-1.5-1.8
			c1.8,1.1,3.4-0.2,5.1-1.2c1.7-1,3.3-2.3,5-3.5c0.1-0.1,0.3-0.2,0.4-0.3c-0.2-0.3-0.3-0.6-0.4-0.9c-2.7,1.5-5.4,2.5-8.1,3.3
			c-0.8,0.2-1.6,0.6-2.4,1c-0.9,0.6-1,1.1-0.9,3c-0.5,0-0.9-0.4-1.1-1.4c-0.1-0.7-0.3-0.7-0.6-0.6c-1.3,0.6-2.5,1.2-3.8,1.7
			c-0.1,0-0.1,0-0.2,0.1c0.6,0.2,1.2,0.3,1.6,0.3c0.9,0,3,1.7,3,1.7c1.5,0,3.6,0.6,7.5,0.6s9-1.1,9-1.1c0,0-0.2-0.4-0.5-1.2
			C116,469.3,115.2,468.6,114.5,467.7z"/>
		<path id="XMLID_133_" d="M82.7,469.1c-1.3-0.5-2.6-1.2-3.9-1.8c-0.3,1.1-0.6,2.1-1.2,2c0-0.7,0-1.5-0.1-1.9
			c-0.2-0.6-0.6-1.1-1-1.3c-1.3-0.6-2.6-1-3.9-1.4c-2.1-0.6-4.1-1.6-6.1-2.6l-0.5,1.1c0.6,0.4,1.1,0.8,1.7,1.1
			c2,1.3,4.1,2.6,6.1,3.8c0.7,0.4,1.5,0.4,2.3-0.3c-0.3,1.5-0.9,1.8-1.5,1.9c-1.7,0.3-3.3-0.7-4.9-2.1c-0.1-0.1-0.2-0.2-0.4-0.3
			c0,0-0.1,0-0.1,0c-0.1,1.6-0.2,2.1-0.7,2.1c-0.1,0-0.2,0-0.4,0c-0.4-2.2-1.1-3.1-2.2-2.7c-0.6,0.2-1.1,0.7-1.6,1.2
			c-0.5,0.5-0.9,1-1.4,1.2l-0.7,1.4c0,0,5.1,1.1,9,1.1s6-0.6,7.5-0.6c0,0,2.1-1.7,3-1.7c0.4,0,0.9-0.1,1.4-0.2
			C83.2,469.3,83,469.2,82.7,469.1z"/>
		<path id="XMLID_135_" d="M73.8,457.6c0.1,0,0.1,0,0.2,0.1c0.3-1.1,0.6-2,1.2-1.9c0,0.1,0,0.2,0,0.2c-0.1,0.4-0.1,0.8-0.2,1.2
			c0.2,0.1,0.4,0.4,0.6,0.4c1.2-0.3,2.3-0.6,3.5-0.9c1.5-0.4,3-0.6,4.5-0.3c-0.2,1.2-0.9,2-1.7,1.7c-0.5-0.2-0.6,0-0.7,1
			c-0.1,0.9-0.5,1.1-0.9,1c0.1-1-0.1-1.6-0.5-1.8c-0.5-0.3-0.9-0.2-1.3,0.5c-0.3,0.5-0.2,1.2,0.1,1.7c1,1.7,2.2,1.8,3.2,0.4
			c0.8-1,1.5-2.1,2.3-3c1-1.1,2-2,3.2-1.6c0.3,0.1,0.5,0.2,0.8,0.5c0.3,0.3,0.4,0.2,0.6-0.2c0.3-0.7,0.6-1.1,0.8-1.2H69.8l-0.4,0.9
			C70.9,456.3,72.4,457,73.8,457.6z"/>
	</g>
	<polygon id="XMLID_45_" points="92.1,418.3 92.1,438.1 89.9,441.2 87.7,438.1 87.7,418.3 71.8,451.3 82.5,451.3 88.2,447.1 
		89.9,447.1 91.7,447.1 97.4,451.3 108,451.3 	"/>
	<path id="XMLID_52_" class="st8" d="M123.8,474.4c0,0-12.1,1.3-33.9,1.3v0c-21.8,0-33.9-1.3-33.9-1.3l-4,7.9
		c0.8,0.6,1.9,0.8,1.9,0.8l24.9-0.8c0,0,8.5,0.3,9-3.1h2v0h2c0.6,3.4,9,3.1,9,3.1l24.9,0.8c0,0,1.1-0.2,1.9-0.8L123.8,474.4z"/>
	<path id="XMLID_37_" class="st9" d="M127.3,482.7"/>
	<line id="XMLID_42_" class="st9" x1="90.1" y1="490.6" x2="90.1" y2="490.5"/>
	<path id="XMLID_40_" class="st10" d="M78.9,482.3l-24.9,0.8c3.6,0.7,11.1,1,11.1,1s8.3-0.4,14.9-1.8
		C79.3,482.3,78.9,482.3,78.9,482.3z"/>
	<path id="XMLID_43_" class="st10" d="M101,482.3c0,0-0.4,0-1.1,0c6.6,1.4,14.9,1.8,14.9,1.8s7.5-0.3,11.1-1L101,482.3z"/>
	<path id="XMLID_49_" class="st5" d="M130.9,525.4"/>
	<polyline id="XMLID_48_" class="st11" points="130.9,525.4 130.9,525.4 130.9,525.4 	"/>
	<path id="XMLID_53_" class="st12" d="M89.9,490.1"/>
	<path id="XMLID_51_" class="st13" d="M89.9,490.8c14.3,0,49.9-2,49.9-2l-4.5-9.1c0,0-5.8,4.6-20.1,4.6c0,0-22.8-0.6-22.8-5.6h-2.4
		h-2.4c0,5-22.8,5.6-22.8,5.6c-14.3,0-19.7-4.6-19.7-4.6l-4.9,9.1C40.1,488.8,75.6,490.8,89.9,490.8"/>
	<g id="XMLID_19_">
		<path id="XMLID_20_" class="st14" d="M54.5,491.6c0.3,0,0.6,0.2,0.9,0.5c0.7-0.3,1.3-0.4,1.7-0.4c1.9,0,3.6,1.1,5.3,3.2
			c2.3,2.4,3.6,3.6,3.9,3.7c1.2,0.9,2.3,1.3,3.4,1.3c1.8,0,3.2-0.9,4-2.7c0.1-0.4,0.2-0.7,0.2-0.9v-0.5c0-1.4-0.4-2.4-1.2-3
			c-0.9-0.4-1.6-0.6-2.3-0.6c-1.1,0-2,0.7-2.5,2c-0.1,0.3-0.1,0.5-0.1,0.6c0,0.9,0.6,1.5,1.7,1.7c0.8-0.1,1.2-0.5,1.2-1.2
			c0-0.4-0.3-0.6-0.8-0.6c-0.4,0-0.6,0.2-0.6,0.5c0,0,0.1,0.2,0.2,0.4l-0.1,0.1c-0.4-0.3-0.5-0.5-0.5-0.8c0.1-0.5,0.4-0.7,0.8-0.8
			h0.5c0.3,0,0.5,0.1,0.7,0.2l-0.1-0.5v-0.3c0-0.1,0-0.1,0.1-0.1H71c0.5,0.3,0.7,0.9,0.7,1.7c0,0-0.1,0-0.1,0.1h0.5
			c0.3,0,0.6,0.4,0.7,1.2h-0.1c-0.2-0.3-0.4-0.4-0.7-0.5c-0.2,0-0.5,0.2-0.8,0.6v0.1h0.2c0.4,0,0.7,0.3,0.8,0.9v0.1
			c0,0.5-0.4,0.9-1.1,1.3v-0.1c0.3-0.3,0.4-0.5,0.4-0.7v-0.2c0-0.5-0.3-0.7-0.9-0.8l-0.4,0.1c0.1,0.6,0.2,1,0.2,1.1v0.1
			c0,0.4-0.3,0.7-0.9,0.9h-0.4v-0.1c0.4,0,0.6-0.2,0.6-0.6c0-0.8-0.6-1.3-1.7-1.6l-0.4-0.3c-0.1,0.1-0.2,0.1-0.3,0.1l-0.1-0.1
			c0.1-0.1,0.1-0.3,0.1-0.3c-0.2-0.7-0.3-1.1-0.3-1.2c0.1-0.5,0.1-0.8,0.1-0.9c-1.2,0.4-1.7,0.9-1.7,1.6c0,0.3,0.2,0.5,0.5,0.5h0.1
			c0.3,0,0.4-0.1,0.4-0.4c0-0.1,0-0.1-0.1-0.1H66l-0.1,0.1l-0.1-0.1l0.6-0.8h0.1v0.1c0,0.1,0.1,0.5,0.3,1.3c0,0.1-0.1,0.2-0.2,0.3
			v0.1c1.2,0.2,1.8,0.5,1.8,0.8c0.2,0,0.3,0.3,0.5,0.9c-0.1,0.4-0.3,0.6-0.6,0.6c-0.2,0-0.4-0.1-0.5-0.3v-0.1h0.3
			c0,0,0.1-0.1,0.2-0.2c-0.1-0.4-0.2-0.6-0.5-0.6c-0.1,0.3-0.3,0.4-0.5,0.4h-0.1c-0.1,0-0.3-0.1-0.6-0.2v-0.1h0.4
			c0,0,0.1-0.1,0.2-0.2c0-0.2-0.5-0.4-1.6-0.7c-0.6-0.4-0.8-0.8-0.8-1.2v-0.1c0-0.2,0.1-0.5,0.2-0.9h-0.2c-0.5,0-0.7,0.2-0.7,0.6H64
			c-0.1,0-0.2-0.1-0.2-0.4v-0.1l0.1-0.3c-0.2,0-0.8-0.5-1.8-1.6c-0.7-0.6-1.3-0.9-1.8-1.1v-0.1h0.1c0.4,0,0.8,0.1,1.3,0.3
			c0-0.1,0.2-0.2,0.6-0.3v0.1l-0.2,0.3c0,0.2,0.2,0.4,0.6,0.6c0.2-0.6,0.6-0.9,1.3-0.9c0.2,0,0.8,0.2,1.9,0.6h0.1
			c0.2,0,0.3-0.1,0.4-0.2c0-0.2-0.1-0.3-0.3-0.4v-0.1h0.3c0.2,0,0.4,0.2,0.6,0.5c0.5-0.3,1-0.4,1.5-0.4v0.1
			c-1.1,0.8-1.7,1.1-1.8,1.1l-0.4,0.1c-0.3,0-0.6,0-1.1-0.1c-0.2,0.3-0.4,0.5-0.6,0.5h-0.5c-0.2-0.1-0.3-0.3-0.3-0.4h0.1
			c0.1,0.1,0.3,0.2,0.4,0.2c0,0,0.1-0.1,0.2-0.3v-0.2c0-0.1-0.2-0.2-0.6-0.3c-0.3,0-0.5,0.2-0.6,0.7v0.1c0,0.4,0.5,0.8,1.6,1h0.3
			c1.1-0.2,2.2-0.7,3.2-1.7c0.6-0.4,1.3-0.6,2.1-0.6c1.4,0,2.5,0.4,3.4,1.2c0.7,0.4,1.3,0.6,1.8,0.6c0.7,0,1.1-0.2,1.3-0.7v-0.2
			c-0.1-0.2-0.3-0.3-0.6-0.3c-0.1,0-0.2,0.1-0.3,0.3v0.1c0,0.1,0.1,0.1,0.2,0.1v0.2H76c-0.1,0-0.3-0.1-0.5-0.3h-0.5
			c-0.2,0-0.9-0.3-2.1-1v-0.1H73c0.3,0,0.7,0.1,1.3,0.4c0-0.3,0.2-0.4,0.6-0.4l0.1,0.1c-0.1,0.1-0.1,0.2-0.1,0.3
			c0.1,0.1,0.2,0.2,0.3,0.2c0.9-0.3,1.5-0.4,1.5-0.4c0.5,0,0.8,0.2,0.9,0.6v0.1h0.1c0.4-0.1,0.5-0.2,0.5-0.5l-0.2-0.3l0.2-0.1
			c0.3,0.1,0.5,0.2,0.6,0.4c0.6-0.2,1.1-0.3,1.6-0.3h0.4c0.6,0,1.4,0.2,2.5,0.6v-0.1c0-0.4,0.3-0.6,0.8-0.6h0.2v0.1
			c-0.2,0.2-0.3,0.4-0.3,0.5c0,0.3,0.2,0.7,0.6,1.3h0.1c0-0.8,0.3-1.3,0.8-1.6c0.1-0.2,0.3-0.3,0.5-0.3v0.1
			c-0.4,0.7-0.6,1.1-0.6,1.4c0,0.5,0.2,1.6,0.5,3.2v0.4c0,0.7-0.2,1.5-0.6,2.3h0.1c0.5,0.1,0.7,0.4,0.7,0.8c0,0.3-0.1,0.5-0.3,0.6
			h-0.1l0.1-0.3c0-0.2-0.2-0.4-0.5-0.5l-2.5,0.8c-0.1,0-0.2,0-0.4,0.1c-0.9,0-2.2-0.5-3.9-1.5c-0.7-0.2-1.2-0.3-1.5-0.3h-0.6
			c-0.7,0.1-1,0.4-1,0.8v0.1c0,0.3,0.1,0.4,0.4,0.4c0.2,0,0.4-0.1,0.4-0.4c0-0.1-0.1-0.1-0.3-0.1v-0.1c0-0.1,0.2-0.2,0.5-0.2
			c0.1,0,0.2,0.1,0.5,0.3c0.1-0.1,0.4-0.1,0.8-0.2c0.6,0,1.4,0.3,2.5,1l0.2,0.1v0.1c-1-0.1-1.6-0.2-2-0.4v0.1
			c-0.1,0.2-0.3,0.3-0.6,0.3h-0.1v-0.1l0.1-0.2v-0.2c0-0.1-0.1-0.1-0.2-0.2h-0.2c-0.1,0-0.5,0.1-1.2,0.4c-0.1,0-0.3,0.1-0.5,0.1
			h-0.2c-0.5-0.1-0.8-0.3-0.8-0.5h-0.1c-0.4,0.3-0.9,0.5-1.4,0.5h-0.1v-0.1c0.5-0.3,1.1-0.9,1.9-1.8c0.4-0.3,0.6-0.4,0.7-0.4
			c-0.1-0.2-0.2-0.4-0.2-0.5c0.1-0.3,0.2-0.4,0.2-0.4c0.3,0.5,0.7,0.8,1.2,0.8c-0.4-0.5-0.6-1-0.6-1.5c0-0.6,0.8-1.2,2.3-1.8
			l0.2-0.4c-0.1-0.2-0.2-0.3-0.3-0.3v-0.1H79c0.3,0,0.4,0.2,0.4,0.5c0.5-0.1,0.8-0.3,0.8-0.5c0-0.2-0.1-0.3-0.2-0.3v-0.1h0.2
			c0.4,0.1,0.6,0.3,0.6,0.5v0.2c0,0.5-0.8,0.9-2.5,1.2v0.1c0.3,0.2,0.5,0.4,0.5,0.6c-0.2,0.7-0.4,1.1-0.4,1.3c0,0.1,0.1,0.1,0.1,0.2
			c-0.3,0-0.4-0.2-0.5-0.5v-0.1c0-0.2,0-0.3,0.1-0.6c-0.1-0.2-0.2-0.3-0.4-0.3h-0.1c-0.2,0.1-0.4,0.4-0.4,0.7c0,0.7,0.6,1.2,1.8,1.7
			l-0.1-0.3V498c0-0.4,0.2-1,0.5-1.8c0-0.2-0.1-0.3-0.1-0.4c0.2,0,0.4,0.1,0.5,0.3c0.8-0.3,1.3-0.7,1.6-1.4l0.1-0.3V494l-0.1-0.1
			l0.1-0.1c0.3,0.4,0.5,0.7,0.5,1c0,0.3-0.2,0.7-0.6,1.1v0.1h0.8c0.4,0,0.7-0.3,0.7-0.9c0-0.2-0.1-0.4-0.2-0.6H83
			c0.4,0.4,0.6,0.8,0.6,1.1v0.3c0,0.2-0.1,0.4-0.3,0.6v0.1c0.3,0.3,0.4,0.6,0.4,0.9v0.4c-0.1,0.4-0.1,0.6-0.3,0.6
			c-0.2-0.2-0.3-0.5-0.4-0.8h-0.1c-0.2,0.7-0.5,1-1.1,1h-0.2c-0.6-0.1-0.8-0.3-0.8-0.7c0-0.3,0.1-0.5,0.4-0.6h0.1
			c0,0.2-0.1,0.3-0.1,0.3c0,0.3,0.2,0.4,0.6,0.4c0.2,0,0.4-0.1,0.6-0.4c-0.1-0.7-0.4-1.1-0.9-1.1h-0.5c-0.5,0-0.8,0.3-0.9,0.9
			c-0.1,0.2-0.1,0.4-0.1,0.8c0,1,0.7,1.6,2.1,1.8h0.5c1.2,0,2.1-0.7,2.7-2c0.1-0.4,0.2-0.8,0.2-1v-0.4c-0.4-1.5-0.9-2.5-1.7-3.1
			c-1.2-0.6-2.2-0.9-3-0.9c-2.3,0-4.4,1.9-6.4,5.7c-1.2,1.7-2.5,2.5-4.2,2.5c-1.8,0-3.5-0.8-5.1-2.5c-1.1-1-2.5-2.4-4.1-4.2
			c-1.3-1-2.4-1.5-3.3-1.5h-0.1c-2,0-3.3,0.9-3.9,2.7c-0.1,0.7-0.2,1.1-0.2,1.2c0,1.7,0.8,2.8,2.5,3.5l0.5,0.1h0.7
			c0.8,0,1.4-0.5,1.9-1.5c0.1-0.1,0.1-0.3,0.1-0.4c0-0.8-0.6-1.3-1.7-1.4c-0.6,0.1-0.9,0.4-0.9,0.8c0,0.4,0.3,0.7,0.8,0.8
			c0.4,0,0.6-0.2,0.6-0.7c0,0-0.1,0-0.1-0.1H58c0.1,0,0.2,0.2,0.2,0.6v0.1c-0.1,0.5-0.4,0.7-0.9,0.7h-0.2c-0.2,0-0.5-0.1-0.8-0.3
			v0.1l0.1,0.4l-0.1,0.1c-0.2,0-0.4-0.3-0.6-0.8v-0.4h-0.3c-0.6,0-0.9-0.4-1.1-1.2v-0.1h0.1c0.1,0.5,0.4,0.8,0.8,0.8h0.1
			c0.1,0,0.4-0.1,0.8-0.4v-0.1h-0.3c-0.8-0.1-1.2-0.5-1.2-1.2c0-0.4,0.2-0.8,0.7-1.2v0.1c-0.1,0.3-0.2,0.6-0.2,0.8v0.2
			c0,0.5,0.4,0.8,1.1,0.8h0.2l0.3-0.1c-0.4-0.4-0.5-0.8-0.5-1.1v-0.4c0-0.5,0.5-0.9,1.4-1.1v0.1c-0.5,0.4-0.7,0.7-0.7,1
			c0,0.7,0.6,1.3,1.7,1.8l0.6,0.4c0.1-0.1,0.3-0.2,0.6-0.2c0.1,0,0.1,0.1,0.2,0.1l-0.3,0.3v0.2l0.4,1.2c0,0.2-0.1,0.4-0.2,0.6h0.1
			c1.2-0.6,1.7-1.1,1.7-1.6c0-0.3-0.2-0.4-0.6-0.4c-0.1,0-0.2,0.1-0.3,0.4c0.1,0.1,0.1,0.2,0.1,0.3c0,0.2-0.1,0.3-0.3,0.5
			c0-0.1-0.1-0.4-0.3-0.8v-0.2c0-0.1,0.1-0.4,0.3-0.6v-0.1c-1.9-0.5-2.8-1.2-2.8-2c0.1-0.4,0.4-0.6,0.7-0.6h0.3v0.1
			c-0.4,0-0.5,0.2-0.5,0.5c0.2,0.5,0.4,0.7,0.7,0.7v-0.1c0-0.4,0.2-0.5,0.5-0.5h0.2c0.1,0,0.3,0.1,0.6,0.3v0.1h-0.4
			c-0.1,0-0.1,0.1-0.2,0.2c0,0.2,0.7,0.7,2.2,1.3c0.2,0.3,0.4,0.6,0.4,0.9v0.3c0,0.2-0.1,0.4-0.4,0.8h0.2c0.7,0,1-0.2,1-0.6H63
			c0.1,0.1,0.2,0.2,0.2,0.4l-0.1,0.3c0.4,0,1.1,0.6,2.1,1.7c0.4,0.4,0.8,0.5,0.9,0.5v0.1h-0.3c-0.5,0-1-0.2-1.6-0.7
			c0,0.3-0.2,0.5-0.7,0.6h-0.4c-0.7-0.3-1.1-0.4-1.2-0.4h-0.4c-0.1,0-0.1,0.1-0.2,0.2l0.2,0.3v0.1h-0.3c-0.2,0-0.4-0.1-0.5-0.4
			c-0.6,0.3-1.3,0.4-2,0.4v-0.1c1.3-0.7,2.3-1,2.7-1h0.1c0.2,0,0.4,0,0.6,0.1c0-0.2,0.2-0.4,0.5-0.4c0.2,0,0.4,0.1,0.4,0.2
			c-0.2,0-0.3,0.1-0.3,0.3c0.1,0.2,0.2,0.3,0.4,0.3c0.2-0.1,0.4-0.2,0.4-0.3v-0.2c-0.1-0.5-0.4-0.7-0.9-0.7h-0.6
			c-0.8,0-2.2,0.6-4.3,1.7c-0.3,0.1-0.6,0.1-0.9,0.1h-0.3c-0.4,0-1.5-0.3-3.4-0.8c-0.4,0-0.5,0.2-0.5,0.5h-0.1v-0.4
			c0-0.4,0.3-0.7,1-0.8c-0.2-0.3-0.4-0.5-0.5-0.5c-0.3,0.1-0.4,0.1-0.4,0.1v-0.2c0.1-0.2,0.3-0.3,0.5-0.3c-0.3-0.5-0.5-1.1-0.5-1.8
			c0-0.8,0.2-1.7,0.6-3V493c-0.1-0.7-0.2-1.1-0.5-1.1v-0.1c0.6,0,1,0.4,1.2,1.2c0.4-0.2,0.6-0.4,0.6-0.7v-0.1c0-0.1-0.1-0.3-0.3-0.5
			C54.4,491.6,54.4,491.6,54.5,491.6z M56.9,501.2c0.7,0,1.5,0.3,2.5,1c1.1,0.6,2.1,1,3,1h0.2c0.7,0,1.1-0.3,1.1-0.9
			c-0.1-0.3-0.3-0.4-0.5-0.4c-0.2,0-0.3,0.1-0.3,0.4v0.1c0,0.1,0.1,0.1,0.3,0.2c0,0.1-0.1,0.2-0.4,0.2c-0.3-0.1-0.4-0.2-0.4-0.4
			l-0.7,0.1c-0.6,0-1.5-0.4-2.8-1.1v-0.1h0.1c0.6,0,1.3,0.1,2,0.4c0-0.3,0.2-0.4,0.6-0.4h0.1c0.1,0,0.1,0,0.1,0.1
			c-0.1,0-0.1,0.1-0.2,0.2v0.1c0,0.1,0.1,0.2,0.3,0.2c0.3,0,0.7-0.1,1.2-0.3c0.1,0,0.3-0.1,0.5-0.1h0.1c0.4,0,0.7,0.2,0.8,0.6
			c0.6-0.5,1.2-0.7,1.7-0.7h0.3v0.1c-0.4,0-1,0.5-1.9,1.5c-0.5,0.4-0.9,0.7-1.3,0.8c0.1,0.1,0.1,0.2,0.1,0.3
			c-0.1,0.2-0.1,0.3-0.2,0.3h-0.1c0-0.4-0.4-0.6-1.2-0.6c0.3,0.4,0.4,0.7,0.4,1c-0.2,0.7-0.4,1-0.7,1c-1.2,0.6-1.8,0.9-1.8,1.1v0.1
			l0.2,0.1h0.4v0.1c0,0.1-0.2,0.2-0.7,0.4c-0.4-0.1-0.6-0.3-0.6-0.6h-0.1c-0.5,0.1-0.7,0.3-0.7,0.7c0,0.3,0.2,0.4,0.5,0.4v0.1h-0.3
			c-0.5,0-0.7-0.3-0.7-0.8c0-0.6,0.9-1.2,2.8-1.8c-0.2-0.3-0.3-0.5-0.3-0.6v-0.3c0.2-0.4,0.3-0.6,0.3-0.8h0.1
			c0.2,0.1,0.3,0.2,0.3,0.4l-0.1,0.6l0.2,0.1H61c0.2,0,0.4-0.1,0.5-0.4c0-0.4-0.4-0.9-1.3-1.4l-0.5-0.3v0.1c0.1,0.3,0.2,0.5,0.2,0.6
			l-0.4,1.1c0,0.3,0.1,0.4,0.3,0.4v0.1h-0.3c-0.1,0-0.3-0.1-0.4-0.2c-0.1,0.1-0.8,0.6-2,1.2c-0.2,0.4-0.4,0.7-0.4,1
			c0,0.3,0.2,0.6,0.7,1v0.1c-0.9-0.2-1.4-0.6-1.4-1.3c0.2-0.8,0.4-1.2,0.6-1.2v-0.1l-0.3-0.1h-0.3c-0.7,0.1-1,0.3-1,0.7v0.4
			c0,0.1,0.1,0.3,0.2,0.7c-0.5-0.5-0.7-0.9-0.7-1.2c0-0.7,0.5-1.1,1.4-1.2H56V505c-0.4-0.3-0.8-0.4-1-0.4c-0.5,0.2-0.7,0.5-0.7,0.9
			h-0.1v-0.1c0.1-0.9,0.4-1.3,1-1.3h0.4v-0.5c0-0.2,0.2-0.5,0.5-0.8h0.1c0.1,0,0.1,0.2,0.1,0.5c0.3-0.2,0.5-0.3,0.7-0.3h0.1
			c0.7,0,1,0.2,1,0.6v0.1c0,0.2,0,0.4-0.1,0.6h-0.1v-0.2c0-0.3-0.2-0.5-0.7-0.5c-0.4,0-0.7,0.3-0.7,0.8c0.2,0.5,0.5,0.7,1.1,0.7
			c1.1-0.1,1.6-0.6,1.6-1.5c-0.2-0.6-0.4-1-0.8-1.3c-0.5-0.4-1-0.5-1.6-0.5c-1.7,0-2.8,1-3.4,2.9v1c0,1.6,0.8,2.7,2.4,3.4
			c0.4,0.2,1,0.3,1.7,0.3c1.6,0,3.4-1.2,5.3-3.7c2.8-2.8,4.9-4.3,6.1-4.3c0.2-0.1,0.6-0.1,1.2-0.1c2,0,3.7,1.5,5.2,4.4
			c1.7,2.5,3.3,3.8,4.9,3.8h0.8c0.8-0.1,1.7-0.4,2.7-1c0.8-0.7,1.3-1.7,1.6-3.1v-0.1c0-1.4-0.6-2.4-1.8-3.1
			c-0.4-0.2-0.9-0.3-1.4-0.3c-1.6,0-2.4,0.6-2.4,1.9c0.1,1,0.5,1.5,1.1,1.5h0.4c0.7,0,1.1-0.3,1.1-0.9v-0.1c0-0.4-0.2-0.5-0.6-0.5
			c-0.3,0-0.5,0.1-0.5,0.4l0.1,0.3c-0.1,0-0.2-0.1-0.4-0.4v-0.3c0-0.4,0.3-0.6,1-0.6c0.5,0,0.9,0.3,1.2,1v0.1H83
			c0.1-0.4,0.3-0.6,0.5-0.9c0.1,0.3,0.2,0.5,0.2,0.9v0.1c0,0.3-0.2,0.7-0.5,1.1v0.1c0.1,0,0.2,0.2,0.3,0.5v0.2
			c0,0.4-0.2,0.8-0.6,1.1h-0.1c0.1-0.3,0.2-0.5,0.2-0.7c0-0.6-0.3-0.9-1-0.9h-0.5c-0.1,0-0.1,0-0.1,0.1c0.4,0.3,0.6,0.7,0.6,1.1
			c-0.1,0.3-0.2,0.6-0.5,0.9c0,0,0-0.1-0.1-0.1l0.1-0.3v-0.1c0-0.7-0.5-1.3-1.6-1.8c-0.2,0.2-0.4,0.3-0.6,0.3v-0.1
			c0.1-0.1,0.1-0.2,0.1-0.3v-0.1c-0.4-0.8-0.5-1.5-0.5-1.9c0-0.2,0.1-0.4,0.1-0.5c-1.2,0.5-1.8,1-1.8,1.6v0.3c0,0.2,0.1,0.4,0.4,0.5
			c0.3-0.1,0.4-0.2,0.4-0.3c0-0.4-0.1-0.6-0.1-0.6c0-0.3,0.1-0.4,0.4-0.6c0,0.1,0.1,0.6,0.4,1.6c0,0.1-0.1,0.3-0.4,0.4v0.1
			c1.6,0.3,2.4,0.7,2.4,1.3v0.1c0,0.3-0.2,0.5-0.7,0.5H80v-0.1c0,0,0.1-0.1,0.2-0.3v-0.1c0-0.2-0.2-0.4-0.7-0.6
			c-0.1,0.4-0.3,0.6-0.5,0.6h-0.2l-0.3-0.1v-0.1c0.2,0,0.3-0.1,0.3-0.2v-0.1c0-0.3-0.4-0.6-1.2-0.9c-0.8-0.5-1.2-1-1.2-1.2V505
			c0-0.3,0.2-0.7,0.5-1.2v-0.1c-0.5,0-0.9,0.3-1.1,0.8h-0.2c0,0,0-0.2-0.1-0.4V504c0-0.1,0.1-0.3,0.2-0.4c-0.3,0-1-0.6-2.1-1.8
			c-0.1,0-0.3-0.1-0.5-0.4l0.1-0.1c0.5,0,1,0.2,1.5,0.5h0.1c0-0.3,0.3-0.4,0.9-0.5c0.4,0,0.9,0.2,1.6,0.5h0.3c0.1,0,0.1-0.1,0.2-0.2
			v-0.2l-0.1-0.2v-0.1c0.4,0.1,0.6,0.2,0.6,0.4h0.1c0.4-0.1,1-0.3,1.8-0.3v0.1c-1,0.5-1.6,0.8-2,0.9c-0.3,0-0.5,0.1-0.7,0.1
			c-0.3,0-0.5-0.1-0.8-0.2c-0.1,0.2-0.3,0.3-0.5,0.3c-0.2-0.1-0.4-0.1-0.4-0.2v-0.1c0.2,0,0.3,0,0.3-0.1c0-0.3-0.1-0.4-0.4-0.4
			c-0.2,0.1-0.3,0.2-0.3,0.4v0.1c0,0.4,0.4,0.6,1.2,0.8c1,0,2.4-0.4,4-1.3c0.7-0.3,1.2-0.4,1.7-0.4c0.4,0,1.3,0.3,2.7,0.9h0.3
			c0.3,0,0.5-0.2,0.5-0.7c0.2,0.1,0.3,0.3,0.3,0.6c0,0.4-0.3,0.6-0.8,0.8c0.4,0.6,0.6,1.4,0.6,2.3v0.3c0,0.2-0.1,1-0.4,2.4
			c0,0.3-0.1,0.6-0.1,0.8v0.1c0,0.2,0.2,0.7,0.6,1.5h-0.1c-0.8-0.4-1.3-0.9-1.3-1.6v-0.3c-0.3,0.3-0.5,0.7-0.6,1.1v0.2
			c0,0.1,0.1,0.3,0.3,0.5v0.1h-0.2c-0.6-0.1-0.9-0.3-0.9-0.8c-0.9,0.4-1.8,0.6-2.6,0.6c-0.5,0-1.1-0.1-1.8-0.3v0.1
			c0,0.1-0.2,0.2-0.5,0.3H78c-0.1,0-0.1,0-0.1-0.1c0.1,0,0.1-0.1,0.2-0.2v-0.3c-0.1-0.2-0.2-0.3-0.5-0.3c0,0.4-0.3,0.6-0.9,0.7
			c-0.1,0-0.7-0.1-1.6-0.4c-0.1,0-0.1,0.1-0.3,0.2c0.1,0.1,0.1,0.2,0.1,0.3l-0.1,0.1h-0.1c-0.2,0-0.4-0.1-0.5-0.4
			c-0.3,0.2-0.7,0.3-1.3,0.4v-0.1c1.1-0.7,1.8-1,2.1-1h0.5c0.2-0.2,0.3-0.3,0.5-0.3h0.1c0.1,0,0.1,0,0.1,0.1c-0.1,0-0.1,0.1-0.2,0.2
			v0.2c0.1,0.1,0.2,0.2,0.4,0.2h0.1c0.3,0,0.4-0.1,0.4-0.4c0-0.4-0.4-0.6-1.2-0.8h-0.2c-0.5,0-1.5,0.5-3.1,1.5
			c-0.5,0.2-1.2,0.3-2.1,0.3c-1.1,0-2-0.4-2.7-1.1c-0.9-0.7-1.9-1.1-2.8-1.2h-0.1c-1.1,0.2-1.6,0.5-1.6,1c0,0.5,0.3,0.8,0.7,0.8
			c0.4-0.1,0.5-0.2,0.5-0.5c-0.1-0.2-0.1-0.3-0.2-0.3h-0.2l-0.2,0.1h-0.1v-0.1c0.1-0.2,0.2-0.3,0.3-0.4h0.4c0.3,0,0.5,0.2,0.6,0.5
			l0.5-0.1h0.8c0.2,0,0.6,0.3,1.3,0.8c0.4,0.2,0.6,0.3,0.6,0.3v0.1h-0.1c-0.4,0-0.9-0.1-1.6-0.4c0,0.1-0.1,0.3-0.4,0.4h-0.4v-0.1
			c0.2-0.1,0.3-0.3,0.3-0.4c-0.1-0.1-0.3-0.2-0.4-0.2c-0.1,0-0.7,0.2-1.8,0.6h-0.4c-0.7-0.2-1-0.4-1-0.9h-0.1
			c-0.4,0.2-0.5,0.4-0.5,0.7c0,0.1,0.1,0.1,0.2,0.1v0.1h-0.1c-0.2,0-0.4-0.1-0.6-0.3c-0.5,0.1-0.9,0.2-1.5,0.3V510
			c0.7-0.1,1.8-1,3.3-2.5l0.4-0.2l-0.1-0.3c0-0.4,0.1-0.5,0.2-0.5H64c0,0.4,0.2,0.6,0.7,0.6h0.2c-0.1-0.4-0.2-0.7-0.2-0.9v-0.1
			c0-0.8,0.6-1.3,1.7-1.5c0.3,0,0.6-0.1,0.8-0.4v-0.1c0-0.1,0-0.1-0.1-0.1h-0.4v-0.1c0-0.1,0.2-0.2,0.5-0.3h0.2
			c0.2,0,0.4,0.1,0.5,0.4c0.3-0.1,0.4-0.3,0.4-0.7c0-0.1-0.1-0.2-0.4-0.2c0,0,0,0.1-0.1,0.1v-0.1c0-0.1,0.2-0.2,0.6-0.3
			c0.3,0.1,0.5,0.3,0.5,0.6v0.1c-0.3,0.8-0.7,1.2-1.2,1.2c0,0.1-0.4,0.2-1.2,0.3v0.1c0.1,0,0.2,0.1,0.2,0.3v0.1
			c-0.2,0.7-0.3,1.1-0.3,1.3h-0.1c-0.4-0.4-0.6-0.7-0.6-0.8c0,0,0.1,0,0.1-0.1c0.1,0.1,0.3,0.1,0.4,0.1l0.1-0.1v-0.1
			c0-0.3-0.2-0.4-0.5-0.4c-0.3,0.1-0.4,0.3-0.4,0.5v0.1c0,0.6,0.6,1.1,1.8,1.6v-0.1c-0.1-0.3-0.2-0.6-0.2-0.9c0-0.1,0.1-0.5,0.3-1.1
			v-0.1l-0.1-0.4h0.1c0.1,0,0.2,0,0.3,0.1c0-0.1,0.6-0.4,1.7-0.9c0.3-0.3,0.4-0.6,0.4-0.9v-0.3c0-0.3-0.2-0.5-0.5-0.5v-0.1h0.2
			c0.6,0,0.9,0.2,1.1,0.7c0,0.1,0,0.2,0.1,0.3c0,0.1-0.1,0.5-0.3,1.1l0.5,0.1c0.6-0.1,0.9-0.4,0.9-0.9v-0.1c0-0.2-0.1-0.4-0.4-0.8
			h0.1c0.7,0.5,1.1,0.9,1.1,1.2c0,0.6-0.4,1-1.1,1.1v0.1c0.3,0.4,0.5,0.6,0.8,0.6c0.2,0,0.5-0.1,0.7-0.4v0.1
			c-0.1,0.7-0.4,1.1-0.7,1.1h-0.4v0.1c0,0.8-0.2,1.3-0.7,1.6h-0.2c-0.1,0-0.1,0-0.1-0.1V508l0.1-0.4h-0.1c-0.4,0.1-0.7,0.2-0.9,0.2
			c-0.7-0.1-1-0.4-1-1c0-0.2,0.2-0.4,0.6-0.6v0.1l-0.1,0.2v0.4c0.1,0.2,0.3,0.3,0.6,0.3h0.1c0.5-0.1,0.7-0.3,0.7-0.6v-0.2
			c0-0.4-0.3-0.8-0.8-1h-0.6c-0.9,0.2-1.4,0.7-1.4,1.3c0,0-0.1,0.1-0.1,0.3c0,1.3,0.7,2.1,2.1,2.6c0.2,0,0.4,0,0.6,0.1
			c1.1,0,2-0.4,2.8-1.1c0.5-1,0.7-1.9,0.7-2.7c0-1.6-0.9-2.8-2.6-3.6c-0.6-0.2-1.1-0.3-1.5-0.3c-2,0-4.4,1.7-7.4,5.2
			c-1.7,1.9-3.4,2.9-5.3,2.9c-0.5,0-1-0.1-1.7-0.4c-0.2,0.3-0.5,0.5-0.7,0.5h-0.3V510c0.2-0.2,0.3-0.4,0.3-0.5v-0.1
			c-0.3-0.4-0.5-0.6-0.6-0.6c-0.2,0.8-0.6,1.2-1.1,1.2h-0.1v-0.1c0.3-0.3,0.5-0.8,0.5-1.5c0-0.2-0.1-0.7-0.4-1.7
			c-0.1-0.7-0.2-1.1-0.2-1.4v-0.2c0-0.4,0.2-0.9,0.5-1.7h-0.1c-0.3-0.1-0.5-0.2-0.5-0.5h0.1c0.1,0.1,0.3,0.1,0.4,0.1h0.1
			c0.2-0.1,0.4-0.3,0.5-0.5c-0.7,0-1-0.3-1-0.8v-0.3h0.1c0,0.4,0.2,0.5,0.5,0.5C55.4,501.5,56.5,501.2,56.9,501.2z M74.1,504.7
			c0.1,0.3,0.1,0.5,0.1,0.8v0.6c0,0.7-0.2,1.5-0.7,2.6c0.7-0.5,1.3-0.8,1.8-0.8c0.2,0,0.6,0.1,1.1,0.2
			C75.6,507,74.8,505.9,74.1,504.7L74.1,504.7z M73.6,493.2L73.6,493.2c0.5,0.9,0.7,1.9,0.7,3c0,0.4,0,0.7-0.1,0.9v0.1h0.1
			c0-0.3,0.8-1.4,2.3-3.3h-0.1c-0.4,0.1-0.8,0.2-1.1,0.2C74.8,494,74.2,493.7,73.6,493.2z M74.4,505.7h0.1c0.2,0.4,0.6,1.1,1.4,2
			c0,0-0.1,0-0.1,0.1c0,0-0.3-0.1-0.7-0.1c-0.5,0.1-0.8,0.2-1,0.3v-0.1C74.3,507.3,74.4,506.6,74.4,505.7z M74.2,493.9
			c0.3,0.2,0.7,0.3,1.1,0.3c0.2,0,0.4-0.1,0.6-0.1v0.1c-0.9,1.2-1.3,1.8-1.3,1.9h-0.1v-0.1C74.5,495.3,74.4,494.6,74.2,493.9z"/>
	</g>
	<g id="XMLID_54_">
		<path id="XMLID_55_" class="st14" d="M96.3,491.6c0.3,0,0.6,0.2,0.9,0.5c0.7-0.3,1.3-0.4,1.7-0.4c1.9,0,3.6,1.1,5.3,3.2
			c2.3,2.4,3.6,3.6,3.9,3.7c1.2,0.9,2.3,1.3,3.4,1.3c1.8,0,3.2-0.9,4-2.7c0.1-0.4,0.2-0.7,0.2-0.9v-0.5c0-1.4-0.4-2.4-1.2-3
			c-0.9-0.4-1.6-0.6-2.3-0.6c-1.1,0-2,0.7-2.5,2c-0.1,0.3-0.1,0.5-0.1,0.6c0,0.9,0.6,1.5,1.7,1.7c0.8-0.1,1.2-0.5,1.2-1.2
			c0-0.4-0.3-0.6-0.8-0.6c-0.4,0-0.6,0.2-0.6,0.5c0,0,0.1,0.2,0.2,0.4l-0.1,0.1c-0.4-0.3-0.5-0.5-0.5-0.8c0.1-0.5,0.4-0.7,0.8-0.8
			h0.5c0.3,0,0.5,0.1,0.7,0.2l-0.1-0.5v-0.3c0-0.1,0-0.1,0.1-0.1h0.2c0.5,0.3,0.7,0.9,0.7,1.7c0,0-0.1,0-0.1,0.1h0.5
			c0.3,0,0.6,0.4,0.7,1.2h-0.1c-0.2-0.3-0.4-0.4-0.7-0.5c-0.2,0-0.5,0.2-0.8,0.6v0.1h0.2c0.4,0,0.7,0.3,0.8,0.9v0.1
			c0,0.5-0.4,0.9-1.1,1.3v-0.1c0.3-0.3,0.4-0.5,0.4-0.7v-0.2c0-0.5-0.3-0.7-0.9-0.8l-0.4,0.1c0.1,0.6,0.2,1,0.2,1.1v0.1
			c0,0.4-0.3,0.7-0.9,0.9H111v-0.1c0.4,0,0.6-0.2,0.6-0.6c0-0.8-0.6-1.3-1.7-1.6l-0.4-0.3c-0.1,0.1-0.2,0.1-0.3,0.1l-0.1-0.1
			c0.1-0.1,0.1-0.3,0.1-0.3c-0.2-0.7-0.3-1.1-0.3-1.2c0.1-0.5,0.1-0.8,0.1-0.9c-1.2,0.4-1.7,0.9-1.7,1.6c0,0.3,0.2,0.5,0.5,0.5h0.1
			c0.3,0,0.4-0.1,0.4-0.4c0-0.1,0-0.1-0.1-0.1h-0.3l-0.1,0.1l-0.1-0.1l0.6-0.8h0.1v0.1c0,0.1,0.1,0.5,0.3,1.3c0,0.1-0.1,0.2-0.2,0.3
			v0.1c1.2,0.2,1.8,0.5,1.8,0.8c0.2,0,0.3,0.3,0.5,0.9c-0.1,0.4-0.3,0.6-0.6,0.6c-0.2,0-0.4-0.1-0.5-0.3v-0.1h0.3
			c0,0,0.1-0.1,0.2-0.2c-0.1-0.4-0.2-0.6-0.5-0.6c-0.1,0.3-0.3,0.4-0.5,0.4h-0.1c-0.1,0-0.3-0.1-0.6-0.2v-0.1h0.4
			c0,0,0.1-0.1,0.2-0.2c0-0.2-0.5-0.4-1.6-0.7c-0.6-0.4-0.8-0.8-0.8-1.2v-0.1c0-0.2,0.1-0.5,0.2-0.9h-0.2c-0.5,0-0.7,0.2-0.7,0.6
			h-0.1c-0.1,0-0.2-0.1-0.2-0.4v-0.1l0.1-0.3c-0.2,0-0.8-0.5-1.8-1.6c-0.7-0.6-1.3-0.9-1.8-1.1v-0.1h0.1c0.4,0,0.8,0.1,1.3,0.3
			c0-0.1,0.2-0.2,0.6-0.3v0.1l-0.2,0.3c0,0.2,0.2,0.4,0.6,0.6c0.2-0.6,0.6-0.9,1.3-0.9c0.2,0,0.8,0.2,1.9,0.6h0.1
			c0.2,0,0.3-0.1,0.4-0.2c0-0.2-0.1-0.3-0.3-0.4v-0.1h0.3c0.2,0,0.4,0.2,0.6,0.5c0.5-0.3,1-0.4,1.5-0.4v0.1
			c-1.1,0.8-1.7,1.1-1.8,1.1L108,493c-0.3,0-0.6,0-1.1-0.1c-0.2,0.3-0.4,0.5-0.6,0.5h-0.5c-0.2-0.1-0.3-0.3-0.3-0.4h0.1
			c0.1,0.1,0.3,0.2,0.4,0.2c0,0,0.1-0.1,0.2-0.3v-0.2c0-0.1-0.2-0.2-0.6-0.3c-0.3,0-0.5,0.2-0.6,0.7v0.1c0,0.4,0.5,0.8,1.6,1h0.3
			c1.1-0.2,2.2-0.7,3.2-1.7c0.6-0.4,1.3-0.6,2.1-0.6c1.4,0,2.5,0.4,3.4,1.2c0.7,0.4,1.3,0.6,1.8,0.6c0.7,0,1.1-0.2,1.3-0.7v-0.2
			c-0.1-0.2-0.3-0.3-0.6-0.3c-0.1,0-0.2,0.1-0.3,0.3v0.1c0,0.1,0.1,0.1,0.2,0.1v0.2h-0.2c-0.1,0-0.3-0.1-0.5-0.3h-0.5
			c-0.2,0-0.9-0.3-2.1-1v-0.1h0.1c0.3,0,0.7,0.1,1.3,0.4c0-0.3,0.2-0.4,0.6-0.4l0.1,0.1c-0.1,0.1-0.1,0.2-0.1,0.3
			c0.1,0.1,0.2,0.2,0.3,0.2c0.9-0.3,1.5-0.4,1.5-0.4c0.5,0,0.8,0.2,0.9,0.6v0.1h0.1c0.4-0.1,0.5-0.2,0.5-0.5l-0.2-0.3l0.2-0.1
			c0.3,0.1,0.5,0.2,0.6,0.4c0.6-0.2,1.1-0.3,1.6-0.3h0.4c0.6,0,1.4,0.2,2.5,0.6v-0.1c0-0.4,0.3-0.6,0.8-0.6h0.2v0.1
			c-0.2,0.2-0.3,0.4-0.3,0.5c0,0.3,0.2,0.7,0.6,1.3h0.1c0-0.8,0.3-1.3,0.8-1.6c0.1-0.2,0.3-0.3,0.5-0.3v0.1
			c-0.4,0.7-0.6,1.1-0.6,1.4c0,0.5,0.2,1.6,0.5,3.2v0.4c0,0.7-0.2,1.5-0.6,2.3h0.1c0.5,0.1,0.7,0.4,0.7,0.8c0,0.3-0.1,0.5-0.3,0.6
			h-0.1l0.1-0.3c0-0.2-0.2-0.4-0.5-0.5l-2.5,0.8c-0.1,0-0.2,0-0.4,0.1c-0.9,0-2.2-0.5-3.9-1.5c-0.7-0.2-1.2-0.3-1.5-0.3h-0.6
			c-0.7,0.1-1,0.4-1,0.8v0.1c0,0.3,0.1,0.4,0.4,0.4c0.2,0,0.4-0.1,0.4-0.4c0-0.1-0.1-0.1-0.3-0.1v-0.1c0-0.1,0.2-0.2,0.5-0.2
			c0.1,0,0.2,0.1,0.5,0.3c0.1-0.1,0.4-0.1,0.8-0.2c0.6,0,1.4,0.3,2.5,1l0.2,0.1v0.1c-1-0.1-1.6-0.2-2-0.4v0.1
			c-0.1,0.2-0.3,0.3-0.6,0.3h-0.1v-0.1l0.1-0.2v-0.2c0-0.1-0.1-0.1-0.2-0.2h-0.2c-0.1,0-0.5,0.1-1.2,0.4c-0.1,0-0.3,0.1-0.5,0.1
			h-0.2c-0.5-0.1-0.8-0.3-0.8-0.5h-0.1c-0.4,0.3-0.9,0.5-1.4,0.5h-0.1v-0.1c0.5-0.3,1.1-0.9,1.9-1.8c0.4-0.3,0.6-0.4,0.7-0.4
			c-0.1-0.2-0.2-0.4-0.2-0.5c0.1-0.3,0.2-0.4,0.2-0.4c0.3,0.5,0.7,0.8,1.2,0.8c-0.4-0.5-0.6-1-0.6-1.5c0-0.6,0.8-1.2,2.3-1.8
			l0.2-0.4c-0.1-0.2-0.2-0.3-0.3-0.3v-0.1h0.5c0.3,0,0.4,0.2,0.4,0.5c0.5-0.1,0.8-0.3,0.8-0.5c0-0.2-0.1-0.3-0.2-0.3v-0.1h0.2
			c0.4,0.1,0.6,0.3,0.6,0.5v0.2c0,0.5-0.8,0.9-2.5,1.2v0.1c0.3,0.2,0.5,0.4,0.5,0.6c-0.2,0.7-0.4,1.1-0.4,1.3c0,0.1,0.1,0.1,0.1,0.2
			c-0.3,0-0.4-0.2-0.5-0.5v-0.1c0-0.2,0-0.3,0.1-0.6c-0.1-0.2-0.2-0.3-0.4-0.3h-0.1c-0.2,0.1-0.4,0.4-0.4,0.7c0,0.7,0.6,1.2,1.8,1.7
			l-0.1-0.3V498c0-0.4,0.2-1,0.5-1.8c0-0.2-0.1-0.3-0.1-0.4c0.2,0,0.4,0.1,0.5,0.3c0.8-0.3,1.3-0.7,1.6-1.4l0.1-0.3V494l-0.1-0.1
			l0.1-0.1c0.3,0.4,0.5,0.7,0.5,1c0,0.3-0.2,0.7-0.6,1.1v0.1h0.8c0.4,0,0.7-0.3,0.7-0.9c0-0.2-0.1-0.4-0.2-0.6h0.1
			c0.4,0.4,0.6,0.8,0.6,1.1v0.3c0,0.2-0.1,0.4-0.3,0.6v0.1c0.3,0.3,0.4,0.6,0.4,0.9v0.4c-0.1,0.4-0.1,0.6-0.3,0.6
			c-0.2-0.2-0.3-0.5-0.4-0.8h-0.1c-0.2,0.7-0.5,1-1.1,1h-0.2c-0.6-0.1-0.8-0.3-0.8-0.7c0-0.3,0.1-0.5,0.4-0.6h0.1
			c0,0.2-0.1,0.3-0.1,0.3c0,0.3,0.2,0.4,0.6,0.4c0.2,0,0.4-0.1,0.6-0.4c-0.1-0.7-0.4-1.1-0.9-1.1h-0.5c-0.5,0-0.8,0.3-0.9,0.9
			c-0.1,0.2-0.1,0.4-0.1,0.8c0,1,0.7,1.6,2.1,1.8h0.5c1.2,0,2.1-0.7,2.7-2c0.1-0.4,0.2-0.8,0.2-1v-0.4c-0.4-1.5-0.9-2.5-1.7-3.1
			c-1.2-0.6-2.2-0.9-3-0.9c-2.3,0-4.4,1.9-6.4,5.7c-1.2,1.7-2.5,2.5-4.2,2.5c-1.8,0-3.5-0.8-5.1-2.5c-1.1-1-2.5-2.4-4.1-4.2
			c-1.3-1-2.4-1.5-3.3-1.5h-0.1c-2,0-3.3,0.9-3.9,2.7c-0.1,0.7-0.2,1.1-0.2,1.2c0,1.7,0.8,2.8,2.5,3.5l0.5,0.1H99
			c0.8,0,1.4-0.5,1.9-1.5c0.1-0.1,0.1-0.3,0.1-0.4c0-0.8-0.6-1.3-1.7-1.4c-0.6,0.1-0.9,0.4-0.9,0.8c0,0.4,0.3,0.7,0.8,0.8
			c0.4,0,0.6-0.2,0.6-0.7c0,0-0.1,0-0.1-0.1h0.1c0.1,0,0.2,0.2,0.2,0.6v0.1c-0.1,0.5-0.4,0.7-0.9,0.7h-0.2c-0.2,0-0.5-0.1-0.8-0.3
			v0.1l0.1,0.4l-0.1,0.1c-0.2,0-0.4-0.3-0.6-0.8v-0.4h-0.3c-0.6,0-0.9-0.4-1.1-1.2v-0.1h0.1c0.1,0.5,0.4,0.8,0.8,0.8H97
			c0.1,0,0.4-0.1,0.8-0.4v-0.1h-0.3c-0.8-0.1-1.2-0.5-1.2-1.2c0-0.4,0.2-0.8,0.7-1.2v0.1c-0.1,0.3-0.2,0.6-0.2,0.8v0.2
			c0,0.5,0.4,0.8,1.1,0.8h0.2l0.3-0.1c-0.4-0.4-0.5-0.8-0.5-1.1v-0.4c0-0.5,0.5-0.9,1.4-1.1v0.1c-0.5,0.4-0.7,0.7-0.7,1
			c0,0.7,0.6,1.3,1.7,1.8l0.6,0.4c0.1-0.1,0.3-0.2,0.6-0.2c0.1,0,0.1,0.1,0.2,0.1l-0.3,0.3v0.2l0.4,1.2c0,0.2-0.1,0.4-0.2,0.6h0.1
			c1.2-0.6,1.7-1.1,1.7-1.6c0-0.3-0.2-0.4-0.6-0.4c-0.1,0-0.2,0.1-0.3,0.4c0.1,0.1,0.1,0.2,0.1,0.3c0,0.2-0.1,0.3-0.3,0.5
			c0-0.1-0.1-0.4-0.3-0.8v-0.2c0-0.1,0.1-0.4,0.3-0.6v-0.1c-1.9-0.5-2.8-1.2-2.8-2c0.1-0.4,0.4-0.6,0.7-0.6h0.3v0.1
			c-0.4,0-0.5,0.2-0.5,0.5c0.2,0.5,0.4,0.7,0.7,0.7v-0.1c0-0.4,0.2-0.5,0.5-0.5h0.2c0.1,0,0.3,0.1,0.6,0.3v0.1h-0.4
			c-0.1,0-0.1,0.1-0.2,0.2c0,0.2,0.7,0.7,2.2,1.3c0.2,0.3,0.4,0.6,0.4,0.9v0.3c0,0.2-0.1,0.4-0.4,0.8h0.2c0.7,0,1-0.2,1-0.6h0.1
			c0.1,0.1,0.2,0.2,0.2,0.4l-0.1,0.3c0.4,0,1.1,0.6,2.1,1.7c0.4,0.4,0.8,0.5,0.9,0.5v0.1h-0.3c-0.5,0-1-0.2-1.6-0.7
			c0,0.3-0.2,0.5-0.7,0.6h-0.4c-0.7-0.3-1.1-0.4-1.2-0.4h-0.4c-0.1,0-0.1,0.1-0.2,0.2l0.2,0.3v0.1H103c-0.2,0-0.4-0.1-0.5-0.4
			c-0.6,0.3-1.3,0.4-2,0.4v-0.1c1.3-0.7,2.3-1,2.7-1h0.1c0.2,0,0.4,0,0.6,0.1c0-0.2,0.2-0.4,0.5-0.4c0.2,0,0.4,0.1,0.4,0.2
			c-0.2,0-0.3,0.1-0.3,0.3c0.1,0.2,0.2,0.3,0.4,0.3c0.2-0.1,0.4-0.2,0.4-0.3v-0.2c-0.1-0.5-0.4-0.7-0.9-0.7h-0.6
			c-0.8,0-2.2,0.6-4.3,1.7c-0.3,0.1-0.6,0.1-0.9,0.1h-0.3c-0.4,0-1.5-0.3-3.4-0.8c-0.4,0-0.5,0.2-0.5,0.5h-0.1v-0.4
			c0-0.4,0.3-0.7,1-0.8c-0.2-0.3-0.4-0.5-0.5-0.5c-0.3,0.1-0.4,0.1-0.4,0.1v-0.2c0.1-0.2,0.3-0.3,0.5-0.3c-0.3-0.5-0.5-1.1-0.5-1.8
			c0-0.8,0.2-1.7,0.6-3V493c-0.1-0.7-0.2-1.1-0.5-1.1v-0.1c0.6,0,1,0.4,1.2,1.2c0.4-0.2,0.6-0.4,0.6-0.7v-0.1c0-0.1-0.1-0.3-0.3-0.5
			C96.2,491.6,96.2,491.6,96.3,491.6z M98.6,501.2c0.7,0,1.5,0.3,2.5,1c1.1,0.6,2.1,1,3,1h0.2c0.7,0,1.1-0.3,1.1-0.9
			c-0.1-0.3-0.3-0.4-0.5-0.4c-0.2,0-0.3,0.1-0.3,0.4v0.1c0,0.1,0.1,0.1,0.3,0.2c0,0.1-0.1,0.2-0.4,0.2c-0.3-0.1-0.4-0.2-0.4-0.4
			l-0.7,0.1c-0.6,0-1.5-0.4-2.8-1.1v-0.1h0.1c0.6,0,1.3,0.1,2,0.4c0-0.3,0.2-0.4,0.6-0.4h0.1c0.1,0,0.1,0,0.1,0.1
			c-0.1,0-0.1,0.1-0.2,0.2v0.1c0,0.1,0.1,0.2,0.3,0.2c0.3,0,0.7-0.1,1.2-0.3c0.1,0,0.3-0.1,0.5-0.1h0.1c0.4,0,0.7,0.2,0.8,0.6
			c0.6-0.5,1.2-0.7,1.7-0.7h0.3v0.1c-0.4,0-1,0.5-1.9,1.5c-0.5,0.4-0.9,0.7-1.3,0.8c0.1,0.1,0.1,0.2,0.1,0.3
			c-0.1,0.2-0.1,0.3-0.2,0.3h-0.1c0-0.4-0.4-0.6-1.2-0.6c0.3,0.4,0.4,0.7,0.4,1c-0.2,0.7-0.4,1-0.7,1c-1.2,0.6-1.8,0.9-1.8,1.1v0.1
			l0.2,0.1h0.4v0.1c0,0.1-0.2,0.2-0.7,0.4c-0.4-0.1-0.6-0.3-0.6-0.6h-0.1c-0.5,0.1-0.7,0.3-0.7,0.7c0,0.3,0.2,0.4,0.5,0.4v0.1h-0.3
			c-0.5,0-0.7-0.3-0.7-0.8c0-0.6,0.9-1.2,2.8-1.8c-0.2-0.3-0.3-0.5-0.3-0.6v-0.3c0.2-0.4,0.3-0.6,0.3-0.8h0.1
			c0.2,0.1,0.3,0.2,0.3,0.4l-0.1,0.6l0.2,0.1h0.2c0.2,0,0.4-0.1,0.5-0.4c0-0.4-0.4-0.9-1.3-1.4l-0.5-0.3v0.1
			c0.1,0.3,0.2,0.5,0.2,0.6l-0.4,1.1c0,0.3,0.1,0.4,0.3,0.4v0.1h-0.3c-0.1,0-0.3-0.1-0.4-0.2c-0.1,0.1-0.8,0.6-2,1.2
			c-0.2,0.4-0.4,0.7-0.4,1c0,0.3,0.2,0.6,0.7,1v0.1c-0.9-0.2-1.4-0.6-1.4-1.3c0.2-0.8,0.4-1.2,0.6-1.2v-0.1l-0.3-0.1h-0.3
			c-0.7,0.1-1,0.3-1,0.7v0.4c0,0.1,0.1,0.3,0.2,0.7c-0.5-0.5-0.7-0.9-0.7-1.2c0-0.7,0.5-1.1,1.4-1.2h0.1V505c-0.4-0.3-0.8-0.4-1-0.4
			c-0.5,0.2-0.7,0.5-0.7,0.9H96v-0.1c0.1-0.9,0.4-1.3,1-1.3h0.4v-0.5c0-0.2,0.2-0.5,0.5-0.8H98c0.1,0,0.1,0.2,0.1,0.5
			c0.3-0.2,0.5-0.3,0.7-0.3h0.1c0.7,0,1,0.2,1,0.6v0.1c0,0.2,0,0.4-0.1,0.6h-0.1v-0.2c0-0.3-0.2-0.5-0.7-0.5c-0.4,0-0.7,0.3-0.7,0.8
			c0.2,0.5,0.5,0.7,1.1,0.7c1.1-0.1,1.6-0.6,1.6-1.5c-0.2-0.6-0.4-1-0.8-1.3c-0.5-0.4-1-0.5-1.6-0.5c-1.7,0-2.8,1-3.4,2.9v1
			c0,1.6,0.8,2.7,2.4,3.4c0.4,0.2,1,0.3,1.7,0.3c1.6,0,3.4-1.2,5.3-3.7c2.8-2.8,4.9-4.3,6.1-4.3c0.2-0.1,0.6-0.1,1.2-0.1
			c2,0,3.7,1.5,5.2,4.4c1.7,2.5,3.3,3.8,4.9,3.8h0.8c0.8-0.1,1.7-0.4,2.7-1c0.8-0.7,1.3-1.7,1.6-3.1v-0.1c0-1.4-0.6-2.4-1.8-3.1
			c-0.4-0.2-0.9-0.3-1.4-0.3c-1.6,0-2.4,0.6-2.4,1.9c0.1,1,0.5,1.5,1.1,1.5h0.4c0.7,0,1.1-0.3,1.1-0.9v-0.1c0-0.4-0.2-0.5-0.6-0.5
			c-0.3,0-0.5,0.1-0.5,0.4l0.1,0.3c-0.1,0-0.2-0.1-0.4-0.4v-0.3c0-0.4,0.3-0.6,1-0.6c0.5,0,0.9,0.3,1.2,1v0.1h0.1
			c0.1-0.4,0.3-0.6,0.5-0.9c0.1,0.3,0.2,0.5,0.2,0.9v0.1c0,0.3-0.2,0.7-0.5,1.1v0.1c0.1,0,0.2,0.2,0.3,0.5v0.2
			c0,0.4-0.2,0.8-0.6,1.1h-0.1c0.1-0.3,0.2-0.5,0.2-0.7c0-0.6-0.3-0.9-1-0.9h-0.5c-0.1,0-0.1,0-0.1,0.1c0.4,0.3,0.6,0.7,0.6,1.1
			c-0.1,0.3-0.2,0.6-0.5,0.9c0,0,0-0.1-0.1-0.1l0.1-0.3v-0.1c0-0.7-0.5-1.3-1.6-1.8c-0.2,0.2-0.4,0.3-0.6,0.3v-0.1
			c0.1-0.1,0.1-0.2,0.1-0.3v-0.1c-0.4-0.8-0.5-1.5-0.5-1.9c0-0.2,0.1-0.4,0.1-0.5c-1.2,0.5-1.8,1-1.8,1.6v0.3c0,0.2,0.1,0.4,0.4,0.5
			c0.3-0.1,0.4-0.2,0.4-0.3c0-0.4-0.1-0.6-0.1-0.6c0-0.3,0.1-0.4,0.4-0.6c0,0.1,0.1,0.6,0.4,1.6c0,0.1-0.1,0.3-0.4,0.4v0.1
			c1.6,0.3,2.4,0.7,2.4,1.3v0.1c0,0.3-0.2,0.5-0.7,0.5h-0.1v-0.1c0,0,0.1-0.1,0.2-0.3v-0.1c0-0.2-0.2-0.4-0.7-0.6
			c-0.1,0.4-0.3,0.6-0.5,0.6h-0.2l-0.3-0.1v-0.1c0.2,0,0.3-0.1,0.3-0.2v-0.1c0-0.3-0.4-0.6-1.2-0.9c-0.8-0.5-1.2-1-1.2-1.2V505
			c0-0.3,0.2-0.7,0.5-1.2v-0.1c-0.5,0-0.9,0.3-1.1,0.8h-0.2c0,0,0-0.2-0.1-0.4V504c0-0.1,0.1-0.3,0.2-0.4c-0.3,0-1-0.6-2.1-1.8
			c-0.1,0-0.3-0.1-0.5-0.4l0.1-0.1c0.5,0,1,0.2,1.5,0.5h0.1c0-0.3,0.3-0.4,0.9-0.5c0.4,0,0.9,0.2,1.6,0.5h0.3c0.1,0,0.1-0.1,0.2-0.2
			v-0.2l-0.1-0.2v-0.1c0.4,0.1,0.6,0.2,0.6,0.4h0.1c0.4-0.1,1-0.3,1.8-0.3v0.1c-1,0.5-1.6,0.8-2,0.9c-0.3,0-0.5,0.1-0.7,0.1
			c-0.3,0-0.5-0.1-0.8-0.2c-0.1,0.2-0.3,0.3-0.5,0.3c-0.2-0.1-0.4-0.1-0.4-0.2v-0.1c0.2,0,0.3,0,0.3-0.1c0-0.3-0.1-0.4-0.4-0.4
			c-0.2,0.1-0.3,0.2-0.3,0.4v0.1c0,0.4,0.4,0.6,1.2,0.8c1,0,2.4-0.4,4-1.3c0.7-0.3,1.2-0.4,1.7-0.4c0.4,0,1.3,0.3,2.7,0.9h0.3
			c0.3,0,0.5-0.2,0.5-0.7c0.2,0.1,0.3,0.3,0.3,0.6c0,0.4-0.3,0.6-0.8,0.8c0.4,0.6,0.6,1.4,0.6,2.3v0.3c0,0.2-0.1,1-0.4,2.4
			c0,0.3-0.1,0.6-0.1,0.8v0.1c0,0.2,0.2,0.7,0.6,1.5h-0.1c-0.8-0.4-1.3-0.9-1.3-1.6v-0.3c-0.3,0.3-0.5,0.7-0.6,1.1v0.2
			c0,0.1,0.1,0.3,0.3,0.5v0.1h-0.2c-0.6-0.1-0.9-0.3-0.9-0.8c-0.9,0.4-1.8,0.6-2.6,0.6c-0.5,0-1.1-0.1-1.8-0.3v0.1
			c0,0.1-0.2,0.2-0.5,0.3h-0.2c-0.1,0-0.1,0-0.1-0.1c0.1,0,0.1-0.1,0.2-0.2v-0.3c-0.1-0.2-0.2-0.3-0.5-0.3c0,0.4-0.3,0.6-0.9,0.7
			c-0.1,0-0.7-0.1-1.6-0.4c-0.1,0-0.1,0.1-0.3,0.2c0.1,0.1,0.1,0.2,0.1,0.3l-0.1,0.1h-0.1c-0.2,0-0.4-0.1-0.5-0.4
			c-0.3,0.2-0.7,0.3-1.3,0.4v-0.1c1.1-0.7,1.8-1,2.1-1h0.5c0.2-0.2,0.3-0.3,0.5-0.3h0.1c0.1,0,0.1,0,0.1,0.1c-0.1,0-0.1,0.1-0.2,0.2
			v0.2c0.1,0.1,0.2,0.2,0.4,0.2h0.1c0.3,0,0.4-0.1,0.4-0.4c0-0.4-0.4-0.6-1.2-0.8h-0.2c-0.5,0-1.5,0.5-3.1,1.5
			c-0.5,0.2-1.2,0.3-2.1,0.3c-1.1,0-2-0.4-2.7-1.1c-0.9-0.7-1.9-1.1-2.8-1.2h-0.1c-1.1,0.2-1.6,0.5-1.6,1c0,0.5,0.3,0.8,0.7,0.8
			c0.4-0.1,0.5-0.2,0.5-0.5c-0.1-0.2-0.1-0.3-0.2-0.3h-0.2l-0.2,0.1h-0.1v-0.1c0.1-0.2,0.2-0.3,0.3-0.4h0.4c0.3,0,0.5,0.2,0.6,0.5
			l0.5-0.1h0.8c0.2,0,0.6,0.3,1.3,0.8c0.4,0.2,0.6,0.3,0.6,0.3v0.1h-0.1c-0.4,0-0.9-0.1-1.6-0.4c0,0.1-0.1,0.3-0.4,0.4h-0.4v-0.1
			c0.2-0.1,0.3-0.3,0.3-0.4c-0.1-0.1-0.3-0.2-0.4-0.2c-0.1,0-0.7,0.2-1.8,0.6h-0.4c-0.7-0.2-1-0.4-1-0.9h-0.1
			c-0.4,0.2-0.5,0.4-0.5,0.7c0,0.1,0.1,0.1,0.2,0.1v0.1h-0.1c-0.2,0-0.4-0.1-0.6-0.3c-0.5,0.1-0.9,0.2-1.5,0.3V510
			c0.7-0.1,1.8-1,3.3-2.5l0.4-0.2l-0.1-0.3c0-0.4,0.1-0.5,0.2-0.5h0.1c0,0.4,0.2,0.6,0.7,0.6h0.2c-0.1-0.4-0.2-0.7-0.2-0.9v-0.1
			c0-0.8,0.6-1.3,1.7-1.5c0.3,0,0.6-0.1,0.8-0.4v-0.1c0-0.1,0-0.1-0.1-0.1h-0.4v-0.1c0-0.1,0.2-0.2,0.5-0.3h0.2
			c0.2,0,0.4,0.1,0.5,0.4c0.3-0.1,0.4-0.3,0.4-0.7c0-0.1-0.1-0.2-0.4-0.2c0,0,0,0.1-0.1,0.1v-0.1c0-0.1,0.2-0.2,0.6-0.3
			c0.3,0.1,0.5,0.3,0.5,0.6v0.1c-0.3,0.8-0.7,1.2-1.2,1.2c0,0.1-0.4,0.2-1.2,0.3v0.1c0.1,0,0.2,0.1,0.2,0.3v0.1
			c-0.2,0.7-0.3,1.1-0.3,1.3h-0.1c-0.4-0.4-0.6-0.7-0.6-0.8c0,0,0.1,0,0.1-0.1c0.1,0.1,0.3,0.1,0.4,0.1l0.1-0.1v-0.1
			c0-0.3-0.2-0.4-0.5-0.4c-0.3,0.1-0.4,0.3-0.4,0.5v0.1c0,0.6,0.6,1.1,1.8,1.6v-0.1c-0.1-0.3-0.2-0.6-0.2-0.9c0-0.1,0.1-0.5,0.3-1.1
			v-0.1l-0.1-0.4h0.1c0.1,0,0.2,0,0.3,0.1c0-0.1,0.6-0.4,1.7-0.9c0.3-0.3,0.4-0.6,0.4-0.9v-0.3c0-0.3-0.2-0.5-0.5-0.5v-0.1h0.2
			c0.6,0,0.9,0.2,1.1,0.7c0,0.1,0,0.2,0.1,0.3c0,0.1-0.1,0.5-0.3,1.1l0.5,0.1c0.6-0.1,0.9-0.4,0.9-0.9v-0.1c0-0.2-0.1-0.4-0.4-0.8
			h0.1c0.7,0.5,1.1,0.9,1.1,1.2c0,0.6-0.4,1-1.1,1.1v0.1c0.3,0.4,0.5,0.6,0.8,0.6c0.2,0,0.5-0.1,0.7-0.4v0.1
			c-0.1,0.7-0.4,1.1-0.7,1.1h-0.4v0.1c0,0.8-0.2,1.3-0.7,1.6h-0.2c-0.1,0-0.1,0-0.1-0.1V508l0.1-0.4h-0.1c-0.4,0.1-0.7,0.2-0.9,0.2
			c-0.7-0.1-1-0.4-1-1c0-0.2,0.2-0.4,0.6-0.6v0.1l-0.1,0.2v0.4c0.1,0.2,0.3,0.3,0.6,0.3h0.1c0.5-0.1,0.7-0.3,0.7-0.6v-0.2
			c0-0.4-0.3-0.8-0.8-1H111c-0.9,0.2-1.4,0.7-1.4,1.3c0,0-0.1,0.1-0.1,0.3c0,1.3,0.7,2.1,2.1,2.6c0.2,0,0.4,0,0.6,0.1
			c1.1,0,2-0.4,2.8-1.1c0.5-1,0.7-1.9,0.7-2.7c0-1.6-0.9-2.8-2.6-3.6c-0.6-0.2-1.1-0.3-1.5-0.3c-2,0-4.4,1.7-7.4,5.2
			c-1.7,1.9-3.4,2.9-5.3,2.9c-0.5,0-1-0.1-1.7-0.4c-0.2,0.3-0.5,0.5-0.7,0.5h-0.3V510c0.2-0.2,0.3-0.4,0.3-0.5v-0.1
			c-0.3-0.4-0.5-0.6-0.6-0.6c-0.2,0.8-0.6,1.2-1.1,1.2h-0.1v-0.1c0.3-0.3,0.5-0.8,0.5-1.5c0-0.2-0.1-0.7-0.4-1.7
			c-0.1-0.7-0.2-1.1-0.2-1.4v-0.2c0-0.4,0.2-0.9,0.5-1.7h-0.1c-0.3-0.1-0.5-0.2-0.5-0.5h0.1c0.1,0.1,0.3,0.1,0.4,0.1h0.1
			c0.2-0.1,0.4-0.3,0.5-0.5c-0.7,0-1-0.3-1-0.8v-0.3h0.1c0,0.4,0.2,0.5,0.5,0.5C97.1,501.5,98.3,501.2,98.6,501.2z M115.9,504.7
			c0.1,0.3,0.1,0.5,0.1,0.8v0.6c0,0.7-0.2,1.5-0.7,2.6c0.7-0.5,1.3-0.8,1.8-0.8c0.2,0,0.6,0.1,1.1,0.2
			C117.3,507,116.6,505.9,115.9,504.7L115.9,504.7z M115.4,493.2L115.4,493.2c0.5,0.9,0.7,1.9,0.7,3c0,0.4,0,0.7-0.1,0.9v0.1h0.1
			c0-0.3,0.8-1.4,2.3-3.3h-0.1c-0.4,0.1-0.8,0.2-1.1,0.2C116.6,494,116,493.7,115.4,493.2z M116.2,505.7h0.1c0.2,0.4,0.6,1.1,1.4,2
			c0,0-0.1,0-0.1,0.1c0,0-0.3-0.1-0.7-0.1c-0.5,0.1-0.8,0.2-1,0.3v-0.1C116.1,507.3,116.2,506.6,116.2,505.7z M116,493.9
			c0.3,0.2,0.7,0.3,1.1,0.3c0.2,0,0.4-0.1,0.6-0.1v0.1c-0.9,1.2-1.3,1.8-1.3,1.9h-0.1v-0.1C116.3,495.3,116.2,494.6,116,493.9z"/>
	</g>
	<g id="XMLID_170_">
		<path id="XMLID_171_" class="st15" d="M207.8,473.4v39.5h-25.3V406.5h41.9c9.3,0,16.5,1,21.5,3c5,2,9.4,5.6,13.3,10.7
			c3.9,5.1,5.8,11.5,5.8,18.9c0,5.2-1,10.4-3.1,15.3c-2.1,5-5,8.9-8.8,11.8c-3.8,2.9-7.5,4.8-11,5.7c-3.6,0.9-9.1,1.4-16.7,1.4
			H207.8z M206.9,454h16.2c6.2,0,10.5-1.4,13-4.3c2.5-2.9,3.7-6.1,3.7-9.8c0-4.3-1.4-7.7-4.2-10.3c-2.8-2.5-7-3.8-12.7-3.8h-16.1
			V454z"/>
		<path id="XMLID_174_" class="st15" d="M304,473.4v39.5h-25.3V406.5h41.9c9.3,0,16.5,1,21.5,3c5,2,9.4,5.6,13.3,10.7
			c3.9,5.1,5.8,11.5,5.8,18.9c0,5.2-1,10.4-3.1,15.3c-2.1,5-5,8.9-8.8,11.8c-3.8,2.9-7.5,4.8-11,5.7c-3.6,0.9-9.1,1.4-16.7,1.4H304z
			 M303.2,454h16.2c6.2,0,10.5-1.4,13-4.3c2.5-2.9,3.7-6.1,3.7-9.8c0-4.3-1.4-7.7-4.2-10.3c-2.8-2.5-7-3.8-12.7-3.8h-16.1V454z"/>
		<path id="XMLID_177_" class="st15" d="M457.1,406.5v106.3h-24.5V469h-33.2v43.9H375V406.5h24.5V448h33.2v-41.4H457.1z"/>
		<path id="XMLID_179_" class="st15" d="M478.4,406.5H528c8.9,0,15.6,1.1,20,3.3c4.5,2.2,8.2,5.3,11.1,9.3c2.9,4,4.4,9,4.4,14.8
			c0,11.8-6.4,19.6-19.2,23.6c7.4,1.7,12.9,5,16.6,9.9c3.7,4.9,5.5,10.3,5.5,16.1c0,8-3,14.8-9,20.6c-6,5.8-15.8,8.7-29.4,8.7h-49.5
			V406.5z M503.3,425.3v23.3h18.9c6.9,0,11.3-1.4,13-4.1c1.8-2.7,2.7-5.3,2.7-7.8c0-2.7-0.7-5-2.2-7c-1.5-1.9-3.1-3.2-4.9-3.7
			c-1.8-0.5-5.2-0.7-10.4-0.7H503.3z M503.3,467.5v25.6h19.1c6.5,0,11.1-1.1,13.8-3.4c2.7-2.3,4-5.5,4-9.6c0-3.4-1.3-6.4-3.9-8.9
			s-6.9-3.7-12.9-3.7H503.3z"/>
	</g>
	<g id="XMLID_153_">
		<path id="XMLID_154_" class="st0" d="M598.3,418.7v7.2h-4.6v-19.3h7.6c1.7,0,3,0.2,3.9,0.5c0.9,0.4,1.7,1,2.4,1.9
			c0.7,0.9,1.1,2.1,1.1,3.4c0,1-0.2,1.9-0.6,2.8c-0.4,0.9-0.9,1.6-1.6,2.1c-0.7,0.5-1.4,0.9-2,1c-0.6,0.2-1.7,0.3-3,0.3H598.3z
			 M598.1,415.2h2.9c1.1,0,1.9-0.3,2.4-0.8c0.5-0.5,0.7-1.1,0.7-1.8c0-0.8-0.3-1.4-0.8-1.9c-0.5-0.5-1.3-0.7-2.3-0.7h-2.9V415.2z"/>
		<path id="XMLID_157_" class="st0" d="M626.3,406.6v12c0,1.9-0.2,3.4-0.7,4.3c-0.4,0.9-1.3,1.7-2.4,2.3c-1.2,0.6-2.7,0.9-4.6,0.9
			s-3.3-0.3-4.4-0.8c-1.1-0.5-1.9-1.3-2.5-2.3s-0.8-2.5-0.8-4.4v-12h4.9v12c0,1,0.1,1.8,0.3,2.3c0.2,0.5,0.5,0.9,1,1.2
			c0.5,0.3,1.2,0.4,1.9,0.4c0.8,0,1.5-0.1,2.1-0.4c0.5-0.3,0.9-0.7,1.1-1.1c0.2-0.5,0.3-1.2,0.3-2.3v-12H626.3z"/>
		<path id="XMLID_159_" class="st0" d="M644.7,406.6v19.3h-3.9l-7.5-13c0,0.3,0,0.5,0,0.6c0,0.3,0.1,0.6,0.1,0.8v11.5h-3.5v-19.3
			h4.9l6.6,11.4c-0.1-0.6-0.1-1-0.1-1.3v-10.1H644.7z"/>
		<path id="XMLID_161_" class="st0" d="M663.6,415.5v10.3h-2.1c-0.1-0.7-0.4-1.5-0.6-2.2c-1.4,1.7-3.1,2.5-5.3,2.5
			c-2.5,0-4.5-0.9-5.9-2.7c-1.4-1.8-2.1-4.1-2.1-7c0-3.1,0.7-5.5,2.2-7.4c1.5-1.9,3.5-2.8,6.1-2.8c2.1,0,3.9,0.6,5.2,1.8
			c1.3,1.2,2.1,2.8,2.4,4.8l-4.3,0.6c-0.3-2.3-1.5-3.5-3.3-3.5c-1.2,0-2.1,0.6-2.8,1.7c-0.6,1.1-0.9,2.7-0.9,4.7c0,2,0.3,3.5,1,4.5
			c0.7,1,1.6,1.6,2.9,1.6c0.8,0,1.5-0.3,2.2-0.8c0.6-0.5,1-1.4,1-2.5h-3.6v-3.6H663.6z"/>
		<path id="XMLID_163_" class="st0" d="M682.3,406.6v12c0,1.9-0.2,3.4-0.7,4.3c-0.4,0.9-1.3,1.7-2.4,2.3c-1.2,0.6-2.7,0.9-4.6,0.9
			s-3.3-0.3-4.4-0.8c-1.1-0.5-1.9-1.3-2.5-2.3s-0.8-2.5-0.8-4.4v-12h4.9v12c0,1,0.1,1.8,0.3,2.3c0.2,0.5,0.5,0.9,1,1.2
			c0.5,0.3,1.2,0.4,1.9,0.4c0.8,0,1.5-0.1,2.1-0.4c0.5-0.3,0.9-0.7,1.1-1.1c0.2-0.5,0.3-1.2,0.3-2.3v-12H682.3z"/>
		<path id="XMLID_165_" class="st0" d="M695,406.6l6,19.3h-4.9l-1.2-4h-6.2l-1.2,4h-4l6.2-19.3H695z M689.8,418.3h4.1l-2-6.8
			L689.8,418.3z"/>
		<path id="XMLID_168_" class="st0" d="M717.9,406.6v19.3H714l-7.5-13c0,0.3,0,0.5,0,0.6c0,0.3,0.1,0.6,0.1,0.8v11.5h-3.5v-19.3h4.9
			l6.6,11.4c-0.1-0.6-0.1-1-0.1-1.3v-10.1H717.9z"/>
	</g>
	<g id="XMLID_120_">
		<path id="XMLID_121_" class="st0" d="M598.3,447.7v7.2h-4.6v-19.3h7.6c1.7,0,3,0.2,3.9,0.5c0.9,0.4,1.7,1,2.4,1.9
			c0.7,0.9,1.1,2.1,1.1,3.4c0,1-0.2,1.9-0.6,2.8c-0.4,0.9-0.9,1.6-1.6,2.1c-0.7,0.5-1.4,0.9-2,1c-0.6,0.2-1.7,0.3-3,0.3H598.3z
			 M598.1,444.2h2.9c1.1,0,1.9-0.3,2.4-0.8c0.5-0.5,0.7-1.1,0.7-1.8c0-0.8-0.3-1.4-0.8-1.9c-0.5-0.5-1.3-0.7-2.3-0.7h-2.9V444.2z"/>
		<path id="XMLID_124_" class="st0" d="M619.4,435.5l6,19.3h-4.9l-1.2-4h-6.2l-1.2,4h-4l6.2-19.3H619.4z M614.3,447.3h4.1l-2-6.8
			L614.3,447.3z"/>
		<path id="XMLID_128_" class="st0" d="M632.1,447.2v7.6h-4.5v-19.3h8.5c1.6,0,2.8,0.2,3.8,0.5c0.9,0.4,1.7,1,2.4,2
			c0.6,1,0.9,2,0.9,3.2c0,2.3-1.1,4-3.3,5l3.6,8.5h-5l-3-7.6H632.1z M632.1,439v4.9h2.8c0.9,0,1.6-0.1,2-0.2
			c0.4-0.1,0.8-0.4,1.1-0.8c0.3-0.4,0.5-0.9,0.5-1.5c0-0.5-0.2-1-0.5-1.4c-0.3-0.4-0.7-0.7-1-0.8c-0.4-0.1-1.1-0.1-2.1-0.1H632.1z"
			/>
		<path id="XMLID_136_" class="st0" d="M659.9,439.8l-3.8,1.3c-0.5-1.5-1.6-2.3-3.3-2.3c-1.8,0-2.7,0.6-2.7,1.7
			c0,0.5,0.2,0.9,0.5,1.2s1.1,0.6,2.3,0.8c2,0.4,3.4,0.8,4.3,1.2c0.9,0.4,1.7,1.1,2.3,2c0.6,0.9,0.9,1.9,0.9,3c0,1.7-0.7,3.2-2,4.5
			c-1.3,1.3-3.3,1.9-6,1.9c-2,0-3.7-0.4-5-1.3c-1.4-0.9-2.3-2.2-2.7-4l4.2-0.9c0.5,1.8,1.8,2.7,3.9,2.7c1,0,1.8-0.2,2.3-0.6
			s0.8-0.9,0.8-1.4c0-0.6-0.2-1-0.7-1.3c-0.5-0.3-1.3-0.6-2.7-0.9c-2.5-0.5-4.2-1.2-5.2-2.1c-1-0.9-1.6-2.2-1.6-3.9
			c0-1.7,0.6-3.2,1.9-4.3c1.2-1.2,2.9-1.8,5.1-1.8C656.3,435.3,658.8,436.8,659.9,439.8z"/>
		<path id="XMLID_138_" class="st0" d="M672.5,435.5l6,19.3h-4.9l-1.2-4h-6.2l-1.2,4h-4l6.2-19.3H672.5z M667.4,447.3h4.1l-2-6.8
			L667.4,447.3z"/>
		<path id="XMLID_141_" class="st0" d="M695.3,435.5v12c0,1.9-0.2,3.4-0.7,4.3c-0.4,0.9-1.3,1.7-2.5,2.3c-1.2,0.6-2.7,0.9-4.6,0.9
			c-1.9,0-3.3-0.3-4.4-0.8c-1.1-0.5-1.9-1.3-2.5-2.3s-0.8-2.5-0.8-4.4v-12h4.9v12c0,1,0.1,1.8,0.3,2.3s0.5,0.9,1,1.2
			c0.5,0.3,1.2,0.4,1.9,0.4c0.8,0,1.5-0.1,2.1-0.4c0.5-0.3,0.9-0.7,1.1-1.1c0.2-0.5,0.3-1.2,0.3-2.3v-12H695.3z"/>
		<path id="XMLID_143_" class="st0" d="M711.1,435.5v3.8h-4.8v15.5h-4.6v-15.5H697v-3.8H711.1z"/>
		<path id="XMLID_145_" class="st0" d="M721.2,435.5l6,19.3h-4.9l-1.2-4h-6.2l-1.2,4h-4l6.2-19.3H721.2z M716,447.3h4.1l-2-6.8
			L716,447.3z"/>
		<path id="XMLID_148_" class="st0" d="M735.9,455.1c-2.6,0-4.6-1-6-2.9c-1.4-1.9-2.1-4.3-2.1-7.1c0-2.8,0.7-5.2,2.2-7
			s3.5-2.8,6.2-2.8c2.7,0,4.7,1,6.1,3c1.4,2,2.1,4.3,2.1,6.9c0,2.8-0.7,5.2-2.1,7.1C740.7,454.2,738.6,455.1,735.9,455.1z
			 M736,438.9c-2.4,0-3.6,2.1-3.6,6.2c0,4.2,1.2,6.3,3.6,6.3c2.3,0,3.4-2.1,3.4-6.2C739.5,441,738.3,438.9,736,438.9z"/>
		<path id="XMLID_151_" class="st0" d="M762,435.5v19.3h-3.9l-7.5-13c0,0.3,0,0.5,0,0.6c0,0.3,0.1,0.6,0.1,0.8v11.5h-3.5v-19.3h4.9
			l6.6,11.4c-0.1-0.6-0.1-1-0.1-1.3v-10.1H762z"/>
	</g>
	<g id="XMLID_103_">
		<path id="XMLID_104_" class="st0" d="M608.6,464.7v19.3h-4.4V476h-6v7.9h-4.4v-19.3h4.4v7.5h6v-7.5H608.6z"/>
		<path id="XMLID_106_" class="st0" d="M621.9,464.7l6,19.3h-4.9l-1.2-4h-6.2l-1.2,4h-4l6.2-19.3H621.9z M616.7,476.4h4.1l-2-6.8
			L616.7,476.4z"/>
		<path id="XMLID_110_" class="st0" d="M634.5,476.3v7.6H630v-19.3h8.5c1.6,0,2.8,0.2,3.8,0.5c0.9,0.4,1.7,1,2.4,2
			c0.6,1,0.9,2,0.9,3.2c0,2.3-1.1,4-3.3,5l3.6,8.5h-5l-3-7.6H634.5z M634.5,468.1v4.9h2.8c0.9,0,1.6-0.1,2-0.2
			c0.4-0.1,0.8-0.4,1.1-0.8c0.3-0.4,0.5-0.9,0.5-1.5c0-0.5-0.2-1-0.5-1.4c-0.3-0.4-0.7-0.7-1-0.8c-0.4-0.1-1.1-0.1-2.1-0.1H634.5z"
			/>
		<path id="XMLID_113_" class="st0" d="M653.5,464.7v19.3H649v-19.3H653.5z"/>
		<path id="XMLID_115_" class="st0" d="M666.8,464.7l6,19.3H668l-1.2-4h-6.2l-1.2,4h-4l6.2-19.3H666.8z M661.7,476.4h4.1l-2-6.8
			L661.7,476.4z"/>
		<path id="XMLID_118_" class="st0" d="M689.8,464.7v19.3h-3.9l-7.5-13c0,0.3,0,0.5,0,0.6c0,0.3,0.1,0.6,0.1,0.8v11.5h-3.5v-19.3
			h4.9l6.6,11.4c-0.1-0.6-0.1-1-0.1-1.3v-10.1H689.8z"/>
	</g>
	<g id="XMLID_90_">
		<path id="XMLID_91_" class="st0" d="M593.7,493.7h9c1.6,0,2.8,0.2,3.6,0.6c0.8,0.4,1.5,1,2,1.7c0.5,0.7,0.8,1.6,0.8,2.7
			c0,2.1-1.2,3.6-3.5,4.3c1.3,0.3,2.3,0.9,3,1.8c0.7,0.9,1,1.9,1,2.9c0,1.4-0.5,2.7-1.6,3.7c-1.1,1-2.9,1.6-5.3,1.6h-9V493.7z
			 M598.2,497.1v4.2h3.4c1.3,0,2-0.2,2.4-0.7c0.3-0.5,0.5-1,0.5-1.4c0-0.5-0.1-0.9-0.4-1.3c-0.3-0.4-0.6-0.6-0.9-0.7
			c-0.3-0.1-1-0.1-1.9-0.1H598.2z M598.2,504.8v4.6h3.5c1.2,0,2-0.2,2.5-0.6c0.5-0.4,0.7-1,0.7-1.7c0-0.6-0.2-1.2-0.7-1.6
			c-0.5-0.5-1.2-0.7-2.3-0.7H598.2z"/>
		<path id="XMLID_95_" class="st0" d="M619.7,513.3c-2.6,0-4.6-1-6-2.9c-1.4-1.9-2.1-4.3-2.1-7.1c0-2.8,0.7-5.2,2.2-7
			s3.5-2.8,6.2-2.8c2.7,0,4.7,1,6.1,3c1.4,2,2.1,4.3,2.1,6.9c0,2.8-0.7,5.2-2.1,7.1C624.5,512.4,622.4,513.3,619.7,513.3z
			 M619.9,497.1c-2.4,0-3.6,2.1-3.6,6.2c0,4.2,1.2,6.3,3.6,6.3c2.3,0,3.4-2.1,3.4-6.2C623.3,499.2,622.2,497.1,619.9,497.1z"/>
		<path id="XMLID_98_" class="st0" d="M645.9,493.7V513h-4.4v-7.9h-6v7.9H631v-19.3h4.4v7.5h6v-7.5H645.9z"/>
		<path id="XMLID_100_" class="st0" d="M657,513.3c-2.6,0-4.6-1-6-2.9c-1.4-1.9-2.1-4.3-2.1-7.1c0-2.8,0.7-5.2,2.2-7
			c1.4-1.9,3.5-2.8,6.2-2.8c2.7,0,4.7,1,6.1,3c1.4,2,2.1,4.3,2.1,6.9c0,2.8-0.7,5.2-2.1,7.1C661.7,512.4,659.7,513.3,657,513.3z
			 M657.1,497.1c-2.4,0-3.6,2.1-3.6,6.2c0,4.2,1.2,6.3,3.6,6.3c2.3,0,3.4-2.1,3.4-6.2C660.5,499.2,659.4,497.1,657.1,497.1z"/>
	</g>
	<rect id="XMLID_273_" x="50.4" y="212.4" width="79.2" height="2.6"/>
	<rect id="XMLID_272_" x="50.2" y="218.9" width="79.2" height="2.6"/>
	<path id="XMLID_271_" d="M142.5,182.6L89.9,76.5v-0.2l0,0.1l0-0.1v0.2L37.2,182.6l-6.8,2.5l3.1,2.5l6.8-2.5l3,0
		c0,0,41.9,1.7,46.5,1.7v0c0,0,0,0,0,0c0,0,0,0,0,0v0c4.6,0,46.5-1.7,46.5-1.7l3,0l6.8,2.5l3.1-2.5L142.5,182.6z"/>
	<path id="XMLID_270_" class="st16" d="M90.1,186c10,0,46.6-2.1,46.6-2.1l-2.6,17.7h1.9l-0.4,5.6c0,0-35.7,1.5-45.4,1.5
		s-45.4-1.5-45.4-1.5l-0.4-5.6h1.9l-2.6-17.7C43.6,183.9,80.1,186,90.1,186"/>
	<path id="XMLID_269_" d="M46.6,207.4v19.1c0,0-2.1,0.3-2.1,1.1v2c0,0,0.8,1.1,4,1.1c3.3,0,4.6-0.4,4.6-1.1c0-0.8,0-0.9,0-2
		c0,0-0.6-1-2.3-1v-18.9L46.6,207.4z"/>
	<path id="XMLID_268_" d="M61.7,208.1v18.5c0,0-2.6,0.4-2.6,1s0,2,0,2s0.8,0.7,4.5,0.7c0,0,4.3-0.1,4.3-0.7c0-0.6,0-2,0-2
		s-0.7-1-2.1-1v-18.3L61.7,208.1z"/>
	<path id="XMLID_267_" d="M76.6,208.6v17.9c0,0-2.3,0.2-2.3,1s0,2,0,2s2.4,1.1,5.6,1.1c3.2,0,3.3-1.1,3.3-1.1v-2c0,0-0.2-1-2.3-1
		v-17.8L76.6,208.6z"/>
	<path id="XMLID_266_" d="M133.2,207.4v19.1c0,0,2.1,0.3,2.1,1.1v2c0,0-0.8,1.1-4,1.1s-4.6-0.4-4.6-1.1c0-0.8,0-0.9,0-2
		c0,0,0.6-1,2.3-1v-18.9L133.2,207.4z"/>
	<path id="XMLID_265_" d="M103.3,208.6v17.9c0,0,2.3,0.2,2.3,1s0,2,0,2s-1.3,1.1-4.5,1.1s-4.5-1.1-4.5-1.1v-2c0,0,0.2-1,2.3-1v-17.8
		L103.3,208.6z"/>
	<path id="XMLID_264_" d="M118.1,208.1v18.5c0,0,2.6,0.4,2.6,1s0,2,0,2s-0.8,0.7-4.5,0.7c0,0-4.3-0.1-4.3-0.7c0-0.6,0-2,0-2
		s0.7-1,2.1-1v-18.3L118.1,208.1z"/>
	<path id="XMLID_263_" class="st2" d="M40.4,184.8"/>
	<path id="XMLID_262_" class="st2" d="M139.5,184.8"/>
	<path id="XMLID_261_" class="st3" d="M90,171.7c21.8,0,33.9-1.3,33.9-1.3L92.2,106H90h0h-2.2l-31.9,64.5
		C55.9,170.4,68.2,171.7,90,171.7L90,171.7L90,171.7L90,171.7L90,171.7z"/>
	<path id="XMLID_260_" class="st11" d="M90.1,85.2l-49.6,99.6c0,0,35.3,1.7,49.6,1.7l0,0h0h0l0,0c14.3,0,49.6-1.7,49.6-1.7
		L90.1,85.2L90.1,85.2z"/>
	<path id="XMLID_259_" class="st17" d="M89.9,101.3L52,179.1c0,1.3,13,1,13,1s22.8-1,22.8-6h2h0h2c0,5,22.8,6,22.8,6s13,0.3,13-1
		L89.9,101.3L89.9,101.3z"/>
	<path id="XMLID_258_" class="st6" d="M92.2,134"/>
	<polygon id="XMLID_257_" class="st6" points="89.9,93.4 46.2,181.2 133.5,181.2 	"/>
	<g id="XMLID_250_">
		<path id="XMLID_256_" class="st0" d="M88.6,157.1c-0.1-1.5-0.7-2.5-1.5-2.7c-0.7-0.2-1.2,0.4-1.5,1.7c-0.4,1.6,0,2.8,0.9,2.7
			c0.3,0,0.5-0.1,0.8-0.2c0,2.1-0.5,2.4-2.1,1.1c-0.4,1.2-0.5,1.3-1.1,1.1c0-0.9,0-1.7,0-2.7c-0.7,0.5-1.2,1-1.8,1.4
			c-1.7,1-3.3,0.2-4.9-1c-2-1.5-3.9-3.2-6-3.8c-0.9-0.3-1.8-0.3-2.7-0.4l-1.1,2.3c2.4,1,4.9,1.9,7.4,2.8c2.8,1.1,5.7,2.3,8.5,3.3
			c1.1,0.4,2.2,0.6,3.3,0.2c0.2-0.2,0.5-0.3,0.8-0.5C88.4,161.3,88.8,159.4,88.6,157.1z"/>
		<path id="XMLID_255_" class="st0" d="M109.3,157.3c1-0.4,2-0.8,3-1.3c-0.4-0.8-0.7-1.5-1.1-2.2c-2.8,0-5.4,1.6-8,3.6
			c-1.2,0.9-2.5,1.7-3.8,2.2c-1.2,0.5-2.3-0.2-3.4-1.3c-0.5-0.5-0.6-0.3-0.6,0.9c0,0.5,0.1,0.9,0.1,1.4c-0.5,0.4-0.8,0.2-1.1-1
			c-0.5,0.3-1,1.4-1.6,0.7c-0.3-0.3-0.4-1-0.6-1.7c0.5,0,0.9,0.1,1.3,0c0.6-0.2,0.8-1,0.6-2.2c-0.3-1.6-0.9-2.3-1.8-1.9
			c-0.9,0.4-1.4,1.9-1.4,3.9c0,1.7,0.4,2.8,0.9,3.5c0.6,0.2,1.2,0.6,1.8,1c1.6,0.2,3.1-0.5,4.6-1.1
			C101.7,160.2,105.5,158.8,109.3,157.3z"/>
		<path id="XMLID_254_" class="st0" d="M90.7,152.6c0.1,0.2,0.2,0.3,0.3,0.5c1.2-1.4,2.4-1.1,3.5,0c1.1,1.1,2.1,2.4,3.1,3.7
			c1.1,1.5,2.3,1.5,3.2-0.3c0.2-0.3,0.3-0.9,0.3-1.2c0-0.4-0.3-0.8-0.5-1c-0.8-0.7-1.4,0-1.5,1.7c-0.5,0.2-0.8-0.1-0.9-1.2
			c-0.1-0.8-0.2-0.9-0.5-0.8c-0.6,0.2-1.1,0-1.5-0.7c-0.1-0.2-0.2-0.5-0.3-0.9c1.3,0,2.5-0.1,3.6,0c1.4,0.2,2.9,0.7,4.3,1.1
			c0.2,0.1,0.5-0.2,0.8-0.3c-0.2-0.6-0.3-0.9-0.4-1.4c0.7-0.1,1,0.8,1.3,1.8c1.2-0.4,2.3-0.9,3.4-1.2c0.5-0.1,1.1-0.3,1.6-0.2
			c-0.3-0.5-0.4-0.9-0.4-0.9H89.8C90.1,151.5,90.3,151.9,90.7,152.6z"/>
		<path id="XMLID_253_" class="st0" d="M114.5,163.7c-0.7-0.8-1.5-1.1-2.3-0.7c-0.5,0.2-0.9,0.8-1.1,1.8c-0.1,0.4-0.1,1-0.4,0.8
			c-0.3-0.2-0.7-0.3-0.7-1.1c0-0.4,0-0.7,0-1.1c-0.8,0.6-1.6,1.2-2.4,1.7c-1,0.6-1.9,0.9-2.9,0.7c-0.6-0.1-1.1-0.4-1.5-1.8
			c1.8,1.1,3.4-0.2,5.1-1.2c1.7-1,3.3-2.3,5-3.5c0.1-0.1,0.3-0.2,0.4-0.3c-0.2-0.3-0.3-0.6-0.4-0.9c-2.7,1.5-5.4,2.5-8.1,3.3
			c-0.8,0.2-1.6,0.6-2.4,1c-0.9,0.6-1,1.1-0.9,3c-0.5,0-0.9-0.4-1.1-1.4c-0.1-0.7-0.3-0.7-0.6-0.6c-1.3,0.6-2.5,1.2-3.8,1.7
			c-0.1,0-0.1,0-0.2,0.1c0.6,0.2,1.2,0.3,1.6,0.3c0.9,0,3,1.7,3,1.7c1.5,0,3.6,0.6,7.5,0.6s9-1.1,9-1.1c0,0-0.2-0.4-0.5-1.2
			C116,165.3,115.3,164.6,114.5,163.7z"/>
		<path id="XMLID_252_" class="st0" d="M82.8,165.1c-1.3-0.5-2.6-1.2-3.9-1.8c-0.3,1.1-0.6,2.1-1.2,2c0-0.7,0-1.5-0.1-1.9
			c-0.2-0.6-0.6-1.1-1-1.3c-1.3-0.6-2.6-1-3.9-1.4c-2.1-0.6-4.1-1.6-6.1-2.6l-0.5,1.1c0.6,0.4,1.1,0.8,1.7,1.1
			c2,1.3,4.1,2.6,6.1,3.8c0.7,0.4,1.5,0.4,2.3-0.3c-0.3,1.5-0.9,1.8-1.5,1.9c-1.7,0.3-3.3-0.7-4.9-2.1c-0.1-0.1-0.2-0.2-0.4-0.3
			c0,0-0.1,0-0.1,0c-0.1,1.6-0.2,2.1-0.7,2.1c-0.1,0-0.2,0-0.4,0c-0.4-2.2-1.1-3.1-2.2-2.7c-0.6,0.2-1.1,0.7-1.6,1.2
			c-0.5,0.5-0.9,1-1.4,1.2l-0.7,1.4c0,0,5.1,1.1,9,1.1s6-0.6,7.5-0.6c0,0,2.1-1.7,3-1.7c0.4,0,0.9-0.1,1.4-0.2
			C83.2,165.3,83,165.2,82.8,165.1z"/>
		<path id="XMLID_251_" class="st0" d="M73.8,153.6c0.1,0,0.1,0,0.2,0.1c0.3-1.1,0.6-2,1.2-1.9c0,0.1,0,0.2,0,0.2
			c-0.1,0.4-0.1,0.8-0.2,1.2c0.2,0.1,0.4,0.4,0.6,0.4c1.2-0.3,2.3-0.6,3.5-0.9c1.5-0.4,3-0.6,4.5-0.3c-0.2,1.2-0.9,2-1.7,1.7
			c-0.5-0.2-0.6,0-0.7,1c-0.1,0.9-0.5,1.1-0.9,1c0.1-1-0.1-1.6-0.5-1.8c-0.5-0.3-0.9-0.2-1.3,0.5c-0.3,0.5-0.2,1.2,0.1,1.7
			c1,1.7,2.2,1.8,3.2,0.4c0.8-1,1.5-2.1,2.3-3c1-1.1,2-2,3.2-1.6c0.3,0.1,0.5,0.2,0.8,0.5c0.3,0.3,0.4,0.2,0.6-0.2
			c0.3-0.7,0.6-1.1,0.8-1.2H69.8l-0.4,0.9C70.9,152.3,72.4,153,73.8,153.6z"/>
	</g>
	<polygon id="XMLID_249_" class="st0" points="92.2,114.3 92.2,134.1 89.9,137.2 87.7,134.1 87.7,114.3 71.8,147.3 82.5,147.3 
		88.2,143.1 89.9,143.1 91.7,143.1 97.4,147.3 108,147.3 	"/>
	<path id="XMLID_248_" class="st0" d="M123.8,170.4c0,0-12.1,1.3-33.9,1.3v0c-21.8,0-33.9-1.3-33.9-1.3l-4,7.9
		c0.8,0.6,1.9,0.8,1.9,0.8l24.9-0.8c0,0,8.5,0.3,9-3.1h2v0h2c0.6,3.4,9,3.1,9,3.1l24.9,0.8c0,0,1.1-0.2,1.9-0.8L123.8,170.4z"/>
	<path id="XMLID_247_" class="st9" d="M127.3,178.7"/>
	<line id="XMLID_246_" class="st9" x1="90.1" y1="186.6" x2="90.1" y2="186.5"/>
	<path id="XMLID_245_" class="st18" d="M78.9,178.3l-24.9,0.8c3.6,0.7,11.1,1,11.1,1s8.3-0.4,14.9-1.8
		C79.3,178.3,78.9,178.3,78.9,178.3z"/>
	<path id="XMLID_244_" class="st18" d="M101,178.3c0,0-0.4,0-1.1,0c6.6,1.4,14.9,1.8,14.9,1.8s7.5-0.3,11.1-1L101,178.3z"/>
	<path id="XMLID_243_" class="st5" d="M131,221.4"/>
	<polyline id="XMLID_242_" class="st11" points="131,221.4 131,221.4 131,221.4 	"/>
	<path id="XMLID_241_" class="st12" d="M89.9,186.1"/>
	<path id="XMLID_240_" class="st19" d="M89.9,186.8c14.3,0,49.9-2,49.9-2l-4.5-9.1c0,0-5.8,4.6-20.1,4.6c0,0-22.8-0.6-22.8-5.6h-2.4
		h-2.4c0,5-22.8,5.6-22.8,5.6c-14.3,0-19.7-4.6-19.7-4.6l-4.9,9.1C40.1,184.8,75.6,186.8,89.9,186.8"/>
	<g id="XMLID_232_">
		<path id="XMLID_233_" class="st20" d="M54.5,187.6c0.3,0,0.6,0.2,0.9,0.5c0.7-0.3,1.3-0.4,1.7-0.4c1.9,0,3.6,1.1,5.3,3.2
			c2.3,2.4,3.6,3.6,3.9,3.7c1.2,0.9,2.3,1.3,3.4,1.3c1.8,0,3.2-0.9,4-2.7c0.1-0.4,0.2-0.7,0.2-0.9v-0.5c0-1.4-0.4-2.4-1.2-3
			c-0.9-0.4-1.6-0.6-2.3-0.6c-1.1,0-2,0.7-2.5,2c-0.1,0.3-0.1,0.5-0.1,0.6c0,0.9,0.6,1.5,1.7,1.7c0.8-0.1,1.2-0.5,1.2-1.2
			c0-0.4-0.3-0.6-0.8-0.6c-0.4,0-0.6,0.2-0.6,0.5c0,0,0.1,0.2,0.2,0.4l-0.1,0.1c-0.4-0.3-0.5-0.5-0.5-0.8c0.1-0.5,0.4-0.7,0.8-0.8
			h0.5c0.3,0,0.5,0.1,0.7,0.2l-0.1-0.5v-0.3c0-0.1,0-0.1,0.1-0.1H71c0.5,0.3,0.7,0.9,0.7,1.7c0,0-0.1,0-0.1,0.1h0.5
			c0.3,0,0.6,0.4,0.7,1.2h-0.1c-0.2-0.3-0.4-0.4-0.7-0.5c-0.2,0-0.5,0.2-0.8,0.6v0.1h0.2c0.4,0,0.7,0.3,0.8,0.9v0.1
			c0,0.5-0.4,0.9-1.1,1.3v-0.1c0.3-0.3,0.4-0.5,0.4-0.7v-0.2c0-0.5-0.3-0.7-0.9-0.8l-0.4,0.1c0.1,0.6,0.2,1,0.2,1.1v0.1
			c0,0.4-0.3,0.7-0.9,0.9h-0.4v-0.1c0.4,0,0.6-0.2,0.6-0.6c0-0.8-0.6-1.3-1.7-1.6l-0.4-0.3c-0.1,0.1-0.2,0.1-0.3,0.1l-0.1-0.1
			c0.1-0.1,0.1-0.3,0.1-0.3c-0.2-0.7-0.3-1.1-0.3-1.2c0.1-0.5,0.1-0.8,0.1-0.9c-1.2,0.4-1.7,0.9-1.7,1.6c0,0.3,0.2,0.5,0.5,0.5h0.1
			c0.3,0,0.4-0.1,0.4-0.4c0-0.1,0-0.1-0.1-0.1H66l-0.1,0.1l-0.1-0.1l0.6-0.8h0.1v0.1c0,0.1,0.1,0.5,0.3,1.3c0,0.1-0.1,0.2-0.2,0.3
			v0.1c1.2,0.2,1.8,0.5,1.8,0.8c0.2,0,0.3,0.3,0.5,0.9c-0.1,0.4-0.3,0.6-0.6,0.6c-0.2,0-0.4-0.1-0.5-0.3v-0.1h0.3
			c0,0,0.1-0.1,0.2-0.2c-0.1-0.4-0.2-0.6-0.5-0.6c-0.1,0.3-0.3,0.4-0.5,0.4h-0.1c-0.1,0-0.3-0.1-0.6-0.2v-0.1h0.4
			c0,0,0.1-0.1,0.2-0.2c0-0.2-0.5-0.4-1.6-0.7c-0.6-0.4-0.8-0.8-0.8-1.2v-0.1c0-0.2,0.1-0.5,0.2-0.9h-0.2c-0.5,0-0.7,0.2-0.7,0.6H64
			c-0.1,0-0.2-0.1-0.2-0.4v-0.1l0.1-0.3c-0.2,0-0.8-0.5-1.8-1.6c-0.7-0.6-1.3-0.9-1.8-1.1v-0.1h0.1c0.4,0,0.8,0.1,1.3,0.3
			c0-0.1,0.2-0.2,0.6-0.3v0.1l-0.2,0.3c0,0.2,0.2,0.4,0.6,0.6c0.2-0.6,0.6-0.9,1.3-0.9c0.2,0,0.8,0.2,1.9,0.6h0.1
			c0.2,0,0.3-0.1,0.4-0.2c0-0.2-0.1-0.3-0.3-0.4v-0.1h0.3c0.2,0,0.4,0.2,0.6,0.5c0.5-0.3,1-0.4,1.5-0.4v0.1
			c-1.1,0.8-1.7,1.1-1.8,1.1l-0.4,0.1c-0.3,0-0.6,0-1.1-0.1c-0.2,0.3-0.4,0.5-0.6,0.5h-0.5c-0.2-0.1-0.3-0.3-0.3-0.4h0.1
			c0.1,0.1,0.3,0.2,0.4,0.2c0,0,0.1-0.1,0.2-0.3v-0.2c0-0.1-0.2-0.2-0.6-0.3c-0.3,0-0.5,0.2-0.6,0.7v0.1c0,0.4,0.5,0.8,1.6,1h0.3
			c1.1-0.2,2.2-0.7,3.2-1.7c0.6-0.4,1.3-0.6,2.1-0.6c1.4,0,2.5,0.4,3.4,1.2c0.7,0.4,1.3,0.6,1.8,0.6c0.7,0,1.1-0.2,1.3-0.7v-0.2
			c-0.1-0.2-0.3-0.3-0.6-0.3c-0.1,0-0.2,0.1-0.3,0.3v0.1c0,0.1,0.1,0.1,0.2,0.1v0.2H76c-0.1,0-0.3-0.1-0.5-0.3h-0.5
			c-0.2,0-0.9-0.3-2.1-1v-0.1H73c0.3,0,0.7,0.1,1.3,0.4c0-0.3,0.2-0.4,0.6-0.4l0.1,0.1c-0.1,0.1-0.1,0.2-0.1,0.3
			c0.1,0.1,0.2,0.2,0.3,0.2c0.9-0.3,1.5-0.4,1.5-0.4c0.5,0,0.8,0.2,0.9,0.6v0.1h0.1c0.4-0.1,0.5-0.2,0.5-0.5l-0.2-0.3l0.2-0.1
			c0.3,0.1,0.5,0.2,0.6,0.4c0.6-0.2,1.1-0.3,1.6-0.3h0.4c0.6,0,1.4,0.2,2.5,0.6v-0.1c0-0.4,0.3-0.6,0.8-0.6h0.2v0.1
			c-0.2,0.2-0.3,0.4-0.3,0.5c0,0.3,0.2,0.7,0.6,1.3h0.1c0-0.8,0.3-1.3,0.8-1.6c0.1-0.2,0.3-0.3,0.5-0.3v0.1
			c-0.4,0.7-0.6,1.1-0.6,1.4c0,0.5,0.2,1.6,0.5,3.2v0.4c0,0.7-0.2,1.5-0.6,2.3h0.1c0.5,0.1,0.7,0.4,0.7,0.8c0,0.3-0.1,0.5-0.3,0.6
			h-0.1l0.1-0.3c0-0.2-0.2-0.4-0.5-0.5l-2.5,0.8c-0.1,0-0.2,0-0.4,0.1c-0.9,0-2.2-0.5-3.9-1.5c-0.7-0.2-1.2-0.3-1.5-0.3h-0.6
			c-0.7,0.1-1,0.4-1,0.8v0.1c0,0.3,0.1,0.4,0.4,0.4c0.2,0,0.4-0.1,0.4-0.4c0-0.1-0.1-0.1-0.3-0.1v-0.1c0-0.1,0.2-0.2,0.5-0.2
			c0.1,0,0.2,0.1,0.5,0.3c0.1-0.1,0.4-0.1,0.8-0.2c0.6,0,1.4,0.3,2.5,1l0.2,0.1v0.1c-1-0.1-1.6-0.2-2-0.4v0.1
			c-0.1,0.2-0.3,0.3-0.6,0.3h-0.1v-0.1l0.1-0.2v-0.2c0-0.1-0.1-0.1-0.2-0.2h-0.2c-0.1,0-0.5,0.1-1.2,0.4c-0.1,0-0.3,0.1-0.5,0.1
			h-0.2c-0.5-0.1-0.8-0.3-0.8-0.5h-0.1c-0.4,0.3-0.9,0.5-1.4,0.5h-0.1v-0.1c0.5-0.3,1.1-0.9,1.9-1.8c0.4-0.3,0.6-0.4,0.7-0.4
			c-0.1-0.2-0.2-0.4-0.2-0.5c0.1-0.3,0.2-0.4,0.2-0.4c0.3,0.5,0.7,0.8,1.2,0.8c-0.4-0.5-0.6-1-0.6-1.5c0-0.6,0.8-1.2,2.3-1.8
			l0.2-0.4c-0.1-0.2-0.2-0.3-0.3-0.3v-0.1H79c0.3,0,0.4,0.2,0.4,0.5c0.5-0.1,0.8-0.3,0.8-0.5c0-0.2-0.1-0.3-0.2-0.3v-0.1h0.2
			c0.4,0.1,0.6,0.3,0.6,0.5v0.2c0,0.5-0.8,0.9-2.5,1.2v0.1c0.3,0.2,0.5,0.4,0.5,0.6c-0.2,0.7-0.4,1.1-0.4,1.3c0,0.1,0.1,0.1,0.1,0.2
			c-0.3,0-0.4-0.2-0.5-0.5v-0.1c0-0.2,0-0.3,0.1-0.6c-0.1-0.2-0.2-0.3-0.4-0.3h-0.1c-0.2,0.1-0.4,0.4-0.4,0.7c0,0.7,0.6,1.2,1.8,1.7
			l-0.1-0.3V194c0-0.4,0.2-1,0.5-1.8c0-0.2-0.1-0.3-0.1-0.4c0.2,0,0.4,0.1,0.5,0.3c0.8-0.3,1.3-0.7,1.6-1.4l0.1-0.3V190l-0.1-0.1
			l0.1-0.1c0.3,0.4,0.5,0.7,0.5,1c0,0.3-0.2,0.7-0.6,1.1v0.1h0.8c0.4,0,0.7-0.3,0.7-0.9c0-0.2-0.1-0.4-0.2-0.6H83
			c0.4,0.4,0.6,0.8,0.6,1.1v0.3c0,0.2-0.1,0.4-0.3,0.6v0.1c0.3,0.3,0.4,0.6,0.4,0.9v0.4c-0.1,0.4-0.1,0.6-0.3,0.6
			c-0.2-0.2-0.3-0.5-0.4-0.8h-0.1c-0.2,0.7-0.5,1-1.1,1h-0.2c-0.6-0.1-0.8-0.3-0.8-0.7c0-0.3,0.1-0.5,0.4-0.6h0.1
			c0,0.2-0.1,0.3-0.1,0.3c0,0.3,0.2,0.4,0.6,0.4c0.2,0,0.4-0.1,0.6-0.4c-0.1-0.7-0.4-1.1-0.9-1.1h-0.5c-0.5,0-0.8,0.3-0.9,0.9
			c-0.1,0.2-0.1,0.4-0.1,0.8c0,1,0.7,1.6,2.1,1.8h0.5c1.2,0,2.1-0.7,2.7-2c0.1-0.4,0.2-0.8,0.2-1v-0.4c-0.4-1.5-0.9-2.5-1.7-3.1
			c-1.2-0.6-2.2-0.9-3-0.9c-2.3,0-4.4,1.9-6.4,5.7c-1.2,1.7-2.5,2.5-4.2,2.5c-1.8,0-3.5-0.8-5.1-2.5c-1.1-1-2.5-2.4-4.1-4.2
			c-1.3-1-2.4-1.5-3.3-1.5h-0.1c-2,0-3.3,0.9-3.9,2.7c-0.1,0.7-0.2,1.1-0.2,1.2c0,1.7,0.8,2.8,2.5,3.5l0.5,0.1h0.7
			c0.8,0,1.4-0.5,1.9-1.5c0.1-0.1,0.1-0.3,0.1-0.4c0-0.8-0.6-1.3-1.7-1.4c-0.6,0.1-0.9,0.4-0.9,0.8c0,0.4,0.3,0.7,0.8,0.8
			c0.4,0,0.6-0.2,0.6-0.7c0,0-0.1,0-0.1-0.1H58c0.1,0,0.2,0.2,0.2,0.6v0.1c-0.1,0.5-0.4,0.7-0.9,0.7h-0.2c-0.2,0-0.5-0.1-0.8-0.3
			v0.1l0.1,0.4l-0.1,0.1c-0.2,0-0.4-0.3-0.6-0.8v-0.4h-0.3c-0.6,0-0.9-0.4-1.1-1.2v-0.1h0.1c0.1,0.5,0.4,0.8,0.8,0.8h0.1
			c0.1,0,0.4-0.1,0.8-0.4v-0.1h-0.3c-0.8-0.1-1.2-0.5-1.2-1.2c0-0.4,0.2-0.8,0.7-1.2v0.1c-0.1,0.3-0.2,0.6-0.2,0.8v0.2
			c0,0.5,0.4,0.8,1.1,0.8h0.2l0.3-0.1c-0.4-0.4-0.5-0.8-0.5-1.1v-0.4c0-0.5,0.5-0.9,1.4-1.1v0.1c-0.5,0.4-0.7,0.7-0.7,1
			c0,0.7,0.6,1.3,1.7,1.8l0.6,0.4c0.1-0.1,0.3-0.2,0.6-0.2c0.1,0,0.1,0.1,0.2,0.1l-0.3,0.3v0.2l0.4,1.2c0,0.2-0.1,0.4-0.2,0.6h0.1
			c1.2-0.6,1.7-1.1,1.7-1.6c0-0.3-0.2-0.4-0.6-0.4c-0.1,0-0.2,0.1-0.3,0.4c0.1,0.1,0.1,0.2,0.1,0.3c0,0.2-0.1,0.3-0.3,0.5
			c0-0.1-0.1-0.4-0.3-0.8v-0.2c0-0.1,0.1-0.4,0.3-0.6v-0.1c-1.9-0.5-2.8-1.2-2.8-2c0.1-0.4,0.4-0.6,0.7-0.6h0.3v0.1
			c-0.4,0-0.5,0.2-0.5,0.5c0.2,0.5,0.4,0.7,0.7,0.7v-0.1c0-0.4,0.2-0.5,0.5-0.5h0.2c0.1,0,0.3,0.1,0.6,0.3v0.1h-0.4
			c-0.1,0-0.1,0.1-0.2,0.2c0,0.2,0.7,0.7,2.2,1.3c0.2,0.3,0.4,0.6,0.4,0.9v0.3c0,0.2-0.1,0.4-0.4,0.8h0.2c0.7,0,1-0.2,1-0.6H63
			c0.1,0.1,0.2,0.2,0.2,0.4l-0.1,0.3c0.4,0,1.1,0.6,2.1,1.7c0.4,0.4,0.8,0.5,0.9,0.5v0.1h-0.3c-0.5,0-1-0.2-1.6-0.7
			c0,0.3-0.2,0.5-0.7,0.6h-0.4c-0.7-0.3-1.1-0.4-1.2-0.4h-0.4c-0.1,0-0.1,0.1-0.2,0.2l0.2,0.3v0.1h-0.3c-0.2,0-0.4-0.1-0.5-0.4
			c-0.6,0.3-1.3,0.4-2,0.4v-0.1c1.3-0.7,2.3-1,2.7-1h0.1c0.2,0,0.4,0,0.6,0.1c0-0.2,0.2-0.4,0.5-0.4c0.2,0,0.4,0.1,0.4,0.2
			c-0.2,0-0.3,0.1-0.3,0.3c0.1,0.2,0.2,0.3,0.4,0.3c0.2-0.1,0.4-0.2,0.4-0.3v-0.2c-0.1-0.5-0.4-0.7-0.9-0.7h-0.6
			c-0.8,0-2.2,0.6-4.3,1.7c-0.3,0.1-0.6,0.1-0.9,0.1h-0.3c-0.4,0-1.5-0.3-3.4-0.8c-0.4,0-0.5,0.2-0.5,0.5h-0.1v-0.4
			c0-0.4,0.3-0.7,1-0.8c-0.2-0.3-0.4-0.5-0.5-0.5c-0.3,0.1-0.4,0.1-0.4,0.1v-0.2c0.1-0.2,0.3-0.3,0.5-0.3c-0.3-0.5-0.5-1.1-0.5-1.8
			c0-0.8,0.2-1.7,0.6-3V189c-0.1-0.7-0.2-1.1-0.5-1.1v-0.1c0.6,0,1,0.4,1.2,1.2c0.4-0.2,0.6-0.4,0.6-0.7v-0.1c0-0.1-0.1-0.3-0.3-0.5
			C54.4,187.6,54.5,187.6,54.5,187.6z M56.9,197.2c0.7,0,1.5,0.3,2.5,1c1.1,0.6,2.1,1,3,1h0.2c0.7,0,1.1-0.3,1.1-0.9
			c-0.1-0.3-0.3-0.4-0.5-0.4c-0.2,0-0.3,0.1-0.3,0.4v0.1c0,0.1,0.1,0.1,0.3,0.2c0,0.1-0.1,0.2-0.4,0.2c-0.3-0.1-0.4-0.2-0.4-0.4
			l-0.7,0.1c-0.6,0-1.5-0.4-2.8-1.1v-0.1h0.1c0.6,0,1.3,0.1,2,0.4c0-0.3,0.2-0.4,0.6-0.4h0.1c0.1,0,0.1,0,0.1,0.1
			c-0.1,0-0.1,0.1-0.2,0.2v0.1c0,0.1,0.1,0.2,0.3,0.2c0.3,0,0.7-0.1,1.2-0.3c0.1,0,0.3-0.1,0.5-0.1h0.1c0.4,0,0.7,0.2,0.8,0.6
			c0.6-0.5,1.2-0.7,1.7-0.7h0.3v0.1c-0.4,0-1,0.5-1.9,1.5c-0.5,0.4-0.9,0.7-1.3,0.8c0.1,0.1,0.1,0.2,0.1,0.3
			c-0.1,0.2-0.1,0.3-0.2,0.3h-0.1c0-0.4-0.4-0.6-1.2-0.6c0.3,0.4,0.4,0.7,0.4,1c-0.2,0.7-0.4,1-0.7,1c-1.2,0.6-1.8,0.9-1.8,1.1v0.1
			l0.2,0.1h0.4v0.1c0,0.1-0.2,0.2-0.7,0.4c-0.4-0.1-0.6-0.3-0.6-0.6h-0.1c-0.5,0.1-0.7,0.3-0.7,0.7c0,0.3,0.2,0.4,0.5,0.4v0.1h-0.3
			c-0.5,0-0.7-0.3-0.7-0.8c0-0.6,0.9-1.2,2.8-1.8c-0.2-0.3-0.3-0.5-0.3-0.6v-0.3c0.2-0.4,0.3-0.6,0.3-0.8h0.1
			c0.2,0.1,0.3,0.2,0.3,0.4l-0.1,0.6l0.2,0.1H61c0.2,0,0.4-0.1,0.5-0.4c0-0.4-0.4-0.9-1.3-1.4l-0.5-0.3v0.1c0.1,0.3,0.2,0.5,0.2,0.6
			l-0.4,1.1c0,0.3,0.1,0.4,0.3,0.4v0.1h-0.3c-0.1,0-0.3-0.1-0.4-0.2c-0.1,0.1-0.8,0.6-2,1.2c-0.2,0.4-0.4,0.7-0.4,1
			c0,0.3,0.2,0.6,0.7,1v0.1c-0.9-0.2-1.4-0.6-1.4-1.3c0.2-0.8,0.4-1.2,0.6-1.2v-0.1l-0.3-0.1h-0.3c-0.7,0.1-1,0.3-1,0.7v0.4
			c0,0.1,0.1,0.3,0.2,0.7c-0.5-0.5-0.7-0.9-0.7-1.2c0-0.7,0.5-1.1,1.4-1.2H56V201c-0.4-0.3-0.8-0.4-1-0.4c-0.5,0.2-0.7,0.5-0.7,0.9
			h-0.1v-0.1c0.1-0.9,0.4-1.3,1-1.3h0.4v-0.5c0-0.2,0.2-0.5,0.5-0.8h0.1c0.1,0,0.1,0.2,0.1,0.5c0.3-0.2,0.5-0.3,0.7-0.3h0.1
			c0.7,0,1,0.2,1,0.6v0.1c0,0.2,0,0.4-0.1,0.6h-0.1v-0.2c0-0.3-0.2-0.5-0.7-0.5c-0.4,0-0.7,0.3-0.7,0.8c0.2,0.5,0.5,0.7,1.1,0.7
			c1.1-0.1,1.6-0.6,1.6-1.5c-0.2-0.6-0.4-1-0.8-1.3c-0.5-0.4-1-0.5-1.6-0.5c-1.7,0-2.8,1-3.4,2.9v1c0,1.6,0.8,2.7,2.4,3.4
			c0.4,0.2,1,0.3,1.7,0.3c1.6,0,3.4-1.2,5.3-3.7c2.8-2.8,4.9-4.3,6.1-4.3c0.2-0.1,0.6-0.1,1.2-0.1c2,0,3.7,1.5,5.2,4.4
			c1.7,2.5,3.3,3.8,4.9,3.8h0.8c0.8-0.1,1.7-0.4,2.7-1c0.8-0.7,1.3-1.7,1.6-3.1v-0.1c0-1.4-0.6-2.4-1.8-3.1
			c-0.4-0.2-0.9-0.3-1.4-0.3c-1.6,0-2.4,0.6-2.4,1.9c0.1,1,0.5,1.5,1.1,1.5h0.4c0.7,0,1.1-0.3,1.1-0.9v-0.1c0-0.4-0.2-0.5-0.6-0.5
			c-0.3,0-0.5,0.1-0.5,0.4l0.1,0.3c-0.1,0-0.2-0.1-0.4-0.4v-0.3c0-0.4,0.3-0.6,1-0.6c0.5,0,0.9,0.3,1.2,1v0.1H83
			c0.1-0.4,0.3-0.6,0.5-0.9c0.1,0.3,0.2,0.5,0.2,0.9v0.1c0,0.3-0.2,0.7-0.5,1.1v0.1c0.1,0,0.2,0.2,0.3,0.5v0.2
			c0,0.4-0.2,0.8-0.6,1.1h-0.1c0.1-0.3,0.2-0.5,0.2-0.7c0-0.6-0.3-0.9-1-0.9h-0.5c-0.1,0-0.1,0-0.1,0.1c0.4,0.3,0.6,0.7,0.6,1.1
			c-0.1,0.3-0.2,0.6-0.5,0.9c0,0,0-0.1-0.1-0.1l0.1-0.3v-0.1c0-0.7-0.5-1.3-1.6-1.8c-0.2,0.2-0.4,0.3-0.6,0.3v-0.1
			c0.1-0.1,0.1-0.2,0.1-0.3v-0.1c-0.4-0.8-0.5-1.5-0.5-1.9c0-0.2,0.1-0.4,0.1-0.5c-1.2,0.5-1.8,1-1.8,1.6v0.3c0,0.2,0.1,0.4,0.4,0.5
			c0.3-0.1,0.4-0.2,0.4-0.3c0-0.4-0.1-0.6-0.1-0.6c0-0.3,0.1-0.4,0.4-0.6c0,0.1,0.1,0.6,0.4,1.6c0,0.1-0.1,0.3-0.4,0.4v0.1
			c1.6,0.3,2.4,0.7,2.4,1.3v0.1c0,0.3-0.2,0.5-0.7,0.5H80v-0.1c0,0,0.1-0.1,0.2-0.3v-0.1c0-0.2-0.2-0.4-0.7-0.6
			c-0.1,0.4-0.3,0.6-0.5,0.6h-0.2l-0.3-0.1v-0.1c0.2,0,0.3-0.1,0.3-0.2v-0.1c0-0.3-0.4-0.6-1.2-0.9c-0.8-0.5-1.2-1-1.2-1.2V201
			c0-0.3,0.2-0.7,0.5-1.2v-0.1c-0.5,0-0.9,0.3-1.1,0.8h-0.2c0,0,0-0.2-0.1-0.4V200c0-0.1,0.1-0.3,0.2-0.4c-0.3,0-1-0.6-2.1-1.8
			c-0.1,0-0.3-0.1-0.5-0.4l0.1-0.1c0.5,0,1,0.2,1.5,0.5h0.1c0-0.3,0.3-0.4,0.9-0.5c0.4,0,0.9,0.2,1.6,0.5h0.3c0.1,0,0.1-0.1,0.2-0.2
			v-0.2l-0.1-0.2v-0.1c0.4,0.1,0.6,0.2,0.6,0.4h0.1c0.4-0.1,1-0.3,1.8-0.3v0.1c-1,0.5-1.6,0.8-2,0.9c-0.3,0-0.5,0.1-0.7,0.1
			c-0.3,0-0.5-0.1-0.8-0.2c-0.1,0.2-0.3,0.3-0.5,0.3c-0.2-0.1-0.4-0.1-0.4-0.2v-0.1c0.2,0,0.3,0,0.3-0.1c0-0.3-0.1-0.4-0.4-0.4
			c-0.2,0.1-0.3,0.2-0.3,0.4v0.1c0,0.4,0.4,0.6,1.2,0.8c1,0,2.4-0.4,4-1.3c0.7-0.3,1.2-0.4,1.7-0.4c0.4,0,1.3,0.3,2.7,0.9h0.3
			c0.3,0,0.5-0.2,0.5-0.7c0.2,0.1,0.3,0.3,0.3,0.6c0,0.4-0.3,0.6-0.8,0.8c0.4,0.6,0.6,1.4,0.6,2.3v0.3c0,0.2-0.1,1-0.4,2.4
			c0,0.3-0.1,0.6-0.1,0.8v0.1c0,0.2,0.2,0.7,0.6,1.5h-0.1c-0.8-0.4-1.3-0.9-1.3-1.6v-0.3c-0.3,0.3-0.5,0.7-0.6,1.1v0.2
			c0,0.1,0.1,0.3,0.3,0.5v0.1h-0.2c-0.6-0.1-0.9-0.3-0.9-0.8c-0.9,0.4-1.8,0.6-2.6,0.6c-0.5,0-1.1-0.1-1.8-0.3v0.1
			c0,0.1-0.2,0.2-0.5,0.3H78c-0.1,0-0.1,0-0.1-0.1c0.1,0,0.1-0.1,0.2-0.2v-0.3c-0.1-0.2-0.2-0.3-0.5-0.3c0,0.4-0.3,0.6-0.9,0.7
			c-0.1,0-0.7-0.1-1.6-0.4c-0.1,0-0.1,0.1-0.3,0.2c0.1,0.1,0.1,0.2,0.1,0.3l-0.1,0.1h-0.1c-0.2,0-0.4-0.1-0.5-0.4
			c-0.3,0.2-0.7,0.3-1.3,0.4v-0.1c1.1-0.7,1.8-1,2.1-1h0.5c0.2-0.2,0.3-0.3,0.5-0.3h0.1c0.1,0,0.1,0,0.1,0.1c-0.1,0-0.1,0.1-0.2,0.2
			v0.2c0.1,0.1,0.2,0.2,0.4,0.2h0.1c0.3,0,0.4-0.1,0.4-0.4c0-0.4-0.4-0.6-1.2-0.8h-0.2c-0.5,0-1.5,0.5-3.1,1.5
			c-0.5,0.2-1.2,0.3-2.1,0.3c-1.1,0-2-0.4-2.7-1.1c-0.9-0.7-1.9-1.1-2.8-1.2h-0.1c-1.1,0.2-1.6,0.5-1.6,1c0,0.5,0.3,0.8,0.7,0.8
			c0.4-0.1,0.5-0.2,0.5-0.5c-0.1-0.2-0.1-0.3-0.2-0.3h-0.2l-0.2,0.1h-0.1v-0.1c0.1-0.2,0.2-0.3,0.3-0.4h0.4c0.3,0,0.5,0.2,0.6,0.5
			l0.5-0.1h0.8c0.2,0,0.6,0.3,1.3,0.8c0.4,0.2,0.6,0.3,0.6,0.3v0.1h-0.1c-0.4,0-0.9-0.1-1.6-0.4c0,0.1-0.1,0.3-0.4,0.4h-0.4v-0.1
			c0.2-0.1,0.3-0.3,0.3-0.4c-0.1-0.1-0.3-0.2-0.4-0.2c-0.1,0-0.7,0.2-1.8,0.6h-0.4c-0.7-0.2-1-0.4-1-0.9h-0.1
			c-0.4,0.2-0.5,0.4-0.5,0.7c0,0.1,0.1,0.1,0.2,0.1v0.1h-0.1c-0.2,0-0.4-0.1-0.6-0.3c-0.5,0.1-0.9,0.2-1.5,0.3V206
			c0.7-0.1,1.8-1,3.3-2.5l0.4-0.2l-0.1-0.3c0-0.4,0.1-0.5,0.2-0.5H64c0,0.4,0.2,0.6,0.7,0.6h0.2c-0.1-0.4-0.2-0.7-0.2-0.9v-0.1
			c0-0.8,0.6-1.3,1.7-1.5c0.3,0,0.6-0.1,0.8-0.4v-0.1c0-0.1,0-0.1-0.1-0.1h-0.4v-0.1c0-0.1,0.2-0.2,0.5-0.3h0.2
			c0.2,0,0.4,0.1,0.5,0.4c0.3-0.1,0.4-0.3,0.4-0.7c0-0.1-0.1-0.2-0.4-0.2c0,0,0,0.1-0.1,0.1v-0.1c0-0.1,0.2-0.2,0.6-0.3
			c0.3,0.1,0.5,0.3,0.5,0.6v0.1c-0.3,0.8-0.7,1.2-1.2,1.2c0,0.1-0.4,0.2-1.2,0.3v0.1c0.1,0,0.2,0.1,0.2,0.3v0.1
			c-0.2,0.7-0.3,1.1-0.3,1.3h-0.1c-0.4-0.4-0.6-0.7-0.6-0.8c0,0,0.1,0,0.1-0.1c0.1,0.1,0.3,0.1,0.4,0.1l0.1-0.1v-0.1
			c0-0.3-0.2-0.4-0.5-0.4c-0.3,0.1-0.4,0.3-0.4,0.5v0.1c0,0.6,0.6,1.1,1.8,1.6v-0.1c-0.1-0.3-0.2-0.6-0.2-0.9c0-0.1,0.1-0.5,0.3-1.1
			v-0.1l-0.1-0.4h0.1c0.1,0,0.2,0,0.3,0.1c0-0.1,0.6-0.4,1.7-0.9c0.3-0.3,0.4-0.6,0.4-0.9v-0.3c0-0.3-0.2-0.5-0.5-0.5v-0.1h0.2
			c0.6,0,0.9,0.2,1.1,0.7c0,0.1,0,0.2,0.1,0.3c0,0.1-0.1,0.5-0.3,1.1l0.5,0.1c0.6-0.1,0.9-0.4,0.9-0.9v-0.1c0-0.2-0.1-0.4-0.4-0.8
			h0.1c0.7,0.5,1.1,0.9,1.1,1.2c0,0.6-0.4,1-1.1,1.1v0.1c0.3,0.4,0.5,0.6,0.8,0.6c0.2,0,0.5-0.1,0.7-0.4v0.1
			c-0.1,0.7-0.4,1.1-0.7,1.1h-0.4v0.1c0,0.8-0.2,1.3-0.7,1.6h-0.2c-0.1,0-0.1,0-0.1-0.1V204l0.1-0.4h-0.1c-0.4,0.1-0.7,0.2-0.9,0.2
			c-0.7-0.1-1-0.4-1-1c0-0.2,0.2-0.4,0.6-0.6v0.1l-0.1,0.2v0.4c0.1,0.2,0.3,0.3,0.6,0.3h0.1c0.5-0.1,0.7-0.3,0.7-0.6v-0.2
			c0-0.4-0.3-0.8-0.8-1h-0.6c-0.9,0.2-1.4,0.7-1.4,1.3c0,0-0.1,0.1-0.1,0.3c0,1.3,0.7,2.1,2.1,2.6c0.2,0,0.4,0,0.6,0.1
			c1.1,0,2-0.4,2.8-1.1c0.5-1,0.7-1.9,0.7-2.7c0-1.6-0.9-2.8-2.6-3.6c-0.6-0.2-1.1-0.3-1.5-0.3c-2,0-4.4,1.7-7.4,5.2
			c-1.7,1.9-3.4,2.9-5.3,2.9c-0.5,0-1-0.1-1.7-0.4c-0.2,0.3-0.5,0.5-0.7,0.5h-0.3V206c0.2-0.2,0.3-0.4,0.3-0.5v-0.1
			c-0.3-0.4-0.5-0.6-0.6-0.6c-0.2,0.8-0.6,1.2-1.1,1.2h-0.1v-0.1c0.3-0.3,0.5-0.8,0.5-1.5c0-0.2-0.1-0.7-0.4-1.7
			c-0.1-0.7-0.2-1.1-0.2-1.4v-0.2c0-0.4,0.2-0.9,0.5-1.7h-0.1c-0.3-0.1-0.5-0.2-0.5-0.5h0.1c0.1,0.1,0.3,0.1,0.4,0.1h0.1
			c0.2-0.1,0.4-0.3,0.5-0.5c-0.7,0-1-0.3-1-0.8v-0.3h0.1c0,0.4,0.2,0.5,0.5,0.5C55.4,197.5,56.6,197.2,56.9,197.2z M74.1,200.7
			c0.1,0.3,0.1,0.5,0.1,0.8v0.6c0,0.7-0.2,1.5-0.7,2.6c0.7-0.5,1.3-0.8,1.8-0.8c0.2,0,0.6,0.1,1.1,0.2
			C75.6,203,74.8,201.9,74.1,200.7L74.1,200.7z M73.6,189.2L73.6,189.2c0.5,0.9,0.7,1.9,0.7,3c0,0.4,0,0.7-0.1,0.9v0.1h0.1
			c0-0.3,0.8-1.4,2.3-3.3h-0.1c-0.4,0.1-0.8,0.2-1.1,0.2C74.8,190,74.2,189.7,73.6,189.2z M74.4,201.7h0.1c0.2,0.4,0.6,1.1,1.4,2
			c0,0-0.1,0-0.1,0.1c0,0-0.3-0.1-0.7-0.1c-0.5,0.1-0.8,0.2-1,0.3v-0.1C74.3,203.3,74.4,202.6,74.4,201.7z M74.2,189.9
			c0.3,0.2,0.7,0.3,1.1,0.3c0.2,0,0.4-0.1,0.6-0.1v0.1c-0.9,1.2-1.3,1.8-1.3,1.9h-0.1v-0.1C74.5,191.3,74.4,190.6,74.2,189.9z"/>
	</g>
	<g id="XMLID_224_">
		<path id="XMLID_225_" class="st20" d="M96.3,187.6c0.3,0,0.6,0.2,0.9,0.5c0.7-0.3,1.3-0.4,1.7-0.4c1.9,0,3.6,1.1,5.3,3.2
			c2.3,2.4,3.6,3.6,3.9,3.7c1.2,0.9,2.3,1.3,3.4,1.3c1.8,0,3.2-0.9,4-2.7c0.1-0.4,0.2-0.7,0.2-0.9v-0.5c0-1.4-0.4-2.4-1.2-3
			c-0.9-0.4-1.6-0.6-2.3-0.6c-1.1,0-2,0.7-2.5,2c-0.1,0.3-0.1,0.5-0.1,0.6c0,0.9,0.6,1.5,1.7,1.7c0.8-0.1,1.2-0.5,1.2-1.2
			c0-0.4-0.3-0.6-0.8-0.6c-0.4,0-0.6,0.2-0.6,0.5c0,0,0.1,0.2,0.2,0.4l-0.1,0.1c-0.4-0.3-0.5-0.5-0.5-0.8c0.1-0.5,0.4-0.7,0.8-0.8
			h0.5c0.3,0,0.5,0.1,0.7,0.2l-0.1-0.5v-0.3c0-0.1,0-0.1,0.1-0.1h0.2c0.5,0.3,0.7,0.9,0.7,1.7c0,0-0.1,0-0.1,0.1h0.5
			c0.3,0,0.6,0.4,0.7,1.2h-0.1c-0.2-0.3-0.4-0.4-0.7-0.5c-0.2,0-0.5,0.2-0.8,0.6v0.1h0.2c0.4,0,0.7,0.3,0.8,0.9v0.1
			c0,0.5-0.4,0.9-1.1,1.3v-0.1c0.3-0.3,0.4-0.5,0.4-0.7v-0.2c0-0.5-0.3-0.7-0.9-0.8l-0.4,0.1c0.1,0.6,0.2,1,0.2,1.1v0.1
			c0,0.4-0.3,0.7-0.9,0.9H111v-0.1c0.4,0,0.6-0.2,0.6-0.6c0-0.8-0.6-1.3-1.7-1.6l-0.4-0.3c-0.1,0.1-0.2,0.1-0.3,0.1l-0.1-0.1
			c0.1-0.1,0.1-0.3,0.1-0.3c-0.2-0.7-0.3-1.1-0.3-1.2c0.1-0.5,0.1-0.8,0.1-0.9c-1.2,0.4-1.7,0.9-1.7,1.6c0,0.3,0.2,0.5,0.5,0.5h0.1
			c0.3,0,0.4-0.1,0.4-0.4c0-0.1,0-0.1-0.1-0.1h-0.3l-0.1,0.1l-0.1-0.1l0.6-0.8h0.1v0.1c0,0.1,0.1,0.5,0.3,1.3c0,0.1-0.1,0.2-0.2,0.3
			v0.1c1.2,0.2,1.8,0.5,1.8,0.8c0.2,0,0.3,0.3,0.5,0.9c-0.1,0.4-0.3,0.6-0.6,0.6c-0.2,0-0.4-0.1-0.5-0.3v-0.1h0.3
			c0,0,0.1-0.1,0.2-0.2c-0.1-0.4-0.2-0.6-0.5-0.6c-0.1,0.3-0.3,0.4-0.5,0.4h-0.1c-0.1,0-0.3-0.1-0.6-0.2v-0.1h0.4
			c0,0,0.1-0.1,0.2-0.2c0-0.2-0.5-0.4-1.6-0.7c-0.6-0.4-0.8-0.8-0.8-1.2v-0.1c0-0.2,0.1-0.5,0.2-0.9h-0.2c-0.5,0-0.7,0.2-0.7,0.6
			h-0.1c-0.1,0-0.2-0.1-0.2-0.4v-0.1l0.1-0.3c-0.2,0-0.8-0.5-1.8-1.6c-0.7-0.6-1.3-0.9-1.8-1.1v-0.1h0.1c0.4,0,0.8,0.1,1.3,0.3
			c0-0.1,0.2-0.2,0.6-0.3v0.1l-0.2,0.3c0,0.2,0.2,0.4,0.6,0.6c0.2-0.6,0.6-0.9,1.3-0.9c0.2,0,0.8,0.2,1.9,0.6h0.1
			c0.2,0,0.3-0.1,0.4-0.2c0-0.2-0.1-0.3-0.3-0.4v-0.1h0.3c0.2,0,0.4,0.2,0.6,0.5c0.5-0.3,1-0.4,1.5-0.4v0.1
			c-1.1,0.8-1.7,1.1-1.8,1.1L108,189c-0.3,0-0.6,0-1.1-0.1c-0.2,0.3-0.4,0.5-0.6,0.5h-0.5c-0.2-0.1-0.3-0.3-0.3-0.4h0.1
			c0.1,0.1,0.3,0.2,0.4,0.2c0,0,0.1-0.1,0.2-0.3v-0.2c0-0.1-0.2-0.2-0.6-0.3c-0.3,0-0.5,0.2-0.6,0.7v0.1c0,0.4,0.5,0.8,1.6,1h0.3
			c1.1-0.2,2.2-0.7,3.2-1.7c0.6-0.4,1.3-0.6,2.1-0.6c1.4,0,2.5,0.4,3.4,1.2c0.7,0.4,1.3,0.6,1.8,0.6c0.7,0,1.1-0.2,1.3-0.7v-0.2
			c-0.1-0.2-0.3-0.3-0.6-0.3c-0.1,0-0.2,0.1-0.3,0.3v0.1c0,0.1,0.1,0.1,0.2,0.1v0.2h-0.2c-0.1,0-0.3-0.1-0.5-0.3h-0.5
			c-0.2,0-0.9-0.3-2.1-1v-0.1h0.1c0.3,0,0.7,0.1,1.3,0.4c0-0.3,0.2-0.4,0.6-0.4l0.1,0.1c-0.1,0.1-0.1,0.2-0.1,0.3
			c0.1,0.1,0.2,0.2,0.3,0.2c0.9-0.3,1.5-0.4,1.5-0.4c0.5,0,0.8,0.2,0.9,0.6v0.1h0.1c0.4-0.1,0.5-0.2,0.5-0.5l-0.2-0.3l0.2-0.1
			c0.3,0.1,0.5,0.2,0.6,0.4c0.6-0.2,1.1-0.3,1.6-0.3h0.4c0.6,0,1.4,0.2,2.5,0.6v-0.1c0-0.4,0.3-0.6,0.8-0.6h0.2v0.1
			c-0.2,0.2-0.3,0.4-0.3,0.5c0,0.3,0.2,0.7,0.6,1.3h0.1c0-0.8,0.3-1.3,0.8-1.6c0.1-0.2,0.3-0.3,0.5-0.3v0.1
			c-0.4,0.7-0.6,1.1-0.6,1.4c0,0.5,0.2,1.6,0.5,3.2v0.4c0,0.7-0.2,1.5-0.6,2.3h0.1c0.5,0.1,0.7,0.4,0.7,0.8c0,0.3-0.1,0.5-0.3,0.6
			h-0.1l0.1-0.3c0-0.2-0.2-0.4-0.5-0.5l-2.5,0.8c-0.1,0-0.2,0-0.4,0.1c-0.9,0-2.2-0.5-3.9-1.5c-0.7-0.2-1.2-0.3-1.5-0.3h-0.6
			c-0.7,0.1-1,0.4-1,0.8v0.1c0,0.3,0.1,0.4,0.4,0.4c0.2,0,0.4-0.1,0.4-0.4c0-0.1-0.1-0.1-0.3-0.1v-0.1c0-0.1,0.2-0.2,0.5-0.2
			c0.1,0,0.2,0.1,0.5,0.3c0.1-0.1,0.4-0.1,0.8-0.2c0.6,0,1.4,0.3,2.5,1l0.2,0.1v0.1c-1-0.1-1.6-0.2-2-0.4v0.1
			c-0.1,0.2-0.3,0.3-0.6,0.3h-0.1v-0.1l0.1-0.2v-0.2c0-0.1-0.1-0.1-0.2-0.2h-0.2c-0.1,0-0.5,0.1-1.2,0.4c-0.1,0-0.3,0.1-0.5,0.1
			h-0.2c-0.5-0.1-0.8-0.3-0.8-0.5h-0.1c-0.4,0.3-0.9,0.5-1.4,0.5h-0.1v-0.1c0.5-0.3,1.1-0.9,1.9-1.8c0.4-0.3,0.6-0.4,0.7-0.4
			c-0.1-0.2-0.2-0.4-0.2-0.5c0.1-0.3,0.2-0.4,0.2-0.4c0.3,0.5,0.7,0.8,1.2,0.8c-0.4-0.5-0.6-1-0.6-1.5c0-0.6,0.8-1.2,2.3-1.8
			l0.2-0.4c-0.1-0.2-0.2-0.3-0.3-0.3v-0.1h0.5c0.3,0,0.4,0.2,0.4,0.5c0.5-0.1,0.8-0.3,0.8-0.5c0-0.2-0.1-0.3-0.2-0.3v-0.1h0.2
			c0.4,0.1,0.6,0.3,0.6,0.5v0.2c0,0.5-0.8,0.9-2.5,1.2v0.1c0.3,0.2,0.5,0.4,0.5,0.6c-0.2,0.7-0.4,1.1-0.4,1.3c0,0.1,0.1,0.1,0.1,0.2
			c-0.3,0-0.4-0.2-0.5-0.5v-0.1c0-0.2,0-0.3,0.1-0.6c-0.1-0.2-0.2-0.3-0.4-0.3h-0.1c-0.2,0.1-0.4,0.4-0.4,0.7c0,0.7,0.6,1.2,1.8,1.7
			l-0.1-0.3V194c0-0.4,0.2-1,0.5-1.8c0-0.2-0.1-0.3-0.1-0.4c0.2,0,0.4,0.1,0.5,0.3c0.8-0.3,1.3-0.7,1.6-1.4l0.1-0.3V190l-0.1-0.1
			l0.1-0.1c0.3,0.4,0.5,0.7,0.5,1c0,0.3-0.2,0.7-0.6,1.1v0.1h0.8c0.4,0,0.7-0.3,0.7-0.9c0-0.2-0.1-0.4-0.2-0.6h0.1
			c0.4,0.4,0.6,0.8,0.6,1.1v0.3c0,0.2-0.1,0.4-0.3,0.6v0.1c0.3,0.3,0.4,0.6,0.4,0.9v0.4c-0.1,0.4-0.1,0.6-0.3,0.6
			c-0.2-0.2-0.3-0.5-0.4-0.8h-0.1c-0.2,0.7-0.5,1-1.1,1h-0.2c-0.6-0.1-0.8-0.3-0.8-0.7c0-0.3,0.1-0.5,0.4-0.6h0.1
			c0,0.2-0.1,0.3-0.1,0.3c0,0.3,0.2,0.4,0.6,0.4c0.2,0,0.4-0.1,0.6-0.4c-0.1-0.7-0.4-1.1-0.9-1.1h-0.5c-0.5,0-0.8,0.3-0.9,0.9
			c-0.1,0.2-0.1,0.4-0.1,0.8c0,1,0.7,1.6,2.1,1.8h0.5c1.2,0,2.1-0.7,2.7-2c0.1-0.4,0.2-0.8,0.2-1v-0.4c-0.4-1.5-0.9-2.5-1.7-3.1
			c-1.2-0.6-2.2-0.9-3-0.9c-2.3,0-4.4,1.9-6.4,5.7c-1.2,1.7-2.5,2.5-4.2,2.5c-1.8,0-3.5-0.8-5.1-2.5c-1.1-1-2.5-2.4-4.1-4.2
			c-1.3-1-2.4-1.5-3.3-1.5h-0.1c-2,0-3.3,0.9-3.9,2.7c-0.1,0.7-0.2,1.1-0.2,1.2c0,1.7,0.8,2.8,2.5,3.5l0.5,0.1H99
			c0.8,0,1.4-0.5,1.9-1.5c0.1-0.1,0.1-0.3,0.1-0.4c0-0.8-0.6-1.3-1.7-1.4c-0.6,0.1-0.9,0.4-0.9,0.8c0,0.4,0.3,0.7,0.8,0.8
			c0.4,0,0.6-0.2,0.6-0.7c0,0-0.1,0-0.1-0.1h0.1c0.1,0,0.2,0.2,0.2,0.6v0.1c-0.1,0.5-0.4,0.7-0.9,0.7h-0.2c-0.2,0-0.5-0.1-0.8-0.3
			v0.1l0.1,0.4l-0.1,0.1c-0.2,0-0.4-0.3-0.6-0.8v-0.4h-0.3c-0.6,0-0.9-0.4-1.1-1.2v-0.1h0.1c0.1,0.5,0.4,0.8,0.8,0.8H97
			c0.1,0,0.4-0.1,0.8-0.4v-0.1h-0.3c-0.8-0.1-1.2-0.5-1.2-1.2c0-0.4,0.2-0.8,0.7-1.2v0.1c-0.1,0.3-0.2,0.6-0.2,0.8v0.2
			c0,0.5,0.4,0.8,1.1,0.8h0.2l0.3-0.1c-0.4-0.4-0.5-0.8-0.5-1.1v-0.4c0-0.5,0.5-0.9,1.4-1.1v0.1c-0.5,0.4-0.7,0.7-0.7,1
			c0,0.7,0.6,1.3,1.7,1.8l0.6,0.4c0.1-0.1,0.3-0.2,0.6-0.2c0.1,0,0.1,0.1,0.2,0.1l-0.3,0.3v0.2l0.4,1.2c0,0.2-0.1,0.4-0.2,0.6h0.1
			c1.2-0.6,1.7-1.1,1.7-1.6c0-0.3-0.2-0.4-0.6-0.4c-0.1,0-0.2,0.1-0.3,0.4c0.1,0.1,0.1,0.2,0.1,0.3c0,0.2-0.1,0.3-0.3,0.5
			c0-0.1-0.1-0.4-0.3-0.8v-0.2c0-0.1,0.1-0.4,0.3-0.6v-0.1c-1.9-0.5-2.8-1.2-2.8-2c0.1-0.4,0.4-0.6,0.7-0.6h0.3v0.1
			c-0.4,0-0.5,0.2-0.5,0.5c0.2,0.5,0.4,0.7,0.7,0.7v-0.1c0-0.4,0.2-0.5,0.5-0.5h0.2c0.1,0,0.3,0.1,0.6,0.3v0.1h-0.4
			c-0.1,0-0.1,0.1-0.2,0.2c0,0.2,0.7,0.7,2.2,1.3c0.2,0.3,0.4,0.6,0.4,0.9v0.3c0,0.2-0.1,0.4-0.4,0.8h0.2c0.7,0,1-0.2,1-0.6h0.1
			c0.1,0.1,0.2,0.2,0.2,0.4l-0.1,0.3c0.4,0,1.1,0.6,2.1,1.7c0.4,0.4,0.8,0.5,0.9,0.5v0.1h-0.3c-0.5,0-1-0.2-1.6-0.7
			c0,0.3-0.2,0.5-0.7,0.6h-0.4c-0.7-0.3-1.1-0.4-1.2-0.4h-0.4c-0.1,0-0.1,0.1-0.2,0.2l0.2,0.3v0.1H103c-0.2,0-0.4-0.1-0.5-0.4
			c-0.6,0.3-1.3,0.4-2,0.4v-0.1c1.3-0.7,2.3-1,2.7-1h0.1c0.2,0,0.4,0,0.6,0.1c0-0.2,0.2-0.4,0.5-0.4c0.2,0,0.4,0.1,0.4,0.2
			c-0.2,0-0.3,0.1-0.3,0.3c0.1,0.2,0.2,0.3,0.4,0.3c0.2-0.1,0.4-0.2,0.4-0.3v-0.2c-0.1-0.5-0.4-0.7-0.9-0.7h-0.6
			c-0.8,0-2.2,0.6-4.3,1.7c-0.3,0.1-0.6,0.1-0.9,0.1h-0.3c-0.4,0-1.5-0.3-3.4-0.8c-0.4,0-0.5,0.2-0.5,0.5h-0.1v-0.4
			c0-0.4,0.3-0.7,1-0.8c-0.2-0.3-0.4-0.5-0.5-0.5c-0.3,0.1-0.4,0.1-0.4,0.1v-0.2c0.1-0.2,0.3-0.3,0.5-0.3c-0.3-0.5-0.5-1.1-0.5-1.8
			c0-0.8,0.2-1.7,0.6-3V189c-0.1-0.7-0.2-1.1-0.5-1.1v-0.1c0.6,0,1,0.4,1.2,1.2c0.4-0.2,0.6-0.4,0.6-0.7v-0.1c0-0.1-0.1-0.3-0.3-0.5
			C96.2,187.6,96.2,187.6,96.3,187.6z M98.6,197.2c0.7,0,1.5,0.3,2.5,1c1.1,0.6,2.1,1,3,1h0.2c0.7,0,1.1-0.3,1.1-0.9
			c-0.1-0.3-0.3-0.4-0.5-0.4c-0.2,0-0.3,0.1-0.3,0.4v0.1c0,0.1,0.1,0.1,0.3,0.2c0,0.1-0.1,0.2-0.4,0.2c-0.3-0.1-0.4-0.2-0.4-0.4
			l-0.7,0.1c-0.6,0-1.5-0.4-2.8-1.1v-0.1h0.1c0.6,0,1.3,0.1,2,0.4c0-0.3,0.2-0.4,0.6-0.4h0.1c0.1,0,0.1,0,0.1,0.1
			c-0.1,0-0.1,0.1-0.2,0.2v0.1c0,0.1,0.1,0.2,0.3,0.2c0.3,0,0.7-0.1,1.2-0.3c0.1,0,0.3-0.1,0.5-0.1h0.1c0.4,0,0.7,0.2,0.8,0.6
			c0.6-0.5,1.2-0.7,1.7-0.7h0.3v0.1c-0.4,0-1,0.5-1.9,1.5c-0.5,0.4-0.9,0.7-1.3,0.8c0.1,0.1,0.1,0.2,0.1,0.3
			c-0.1,0.2-0.1,0.3-0.2,0.3h-0.1c0-0.4-0.4-0.6-1.2-0.6c0.3,0.4,0.4,0.7,0.4,1c-0.2,0.7-0.4,1-0.7,1c-1.2,0.6-1.8,0.9-1.8,1.1v0.1
			l0.2,0.1h0.4v0.1c0,0.1-0.2,0.2-0.7,0.4c-0.4-0.1-0.6-0.3-0.6-0.6h-0.1c-0.5,0.1-0.7,0.3-0.7,0.7c0,0.3,0.2,0.4,0.5,0.4v0.1h-0.3
			c-0.5,0-0.7-0.3-0.7-0.8c0-0.6,0.9-1.2,2.8-1.8c-0.2-0.3-0.3-0.5-0.3-0.6v-0.3c0.2-0.4,0.3-0.6,0.3-0.8h0.1
			c0.2,0.1,0.3,0.2,0.3,0.4l-0.1,0.6l0.2,0.1h0.2c0.2,0,0.4-0.1,0.5-0.4c0-0.4-0.4-0.9-1.3-1.4l-0.5-0.3v0.1
			c0.1,0.3,0.2,0.5,0.2,0.6l-0.4,1.1c0,0.3,0.1,0.4,0.3,0.4v0.1h-0.3c-0.1,0-0.3-0.1-0.4-0.2c-0.1,0.1-0.8,0.6-2,1.2
			c-0.2,0.4-0.4,0.7-0.4,1c0,0.3,0.2,0.6,0.7,1v0.1c-0.9-0.2-1.4-0.6-1.4-1.3c0.2-0.8,0.4-1.2,0.6-1.2v-0.1l-0.3-0.1h-0.3
			c-0.7,0.1-1,0.3-1,0.7v0.4c0,0.1,0.1,0.3,0.2,0.7c-0.5-0.5-0.7-0.9-0.7-1.2c0-0.7,0.5-1.1,1.4-1.2h0.1V201c-0.4-0.3-0.8-0.4-1-0.4
			c-0.5,0.2-0.7,0.5-0.7,0.9H96v-0.1c0.1-0.9,0.4-1.3,1-1.3h0.4v-0.5c0-0.2,0.2-0.5,0.5-0.8H98c0.1,0,0.1,0.2,0.1,0.5
			c0.3-0.2,0.5-0.3,0.7-0.3h0.1c0.7,0,1,0.2,1,0.6v0.1c0,0.2,0,0.4-0.1,0.6h-0.1v-0.2c0-0.3-0.2-0.5-0.7-0.5c-0.4,0-0.7,0.3-0.7,0.8
			c0.2,0.5,0.5,0.7,1.1,0.7c1.1-0.1,1.6-0.6,1.6-1.5c-0.2-0.6-0.4-1-0.8-1.3c-0.5-0.4-1-0.5-1.6-0.5c-1.7,0-2.8,1-3.4,2.9v1
			c0,1.6,0.8,2.7,2.4,3.4c0.4,0.2,1,0.3,1.7,0.3c1.6,0,3.4-1.2,5.3-3.7c2.8-2.8,4.9-4.3,6.1-4.3c0.2-0.1,0.6-0.1,1.2-0.1
			c2,0,3.7,1.5,5.2,4.4c1.7,2.5,3.3,3.8,4.9,3.8h0.8c0.8-0.1,1.7-0.4,2.7-1c0.8-0.7,1.3-1.7,1.6-3.1v-0.1c0-1.4-0.6-2.4-1.8-3.1
			c-0.4-0.2-0.9-0.3-1.4-0.3c-1.6,0-2.4,0.6-2.4,1.9c0.1,1,0.5,1.5,1.1,1.5h0.4c0.7,0,1.1-0.3,1.1-0.9v-0.1c0-0.4-0.2-0.5-0.6-0.5
			c-0.3,0-0.5,0.1-0.5,0.4l0.1,0.3c-0.1,0-0.2-0.1-0.4-0.4v-0.3c0-0.4,0.3-0.6,1-0.6c0.5,0,0.9,0.3,1.2,1v0.1h0.1
			c0.1-0.4,0.3-0.6,0.5-0.9c0.1,0.3,0.2,0.5,0.2,0.9v0.1c0,0.3-0.2,0.7-0.5,1.1v0.1c0.1,0,0.2,0.2,0.3,0.5v0.2
			c0,0.4-0.2,0.8-0.6,1.1h-0.1c0.1-0.3,0.2-0.5,0.2-0.7c0-0.6-0.3-0.9-1-0.9h-0.5c-0.1,0-0.1,0-0.1,0.1c0.4,0.3,0.6,0.7,0.6,1.1
			c-0.1,0.3-0.2,0.6-0.5,0.9c0,0,0-0.1-0.1-0.1l0.1-0.3v-0.1c0-0.7-0.5-1.3-1.6-1.8c-0.2,0.2-0.4,0.3-0.6,0.3v-0.1
			c0.1-0.1,0.1-0.2,0.1-0.3v-0.1c-0.4-0.8-0.5-1.5-0.5-1.9c0-0.2,0.1-0.4,0.1-0.5c-1.2,0.5-1.8,1-1.8,1.6v0.3c0,0.2,0.1,0.4,0.4,0.5
			c0.3-0.1,0.4-0.2,0.4-0.3c0-0.4-0.1-0.6-0.1-0.6c0-0.3,0.1-0.4,0.4-0.6c0,0.1,0.1,0.6,0.4,1.6c0,0.1-0.1,0.3-0.4,0.4v0.1
			c1.6,0.3,2.4,0.7,2.4,1.3v0.1c0,0.3-0.2,0.5-0.7,0.5h-0.1v-0.1c0,0,0.1-0.1,0.2-0.3v-0.1c0-0.2-0.2-0.4-0.7-0.6
			c-0.1,0.4-0.3,0.6-0.5,0.6h-0.2l-0.3-0.1v-0.1c0.2,0,0.3-0.1,0.3-0.2v-0.1c0-0.3-0.4-0.6-1.2-0.9c-0.8-0.5-1.2-1-1.2-1.2V201
			c0-0.3,0.2-0.7,0.5-1.2v-0.1c-0.5,0-0.9,0.3-1.1,0.8h-0.2c0,0,0-0.2-0.1-0.4V200c0-0.1,0.1-0.3,0.2-0.4c-0.3,0-1-0.6-2.1-1.8
			c-0.1,0-0.3-0.1-0.5-0.4l0.1-0.1c0.5,0,1,0.2,1.5,0.5h0.1c0-0.3,0.3-0.4,0.9-0.5c0.4,0,0.9,0.2,1.6,0.5h0.3c0.1,0,0.1-0.1,0.2-0.2
			v-0.2l-0.1-0.2v-0.1c0.4,0.1,0.6,0.2,0.6,0.4h0.1c0.4-0.1,1-0.3,1.8-0.3v0.1c-1,0.5-1.6,0.8-2,0.9c-0.3,0-0.5,0.1-0.7,0.1
			c-0.3,0-0.5-0.1-0.8-0.2c-0.1,0.2-0.3,0.3-0.5,0.3c-0.2-0.1-0.4-0.1-0.4-0.2v-0.1c0.2,0,0.3,0,0.3-0.1c0-0.3-0.1-0.4-0.4-0.4
			c-0.2,0.1-0.3,0.2-0.3,0.4v0.1c0,0.4,0.4,0.6,1.2,0.8c1,0,2.4-0.4,4-1.3c0.7-0.3,1.2-0.4,1.7-0.4c0.4,0,1.3,0.3,2.7,0.9h0.3
			c0.3,0,0.5-0.2,0.5-0.7c0.2,0.1,0.3,0.3,0.3,0.6c0,0.4-0.3,0.6-0.8,0.8c0.4,0.6,0.6,1.4,0.6,2.3v0.3c0,0.2-0.1,1-0.4,2.4
			c0,0.3-0.1,0.6-0.1,0.8v0.1c0,0.2,0.2,0.7,0.6,1.5h-0.1c-0.8-0.4-1.3-0.9-1.3-1.6v-0.3c-0.3,0.3-0.5,0.7-0.6,1.1v0.2
			c0,0.1,0.1,0.3,0.3,0.5v0.1h-0.2c-0.6-0.1-0.9-0.3-0.9-0.8c-0.9,0.4-1.8,0.6-2.6,0.6c-0.5,0-1.1-0.1-1.8-0.3v0.1
			c0,0.1-0.2,0.2-0.5,0.3h-0.2c-0.1,0-0.1,0-0.1-0.1c0.1,0,0.1-0.1,0.2-0.2v-0.3c-0.1-0.2-0.2-0.3-0.5-0.3c0,0.4-0.3,0.6-0.9,0.7
			c-0.1,0-0.7-0.1-1.6-0.4c-0.1,0-0.1,0.1-0.3,0.2c0.1,0.1,0.1,0.2,0.1,0.3l-0.1,0.1h-0.1c-0.2,0-0.4-0.1-0.5-0.4
			c-0.3,0.2-0.7,0.3-1.3,0.4v-0.1c1.1-0.7,1.8-1,2.1-1h0.5c0.2-0.2,0.3-0.3,0.5-0.3h0.1c0.1,0,0.1,0,0.1,0.1c-0.1,0-0.1,0.1-0.2,0.2
			v0.2c0.1,0.1,0.2,0.2,0.4,0.2h0.1c0.3,0,0.4-0.1,0.4-0.4c0-0.4-0.4-0.6-1.2-0.8h-0.2c-0.5,0-1.5,0.5-3.1,1.5
			c-0.5,0.2-1.2,0.3-2.1,0.3c-1.1,0-2-0.4-2.7-1.1c-0.9-0.7-1.9-1.1-2.8-1.2h-0.1c-1.1,0.2-1.6,0.5-1.6,1c0,0.5,0.3,0.8,0.7,0.8
			c0.4-0.1,0.5-0.2,0.5-0.5c-0.1-0.2-0.1-0.3-0.2-0.3h-0.2l-0.2,0.1h-0.1v-0.1c0.1-0.2,0.2-0.3,0.3-0.4h0.4c0.3,0,0.5,0.2,0.6,0.5
			l0.5-0.1h0.8c0.2,0,0.6,0.3,1.3,0.8c0.4,0.2,0.6,0.3,0.6,0.3v0.1h-0.1c-0.4,0-0.9-0.1-1.6-0.4c0,0.1-0.1,0.3-0.4,0.4h-0.4v-0.1
			c0.2-0.1,0.3-0.3,0.3-0.4c-0.1-0.1-0.3-0.2-0.4-0.2c-0.1,0-0.7,0.2-1.8,0.6h-0.4c-0.7-0.2-1-0.4-1-0.9h-0.1
			c-0.4,0.2-0.5,0.4-0.5,0.7c0,0.1,0.1,0.1,0.2,0.1v0.1h-0.1c-0.2,0-0.4-0.1-0.6-0.3c-0.5,0.1-0.9,0.2-1.5,0.3V206
			c0.7-0.1,1.8-1,3.3-2.5l0.4-0.2l-0.1-0.3c0-0.4,0.1-0.5,0.2-0.5h0.1c0,0.4,0.2,0.6,0.7,0.6h0.2c-0.1-0.4-0.2-0.7-0.2-0.9v-0.1
			c0-0.8,0.6-1.3,1.7-1.5c0.3,0,0.6-0.1,0.8-0.4v-0.1c0-0.1,0-0.1-0.1-0.1h-0.4v-0.1c0-0.1,0.2-0.2,0.5-0.3h0.2
			c0.2,0,0.4,0.1,0.5,0.4c0.3-0.1,0.4-0.3,0.4-0.7c0-0.1-0.1-0.2-0.4-0.2c0,0,0,0.1-0.1,0.1v-0.1c0-0.1,0.2-0.2,0.6-0.3
			c0.3,0.1,0.5,0.3,0.5,0.6v0.1c-0.3,0.8-0.7,1.2-1.2,1.2c0,0.1-0.4,0.2-1.2,0.3v0.1c0.1,0,0.2,0.1,0.2,0.3v0.1
			c-0.2,0.7-0.3,1.1-0.3,1.3h-0.1c-0.4-0.4-0.6-0.7-0.6-0.8c0,0,0.1,0,0.1-0.1c0.1,0.1,0.3,0.1,0.4,0.1l0.1-0.1v-0.1
			c0-0.3-0.2-0.4-0.5-0.4c-0.3,0.1-0.4,0.3-0.4,0.5v0.1c0,0.6,0.6,1.1,1.8,1.6v-0.1c-0.1-0.3-0.2-0.6-0.2-0.9c0-0.1,0.1-0.5,0.3-1.1
			v-0.1l-0.1-0.4h0.1c0.1,0,0.2,0,0.3,0.1c0-0.1,0.6-0.4,1.7-0.9c0.3-0.3,0.4-0.6,0.4-0.9v-0.3c0-0.3-0.2-0.5-0.5-0.5v-0.1h0.2
			c0.6,0,0.9,0.2,1.1,0.7c0,0.1,0,0.2,0.1,0.3c0,0.1-0.1,0.5-0.3,1.1l0.5,0.1c0.6-0.1,0.9-0.4,0.9-0.9v-0.1c0-0.2-0.1-0.4-0.4-0.8
			h0.1c0.7,0.5,1.1,0.9,1.1,1.2c0,0.6-0.4,1-1.1,1.1v0.1c0.3,0.4,0.5,0.6,0.8,0.6c0.2,0,0.5-0.1,0.7-0.4v0.1
			c-0.1,0.7-0.4,1.1-0.7,1.1h-0.4v0.1c0,0.8-0.2,1.3-0.7,1.6h-0.2c-0.1,0-0.1,0-0.1-0.1V204l0.1-0.4h-0.1c-0.4,0.1-0.7,0.2-0.9,0.2
			c-0.7-0.1-1-0.4-1-1c0-0.2,0.2-0.4,0.6-0.6v0.1l-0.1,0.2v0.4c0.1,0.2,0.3,0.3,0.6,0.3h0.1c0.5-0.1,0.7-0.3,0.7-0.6v-0.2
			c0-0.4-0.3-0.8-0.8-1H111c-0.9,0.2-1.4,0.7-1.4,1.3c0,0-0.1,0.1-0.1,0.3c0,1.3,0.7,2.1,2.1,2.6c0.2,0,0.4,0,0.6,0.1
			c1.1,0,2-0.4,2.8-1.1c0.5-1,0.7-1.9,0.7-2.7c0-1.6-0.9-2.8-2.6-3.6c-0.6-0.2-1.1-0.3-1.5-0.3c-2,0-4.4,1.7-7.4,5.2
			c-1.7,1.9-3.4,2.9-5.3,2.9c-0.5,0-1-0.1-1.7-0.4c-0.2,0.3-0.5,0.5-0.7,0.5h-0.3V206c0.2-0.2,0.3-0.4,0.3-0.5v-0.1
			c-0.3-0.4-0.5-0.6-0.6-0.6c-0.2,0.8-0.6,1.2-1.1,1.2h-0.1v-0.1c0.3-0.3,0.5-0.8,0.5-1.5c0-0.2-0.1-0.7-0.4-1.7
			c-0.1-0.7-0.2-1.1-0.2-1.4v-0.2c0-0.4,0.2-0.9,0.5-1.7h-0.1c-0.3-0.1-0.5-0.2-0.5-0.5h0.1c0.1,0.1,0.3,0.1,0.4,0.1H95
			c0.2-0.1,0.4-0.3,0.5-0.5c-0.7,0-1-0.3-1-0.8v-0.3h0.1c0,0.4,0.2,0.5,0.5,0.5C97.1,197.5,98.3,197.2,98.6,197.2z M115.9,200.7
			c0.1,0.3,0.1,0.5,0.1,0.8v0.6c0,0.7-0.2,1.5-0.7,2.6c0.7-0.5,1.3-0.8,1.8-0.8c0.2,0,0.6,0.1,1.1,0.2
			C117.4,203,116.6,201.9,115.9,200.7L115.9,200.7z M115.4,189.2L115.4,189.2c0.5,0.9,0.7,1.9,0.7,3c0,0.4,0,0.7-0.1,0.9v0.1h0.1
			c0-0.3,0.8-1.4,2.3-3.3h-0.1c-0.4,0.1-0.8,0.2-1.1,0.2C116.6,190,116,189.7,115.4,189.2z M116.2,201.7h0.1c0.2,0.4,0.6,1.1,1.4,2
			c0,0-0.1,0-0.1,0.1c0,0-0.3-0.1-0.7-0.1c-0.5,0.1-0.8,0.2-1,0.3v-0.1C116.1,203.3,116.2,202.6,116.2,201.7z M116,189.9
			c0.3,0.2,0.7,0.3,1.1,0.3c0.2,0,0.4-0.1,0.6-0.1v0.1c-0.9,1.2-1.3,1.8-1.3,1.9h-0.1v-0.1C116.3,191.3,116.2,190.6,116,189.9z"/>
	</g>
	<g id="XMLID_211_">
		<path id="XMLID_221_" class="st15" d="M207.8,169.4v39.5h-25.3V102.5h41.9c9.3,0,16.5,1,21.5,3c5,2,9.4,5.6,13.3,10.7
			c3.9,5.1,5.8,11.5,5.8,18.9c0,5.2-1,10.4-3.1,15.3c-2.1,5-5,8.9-8.8,11.8c-3.8,2.9-7.5,4.8-11,5.7c-3.6,0.9-9.1,1.4-16.7,1.4
			H207.8z M206.9,150h16.2c6.2,0,10.5-1.4,13-4.3c2.5-2.9,3.7-6.1,3.7-9.8c0-4.3-1.4-7.7-4.2-10.3c-2.8-2.5-7-3.8-12.7-3.8h-16.1
			V150z"/>
		<path id="XMLID_218_" class="st15" d="M304,169.4v39.5h-25.3V102.5h41.9c9.3,0,16.5,1,21.5,3c5,2,9.4,5.6,13.3,10.7
			c3.9,5.1,5.8,11.5,5.8,18.9c0,5.2-1,10.4-3.1,15.3c-2.1,5-5,8.9-8.8,11.8c-3.8,2.9-7.5,4.8-11,5.7c-3.6,0.9-9.1,1.4-16.7,1.4H304z
			 M303.2,150h16.2c6.2,0,10.5-1.4,13-4.3c2.5-2.9,3.7-6.1,3.7-9.8c0-4.3-1.4-7.7-4.2-10.3c-2.8-2.5-7-3.8-12.7-3.8h-16.1V150z"/>
		<path id="XMLID_216_" class="st15" d="M457.1,102.5v106.3h-24.5V165h-33.2v43.9H375V102.5h24.5V144h33.2v-41.4H457.1z"/>
		<path id="XMLID_212_" class="st15" d="M478.5,102.5H528c8.9,0,15.6,1.1,20,3.3c4.5,2.2,8.2,5.3,11.1,9.3c2.9,4,4.4,9,4.4,14.8
			c0,11.8-6.4,19.6-19.2,23.6c7.4,1.7,12.9,5,16.6,9.9c3.7,4.9,5.5,10.3,5.5,16.1c0,8-3,14.8-9,20.6c-6,5.8-15.8,8.7-29.4,8.7h-49.5
			V102.5z M503.3,121.3v23.3h18.9c6.9,0,11.3-1.4,13-4.1c1.8-2.7,2.7-5.3,2.7-7.8c0-2.7-0.7-5-2.2-7c-1.5-1.9-3.1-3.2-4.9-3.7
			c-1.8-0.5-5.2-0.7-10.4-0.7H503.3z M503.3,163.5v25.6h19.1c6.5,0,11.1-1.1,13.8-3.4c2.7-2.3,4-5.5,4-9.6c0-3.4-1.3-6.4-3.9-8.9
			s-6.9-3.7-12.9-3.7H503.3z"/>
	</g>
	<g id="XMLID_194_">
		<path id="XMLID_208_" d="M598.3,114.7v7.2h-4.6v-19.3h7.6c1.7,0,3,0.2,3.9,0.5c0.9,0.4,1.7,1,2.4,1.9c0.7,0.9,1.1,2.1,1.1,3.4
			c0,1-0.2,1.9-0.6,2.8c-0.4,0.9-0.9,1.6-1.6,2.1c-0.7,0.5-1.4,0.9-2,1c-0.6,0.2-1.7,0.3-3,0.3H598.3z M598.1,111.2h2.9
			c1.1,0,1.9-0.3,2.4-0.8c0.5-0.5,0.7-1.1,0.7-1.8c0-0.8-0.3-1.4-0.8-1.9c-0.5-0.5-1.3-0.7-2.3-0.7h-2.9V111.2z"/>
		<path id="XMLID_206_" d="M626.3,102.6v12c0,1.9-0.2,3.4-0.7,4.3c-0.4,0.9-1.3,1.7-2.4,2.3c-1.2,0.6-2.7,0.9-4.6,0.9
			s-3.3-0.3-4.4-0.8c-1.1-0.5-1.9-1.3-2.5-2.3c-0.5-1-0.8-2.5-0.8-4.4v-12h4.9v12c0,1,0.1,1.8,0.3,2.3c0.2,0.5,0.5,0.9,1,1.2
			c0.5,0.3,1.2,0.4,1.9,0.4c0.8,0,1.5-0.1,2.1-0.4c0.5-0.3,0.9-0.7,1.1-1.1c0.2-0.5,0.3-1.2,0.3-2.3v-12H626.3z"/>
		<path id="XMLID_204_" d="M644.7,102.6v19.3h-3.9l-7.5-13c0,0.3,0,0.5,0,0.6c0,0.3,0.1,0.6,0.1,0.8v11.5h-3.5v-19.3h4.9l6.6,11.4
			c-0.1-0.6-0.1-1-0.1-1.3v-10.1H644.7z"/>
		<path id="XMLID_202_" d="M663.6,111.5v10.3h-2.1c-0.1-0.7-0.4-1.5-0.6-2.2c-1.4,1.7-3.1,2.5-5.3,2.5c-2.5,0-4.5-0.9-5.9-2.7
			c-1.4-1.8-2.1-4.1-2.1-7c0-3.1,0.7-5.5,2.2-7.4c1.5-1.9,3.5-2.8,6.1-2.8c2.1,0,3.9,0.6,5.2,1.8c1.3,1.2,2.1,2.8,2.4,4.8l-4.3,0.6
			c-0.3-2.3-1.5-3.5-3.3-3.5c-1.2,0-2.1,0.6-2.8,1.7c-0.6,1.1-0.9,2.7-0.9,4.7c0,2,0.3,3.5,1,4.5c0.7,1,1.6,1.6,2.9,1.6
			c0.8,0,1.5-0.3,2.2-0.8c0.6-0.5,1-1.4,1-2.5h-3.6v-3.6H663.6z"/>
		<path id="XMLID_200_" d="M682.4,102.6v12c0,1.9-0.2,3.4-0.7,4.3c-0.4,0.9-1.3,1.7-2.4,2.3c-1.2,0.6-2.7,0.9-4.6,0.9
			s-3.3-0.3-4.4-0.8c-1.1-0.5-1.9-1.3-2.5-2.3c-0.5-1-0.8-2.5-0.8-4.4v-12h4.9v12c0,1,0.1,1.8,0.3,2.3c0.2,0.5,0.5,0.9,1,1.2
			c0.5,0.3,1.2,0.4,1.9,0.4c0.8,0,1.5-0.1,2.1-0.4c0.5-0.3,0.9-0.7,1.1-1.1c0.2-0.5,0.3-1.2,0.3-2.3v-12H682.4z"/>
		<path id="XMLID_197_" d="M695,102.6l6,19.3h-4.9l-1.2-4h-6.2l-1.2,4h-4l6.2-19.3H695z M689.8,114.3h4.1l-2-6.8L689.8,114.3z"/>
		<path id="XMLID_195_" d="M717.9,102.6v19.3H714l-7.5-13c0,0.3,0,0.5,0,0.6c0,0.3,0.1,0.6,0.1,0.8v11.5h-3.5v-19.3h4.9l6.6,11.4
			c-0.1-0.6-0.1-1-0.1-1.3v-10.1H717.9z"/>
	</g>
	<g id="XMLID_74_">
		<path id="XMLID_191_" d="M598.3,143.7v7.2h-4.6v-19.3h7.6c1.7,0,3,0.2,3.9,0.5c0.9,0.4,1.7,1,2.4,1.9c0.7,0.9,1.1,2.1,1.1,3.4
			c0,1-0.2,1.9-0.6,2.8c-0.4,0.9-0.9,1.6-1.6,2.1c-0.7,0.5-1.4,0.9-2,1c-0.6,0.2-1.7,0.3-3,0.3H598.3z M598.1,140.2h2.9
			c1.1,0,1.9-0.3,2.4-0.8c0.5-0.5,0.7-1.1,0.7-1.8c0-0.8-0.3-1.4-0.8-1.9c-0.5-0.5-1.3-0.7-2.3-0.7h-2.9V140.2z"/>
		<path id="XMLID_188_" d="M619.4,131.6l6,19.3h-4.9l-1.2-4h-6.2l-1.2,4h-4l6.2-19.3H619.4z M614.3,143.3h4.1l-2-6.8L614.3,143.3z"
			/>
		<path id="XMLID_185_" d="M632.1,143.2v7.6h-4.5v-19.3h8.5c1.6,0,2.8,0.2,3.8,0.5c0.9,0.4,1.7,1,2.4,2c0.6,1,0.9,2,0.9,3.2
			c0,2.3-1.1,4-3.3,5l3.6,8.5h-5l-3-7.6H632.1z M632.1,135v4.9h2.8c0.9,0,1.6-0.1,2-0.2c0.4-0.1,0.8-0.4,1.1-0.8
			c0.3-0.4,0.5-0.9,0.5-1.5c0-0.5-0.2-1-0.5-1.4c-0.3-0.4-0.7-0.7-1-0.8c-0.4-0.1-1.1-0.1-2.1-0.1H632.1z"/>
		<path id="XMLID_183_" d="M659.9,135.8l-3.8,1.3c-0.5-1.5-1.6-2.3-3.3-2.3c-1.8,0-2.7,0.6-2.7,1.7c0,0.5,0.2,0.9,0.5,1.2
			c0.3,0.3,1.1,0.6,2.3,0.8c2,0.4,3.4,0.8,4.3,1.2c0.9,0.4,1.7,1.1,2.3,2c0.6,0.9,0.9,1.9,0.9,3c0,1.7-0.7,3.2-2,4.5
			c-1.3,1.3-3.3,1.9-6,1.9c-2,0-3.7-0.4-5-1.3c-1.4-0.9-2.3-2.2-2.7-4l4.2-0.9c0.5,1.8,1.8,2.7,3.9,2.7c1,0,1.8-0.2,2.3-0.6
			s0.8-0.9,0.8-1.4c0-0.6-0.2-1-0.7-1.3c-0.5-0.3-1.3-0.6-2.7-0.9c-2.5-0.5-4.2-1.2-5.2-2.1c-1-0.9-1.6-2.2-1.6-3.9
			c0-1.7,0.6-3.2,1.9-4.3c1.2-1.2,2.9-1.8,5.1-1.8C656.4,131.3,658.8,132.8,659.9,135.8z"/>
		<path id="XMLID_87_" d="M672.6,131.6l6,19.3h-4.9l-1.2-4h-6.2l-1.2,4h-4l6.2-19.3H672.6z M667.4,143.3h4.1l-2-6.8L667.4,143.3z"/>
		<path id="XMLID_85_" d="M695.3,131.6v12c0,1.9-0.2,3.4-0.7,4.3c-0.4,0.9-1.3,1.7-2.5,2.3c-1.2,0.6-2.7,0.9-4.6,0.9
			c-1.9,0-3.3-0.3-4.4-0.8c-1.1-0.5-1.9-1.3-2.5-2.3c-0.5-1-0.8-2.5-0.8-4.4v-12h4.9v12c0,1,0.1,1.8,0.3,2.3c0.2,0.5,0.5,0.9,1,1.2
			s1.2,0.4,1.9,0.4c0.8,0,1.5-0.1,2.1-0.4c0.5-0.3,0.9-0.7,1.1-1.1c0.2-0.5,0.3-1.2,0.3-2.3v-12H695.3z"/>
		<path id="XMLID_83_" d="M711.1,131.6v3.8h-4.8v15.5h-4.6v-15.5H697v-3.8H711.1z"/>
		<path id="XMLID_80_" d="M721.2,131.6l6,19.3h-4.9l-1.2-4h-6.2l-1.2,4h-4l6.2-19.3H721.2z M716,143.3h4.1l-2-6.8L716,143.3z"/>
		<path id="XMLID_77_" d="M735.9,151.1c-2.6,0-4.6-1-6-2.9c-1.4-1.9-2.1-4.3-2.1-7.1c0-2.8,0.7-5.2,2.2-7c1.4-1.9,3.5-2.8,6.2-2.8
			c2.7,0,4.7,1,6.1,3c1.4,2,2.1,4.3,2.1,6.9c0,2.8-0.7,5.2-2.1,7.1C740.7,150.2,738.6,151.1,735.9,151.1z M736,134.9
			c-2.4,0-3.6,2.1-3.6,6.2c0,4.2,1.2,6.3,3.6,6.3c2.3,0,3.4-2.1,3.4-6.2C739.5,137,738.3,134.9,736,134.9z"/>
		<path id="XMLID_75_" d="M762,131.6v19.3h-3.9l-7.5-13c0,0.3,0,0.5,0,0.6c0,0.3,0.1,0.6,0.1,0.8v11.5h-3.5v-19.3h4.9l6.6,11.4
			c-0.1-0.6-0.1-1-0.1-1.3v-10.1H762z"/>
	</g>
	<g id="XMLID_25_">
		<path id="XMLID_72_" d="M608.6,160.7v19.3h-4.4V172h-6v7.9h-4.4v-19.3h4.4v7.5h6v-7.5H608.6z"/>
		<path id="XMLID_69_" d="M621.9,160.7l6,19.3h-4.9l-1.2-4h-6.2l-1.2,4h-4l6.2-19.3H621.9z M616.7,172.4h4.1l-2-6.8L616.7,172.4z"/>
		<path id="XMLID_66_" d="M634.6,172.3v7.6H630v-19.3h8.5c1.6,0,2.8,0.2,3.8,0.5c0.9,0.4,1.7,1,2.4,2c0.6,1,0.9,2,0.9,3.2
			c0,2.3-1.1,4-3.3,5l3.6,8.5h-5l-3-7.6H634.6z M634.6,164.1v4.9h2.8c0.9,0,1.6-0.1,2-0.2s0.8-0.4,1.1-0.8c0.3-0.4,0.5-0.9,0.5-1.5
			c0-0.5-0.2-1-0.5-1.4c-0.3-0.4-0.7-0.7-1-0.8c-0.4-0.1-1.1-0.1-2.1-0.1H634.6z"/>
		<path id="XMLID_39_" d="M653.5,160.7v19.3H649v-19.3H653.5z"/>
		<path id="XMLID_32_" d="M666.8,160.7l6,19.3H668l-1.2-4h-6.2l-1.2,4h-4l6.2-19.3H666.8z M661.7,172.4h4.1l-2-6.8L661.7,172.4z"/>
		<path id="XMLID_28_" d="M689.8,160.7v19.3h-3.9l-7.5-13c0,0.3,0,0.5,0,0.6c0,0.3,0.1,0.6,0.1,0.8v11.5H675v-19.3h4.9l6.6,11.4
			c-0.1-0.6-0.1-1-0.1-1.3v-10.1H689.8z"/>
	</g>
	<g id="XMLID_2_">
		<path id="XMLID_17_" d="M593.7,189.7h9c1.6,0,2.8,0.2,3.6,0.6c0.8,0.4,1.5,1,2,1.7c0.5,0.7,0.8,1.6,0.8,2.7c0,2.1-1.2,3.6-3.5,4.3
			c1.3,0.3,2.3,0.9,3,1.8c0.7,0.9,1,1.9,1,2.9c0,1.4-0.5,2.7-1.6,3.7c-1.1,1-2.9,1.6-5.3,1.6h-9V189.7z M598.2,193.1v4.2h3.4
			c1.3,0,2-0.2,2.4-0.7c0.3-0.5,0.5-1,0.5-1.4c0-0.5-0.1-0.9-0.4-1.3c-0.3-0.4-0.6-0.6-0.9-0.7c-0.3-0.1-1-0.1-1.9-0.1H598.2z
			 M598.2,200.8v4.6h3.5c1.2,0,2-0.2,2.5-0.6c0.5-0.4,0.7-1,0.7-1.7c0-0.6-0.2-1.2-0.7-1.6s-1.2-0.7-2.3-0.7H598.2z"/>
		<path id="XMLID_8_" d="M619.7,209.3c-2.6,0-4.6-1-6-2.9c-1.4-1.9-2.1-4.3-2.1-7.1c0-2.8,0.7-5.2,2.2-7c1.4-1.9,3.5-2.8,6.2-2.8
			c2.7,0,4.7,1,6.1,3c1.4,2,2.1,4.3,2.1,6.9c0,2.8-0.7,5.2-2.1,7.1C624.5,208.4,622.5,209.3,619.7,209.3z M619.9,193.1
			c-2.4,0-3.6,2.1-3.6,6.2c0,4.2,1.2,6.3,3.6,6.3c2.3,0,3.4-2.1,3.4-6.2C623.3,195.2,622.2,193.1,619.9,193.1z"/>
		<path id="XMLID_6_" d="M645.9,189.7V209h-4.4v-7.9h-6v7.9H631v-19.3h4.4v7.5h6v-7.5H645.9z"/>
		<path id="XMLID_3_" d="M657,209.3c-2.6,0-4.6-1-6-2.9c-1.4-1.9-2.1-4.3-2.1-7.1c0-2.8,0.7-5.2,2.2-7c1.4-1.9,3.5-2.8,6.2-2.8
			c2.7,0,4.7,1,6.1,3c1.4,2,2.1,4.3,2.1,6.9c0,2.8-0.7,5.2-2.1,7.1C661.7,208.4,659.7,209.3,657,209.3z M657.1,193.1
			c-2.4,0-3.6,2.1-3.6,6.2c0,4.2,1.2,6.3,3.6,6.3c2.3,0,3.4-2.1,3.4-6.2C660.5,195.2,659.4,193.1,657.1,193.1z"/>
	</g>
</g>
</svg>
